<?xml version="1.0" standalone="no"?>
<!DOCTYPE svg PUBLIC "-//W3C//DTD SVG 20010904//EN"
 "http://www.w3.org/TR/2001/REC-SVG-20010904/DTD/svg10.dtd">
<svg version="1.0" xmlns="http://www.w3.org/2000/svg"
 width="1080.000000pt" height="1080.000000pt" viewBox="0 0 1080.000000 1080.000000"
 preserveAspectRatio="xMidYMid meet">

<g transform="translate(0.000000,1080.000000) scale(0.100000,-0.100000)"
fill="#000000" stroke="none">
<path d="M6241 6930 c-72 -72 -129 -135 -126 -139 3 -5 -6 -18 -19 -28 -14
-10 -49 -66 -78 -124 -57 -112 -57 -129 -5 -129 42 0 244 231 361 412 26 40
12 47 -26 12 l-32 -29 20 35 c29 51 55 120 46 120 -5 0 -68 -59 -141 -130z"/>
<path d="M4470 6501 c-36 -15 -78 -34 -95 -43 -16 -9 -55 -28 -86 -43 -31 -15
-84 -51 -118 -81 -47 -40 -78 -58 -129 -74 -92 -28 -109 -40 -54 -40 24 0 71
11 105 24 324 123 375 139 429 133 29 -3 72 -10 96 -15 l42 -9 45 82 c25 45
45 85 45 89 0 3 -48 6 -107 5 -94 0 -117 -4 -173 -28z"/>
<path d="M4842 6173 c3 -43 1 -48 -17 -45 -20 4 -37 21 -30 32 2 3 -10 5 -26
5 -16 1 -29 -3 -29 -8 0 -4 -5 -5 -10 -2 -6 4 -17 1 -25 -5 -8 -6 -19 -9 -25
-5 -5 3 -17 -1 -26 -9 -8 -9 -27 -16 -42 -17 -15 0 2 -7 37 -15 53 -11 73 -21
107 -55 24 -23 41 -47 37 -52 -3 -5 3 -7 13 -4 11 3 45 11 77 18 l57 12 -6 51
c-4 28 -10 55 -15 61 -5 5 -9 16 -9 25 0 21 -36 60 -56 60 -13 0 -15 -10 -12
-47z"/>
<path d="M6155 6050 c3 -5 8 -10 11 -10 2 0 4 5 4 10 0 6 -5 10 -11 10 -5 0
-7 -4 -4 -10z"/>
<path d="M6148 5875 c-3 -3 23 -50 59 -103 100 -148 125 -181 170 -230 l41
-47 37 18 36 17 -63 63 c-35 35 -105 107 -157 160 -51 54 -97 97 -101 97 -5 0
-10 7 -12 16 -2 9 -6 13 -10 9z"/>
<path d="M4905 5760 c3 -5 8 -10 11 -10 2 0 4 5 4 10 0 6 -5 10 -11 10 -5 0
-7 -4 -4 -10z"/>
<path d="M6658 5642 c6 -2 12 -8 12 -13 0 -6 -4 -8 -9 -5 -14 9 -41 -4 -41
-20 0 -8 -5 -14 -12 -14 -6 0 -8 -3 -5 -6 4 -4 13 -2 20 4 8 7 18 8 22 4 5 -4
5 -2 1 5 -3 6 -2 14 4 18 5 3 10 0 10 -7 0 -10 2 -10 9 1 5 8 14 10 22 6 8 -5
11 -5 7 0 -4 4 0 14 10 21 15 11 12 13 -23 12 -22 -1 -34 -3 -27 -6z"/>
<path d="M5040 5538 c-8 -13 -13 -26 -12 -30 1 -4 -11 -4 -25 -2 -40 7 -73 -4
-73 -24 0 -10 -13 -28 -30 -40 -31 -23 -45 -28 -35 -13 3 5 -9 3 -26 -6 -17
-8 -33 -21 -36 -29 -7 -18 -65 -51 -102 -58 -17 -3 -45 -9 -62 -12 -17 -3 -49
-12 -71 -20 -22 -7 -45 -11 -50 -8 -5 4 -20 2 -31 -4 -12 -6 -39 -13 -59 -17
-21 -3 -38 -10 -38 -15 0 -6 -3 -9 -7 -8 -12 4 -115 -58 -152 -91 -18 -17 -37
-29 -41 -26 -4 3 -13 -2 -20 -10 -7 -8 -19 -15 -27 -15 -8 0 -12 -4 -8 -9 3
-5 -3 -12 -14 -16 -10 -3 -27 -15 -37 -27 -19 -21 -19 -21 1 -14 11 5 32 12
47 16 15 5 44 26 65 47 21 21 52 48 68 60 17 12 42 32 57 43 14 11 32 20 38
20 7 0 26 7 43 15 18 8 78 17 137 20 58 3 130 7 162 9 55 4 149 -18 156 -36 2
-4 8 -8 13 -8 6 0 7 5 4 11 -5 7 -2 7 11 0 23 -12 92 -26 118 -23 10 1 24 -2
30 -7 16 -12 89 -35 104 -33 6 2 12 -4 12 -12 0 -12 -9 -15 -37 -13 -22 1 -38
-3 -40 -10 -3 -7 3 -13 13 -13 9 0 27 -12 40 -27 19 -22 26 -25 36 -15 9 9 9
12 0 12 -6 0 -9 6 -6 14 4 11 13 12 36 5 17 -4 34 -7 38 -4 3 2 14 -5 23 -16
16 -18 16 -19 -11 -19 -20 0 -23 -3 -12 -9 8 -6 18 -7 22 -5 4 3 8 0 8 -6 0
-13 61 -40 74 -33 5 4 6 1 3 -4 -4 -6 0 -13 8 -17 8 -3 15 -12 15 -20 0 -7 9
-16 20 -19 11 -3 17 -1 14 4 -3 5 24 -7 60 -27 36 -20 66 -33 66 -31 0 3 -15
21 -32 40 -18 19 -44 48 -57 63 -14 16 -59 68 -100 115 -47 53 -93 118 -119
170 -49 96 -145 259 -152 259 -3 0 -12 -10 -20 -22z m166 -393 c18 -15 18 -15
-10 -13 -16 2 -31 9 -34 16 -5 17 20 15 44 -3z"/>
<path d="M4078 5213 c-14 -21 -37 -63 -51 -93 -15 -30 -40 -70 -57 -87 -27
-29 -29 -33 -11 -33 28 0 51 10 51 23 0 5 23 57 50 115 53 110 60 138 18 75z"/>
<path d="M4960 5189 c0 -5 9 -9 20 -9 11 0 20 2 20 4 0 2 -9 6 -20 9 -11 3
-20 1 -20 -4z"/>
<path d="M5789 5067 c-1 -24 -7 -83 -10 -107 -1 -8 -1 -34 -1 -58 2 -34 7 -45
25 -52 77 -35 142 -77 145 -95 7 -38 20 -38 54 0 39 45 48 59 53 87 3 11 10
28 18 37 7 9 25 34 39 56 l25 40 -34 2 c-22 1 -31 -2 -27 -9 5 -7 2 -9 -8 -6
-8 4 -21 3 -28 -2 -17 -10 -67 7 -74 26 -3 8 -10 14 -17 14 -6 0 -28 12 -48
28 -20 15 -53 35 -73 45 -38 17 -38 16 -39 -6z"/>
</g>
</svg>
