<?xml version="1.0" standalone="no"?>
<!DOCTYPE svg PUBLIC "-//W3C//DTD SVG 20010904//EN"
 "http://www.w3.org/TR/2001/REC-SVG-20010904/DTD/svg10.dtd">
<svg version="1.0" xmlns="http://www.w3.org/2000/svg"
 width="1080.000000pt" height="1080.000000pt" viewBox="0 0 1080.000000 1080.000000"
 preserveAspectRatio="xMidYMid meet">

<g transform="translate(0.000000,1080.000000) scale(0.100000,-0.100000)"
fill="#000000" stroke="none">
<path d="M4630 9195 c0 -16 27 -32 37 -21 7 7 -16 36 -28 36 -5 0 -9 -7 -9
-15z"/>
<path d="M4340 9164 c0 -19 -39 -58 -80 -79 -16 -8 -30 -25 -32 -37 -2 -16
-13 -25 -42 -33 -26 -8 -42 -19 -48 -35 -8 -21 -9 -22 -27 -6 -10 9 -25 14
-35 10 -9 -3 -24 0 -34 7 -14 11 -15 11 -4 -1 17 -19 15 -66 -4 -95 -15 -24
-15 -25 2 -25 11 0 28 7 38 15 20 15 67 20 79 8 4 -3 1 -16 -6 -27 -32 -49
-30 -75 9 -129 20 -29 43 -56 50 -60 8 -4 14 -20 14 -35 0 -56 61 -147 93
-138 24 6 62 -14 88 -48 21 -27 43 -32 69 -16 13 8 12 11 -5 24 -11 9 -28 16
-37 16 -9 0 -26 16 -38 35 -18 30 -25 34 -37 23 -12 -10 -17 -9 -24 5 -6 9
-16 17 -24 17 -8 0 -22 11 -30 24 -15 23 -15 27 3 63 11 21 23 49 27 62 4 14
23 40 41 59 19 19 34 44 34 54 0 27 22 32 77 16 48 -14 83 -13 83 1 0 4 -29
29 -65 56 -65 48 -71 58 -36 68 22 5 32 0 47 -28 15 -27 41 -31 48 -7 4 10 19
25 33 31 25 12 26 14 9 23 -9 5 -27 8 -38 5 -25 -7 -68 12 -68 30 0 7 11 13
25 13 32 0 33 23 1 38 -18 8 -25 21 -30 55 -8 51 -17 57 -82 57 -34 0 -44 -4
-44 -16z m50 -38 c-13 -13 -35 7 -25 24 5 8 11 8 21 -1 10 -8 12 -15 4 -23z
m-280 -191 c0 -17 -2 -18 -24 -9 -23 9 -20 24 4 24 11 0 20 -7 20 -15z"/>
<path d="M4616 9153 c-3 -3 1 -14 10 -24 9 -10 14 -25 11 -34 -9 -22 16 -19
37 4 26 29 17 55 -20 58 -17 1 -34 0 -38 -4z"/>
<path d="M4888 9133 c7 -3 16 -2 19 1 4 3 -2 6 -13 5 -11 0 -14 -3 -6 -6z"/>
<path d="M4190 9082 c0 -10 -5 -23 -11 -29 -8 -8 -7 -13 1 -18 15 -9 26 3 34
38 5 20 3 27 -9 27 -8 0 -15 -8 -15 -18z"/>
<path d="M4555 9090 c-3 -5 1 -10 10 -10 9 0 13 5 10 10 -3 6 -8 10 -10 10 -2
0 -7 -4 -10 -10z"/>
<path d="M4573 9055 c-3 -9 -3 -19 1 -22 8 -9 37 18 30 28 -8 14 -24 11 -31
-6z"/>
<path d="M3990 9030 c-12 -8 -12 -10 3 -16 21 -8 35 2 21 16 -5 5 -15 6 -24 0z"/>
<path d="M5753 9018 c2 -7 12 -13 22 -13 10 0 20 6 23 13 2 7 -6 12 -23 12
-17 0 -25 -5 -22 -12z"/>
<path d="M4736 9001 c-4 -7 -5 -15 -2 -18 9 -9 19 4 14 18 -4 11 -6 11 -12 0z"/>
<path d="M5570 9001 c0 -10 52 -31 61 -25 5 3 9 12 9 19 0 10 -11 14 -35 13
-19 -1 -35 -4 -35 -7z"/>
<path d="M4900 8980 c0 -5 5 -10 11 -10 5 0 7 5 4 10 -3 6 -8 10 -11 10 -2 0
-4 -4 -4 -10z"/>
<path d="M7535 8970 c-3 -5 -4 -10 -1 -10 2 0 11 -3 20 -6 11 -4 16 -1 16 10
0 18 -25 22 -35 6z"/>
<path d="M5201 8954 c0 -11 3 -14 6 -6 3 7 2 16 -1 19 -3 4 -6 -2 -5 -13z"/>
<path d="M4843 8916 c3 -8 -1 -20 -8 -26 -19 -15 -10 -30 17 -30 16 0 19 5 14
23 -3 12 -6 28 -6 35 0 6 -5 12 -11 12 -6 0 -9 -6 -6 -14z"/>
<path d="M3388 8904 c-5 -4 -8 -19 -8 -33 0 -18 3 -22 11 -14 6 6 9 21 7 33
-1 12 -6 18 -10 14z"/>
<path d="M5200 8851 c0 -36 6 -37 55 -14 45 21 40 37 -13 41 -41 3 -42 2 -42
-27z"/>
<path d="M7580 8850 c0 -5 5 -10 11 -10 5 0 7 5 4 10 -3 6 -8 10 -11 10 -2 0
-4 -4 -4 -10z"/>
<path d="M3373 8827 c-13 -17 -15 -67 -3 -67 6 0 10 -11 10 -25 0 -30 15 -33
30 -5 8 14 8 32 0 60 -12 44 -23 56 -37 37z"/>
<path d="M4420 8781 c0 -5 4 -12 9 -15 4 -3 6 -17 4 -30 -3 -16 1 -32 12 -42
15 -16 18 -16 38 4 l21 21 -26 10 c-16 6 -28 19 -30 32 -3 22 -28 40 -28 20z"/>
<path d="M4660 8740 c0 -35 18 -39 45 -10 21 23 20 25 -17 34 -26 6 -28 4 -28
-24z"/>
<path d="M6811 8733 c-1 -18 4 -33 9 -33 12 0 12 17 0 45 -7 17 -9 15 -9 -12z"/>
<path d="M4590 8740 c0 -5 7 -10 15 -10 8 0 15 5 15 10 0 6 -7 10 -15 10 -8 0
-15 -4 -15 -10z"/>
<path d="M5042 8739 c2 -6 8 -10 13 -10 5 0 11 4 13 10 2 6 -4 11 -13 11 -9 0
-15 -5 -13 -11z"/>
<path d="M4970 8715 c0 -17 5 -25 13 -22 6 2 12 12 12 22 0 10 -6 20 -12 23
-8 2 -13 -6 -13 -23z"/>
<path d="M5085 8730 c-8 -14 3 -30 21 -30 8 0 14 9 14 20 0 21 -24 28 -35 10z"/>
<path d="M6085 8720 c-3 -5 1 -10 10 -10 9 0 13 5 10 10 -3 6 -8 10 -10 10 -2
0 -7 -4 -10 -10z"/>
<path d="M3195 8710 c-3 -5 1 -10 9 -10 9 0 16 5 16 10 0 6 -4 10 -9 10 -6 0
-13 -4 -16 -10z"/>
<path d="M4110 8711 c0 -6 4 -30 10 -53 5 -24 12 -55 15 -70 5 -24 10 -28 40
-28 19 0 35 4 35 9 0 5 -16 37 -36 70 -37 62 -64 93 -64 72z"/>
<path d="M6240 8692 c0 -9 -10 -23 -22 -31 -19 -12 -24 -11 -39 8 -20 24 -39
28 -39 6 0 -8 13 -21 29 -30 16 -8 31 -18 33 -23 4 -10 76 -52 90 -52 6 0 3 9
-6 19 -16 18 -28 63 -28 104 1 9 -3 17 -9 17 -5 0 -9 -8 -9 -18z"/>
<path d="M4421 8663 c2 -52 29 -68 104 -63 59 4 141 -2 149 -10 6 -6 18 -10
28 -10 10 0 42 -13 71 -30 69 -39 92 -38 49 1 -27 24 -31 33 -22 44 19 22 5
48 -19 36 -10 -6 -21 -8 -24 -5 -3 3 -24 10 -48 15 -34 8 -45 7 -60 -7 -16
-15 -23 -15 -43 -4 -14 7 -32 10 -41 6 -9 -3 -43 5 -75 19 -71 30 -70 30 -69
8z"/>
<path d="M7575 8660 c-3 -5 1 -10 10 -10 9 0 13 5 10 10 -3 6 -8 10 -10 10 -2
0 -7 -4 -10 -10z"/>
<path d="M3190 8652 c0 -4 -25 -33 -56 -66 -52 -54 -58 -58 -81 -47 -14 7 -27
10 -30 8 -7 -8 9 -37 21 -37 6 0 20 -16 30 -35 11 -20 35 -52 55 -72 34 -35
81 -99 109 -150 13 -23 37 -29 58 -15 7 4 15 35 19 70 8 71 -7 108 -47 114
-17 2 -23 10 -23 28 0 14 -6 35 -13 47 -6 11 -15 53 -18 92 -4 39 -11 71 -15
71 -5 0 -9 -3 -9 -8z m100 -283 c0 -5 -4 -9 -10 -9 -5 0 -10 7 -10 16 0 8 5
12 10 9 6 -3 10 -10 10 -16z"/>
<path d="M5012 8644 c-20 -8 -32 -20 -32 -32 0 -11 -6 -22 -13 -25 -7 -2 -22
-24 -35 -48 -13 -24 -28 -51 -34 -60 -9 -13 -7 -23 8 -45 10 -16 19 -36 19
-44 1 -17 3 -17 60 4 43 15 53 29 36 50 -9 10 -2 22 31 50 24 20 51 44 61 53
14 14 19 14 30 4 9 -11 9 -14 0 -18 -7 -3 -13 -11 -13 -18 0 -7 -16 -23 -35
-35 -19 -12 -33 -26 -29 -31 10 -16 43 -10 84 16 22 14 41 25 44 25 10 0 66
-55 66 -65 0 -13 103 -65 130 -65 11 0 30 10 41 21 18 18 29 20 70 15 40 -6
49 -4 49 9 0 10 10 15 34 15 50 0 66 -9 66 -36 0 -17 6 -24 20 -24 16 0 19 5
15 23 -6 24 7 41 48 62 31 15 40 62 16 86 -10 10 -19 30 -19 42 0 35 -28 54
-88 60 -54 6 -102 -7 -102 -28 0 -6 18 -24 40 -41 37 -27 52 -54 31 -54 -5 0
-29 19 -53 43 -60 60 -127 107 -153 107 -12 0 -31 -13 -44 -31 -21 -28 -24
-29 -40 -15 -24 22 -41 20 -41 -3 0 -20 35 -51 57 -51 7 0 13 9 13 20 0 24 9
25 35 6 16 -12 17 -16 6 -30 -7 -9 -20 -16 -27 -16 -8 0 -14 -4 -14 -8 0 -15
-51 -33 -73 -26 -11 3 -41 26 -66 50 -25 24 -50 44 -55 44 -5 0 -19 9 -31 20
-33 31 -76 40 -113 24z m78 -78 c0 -3 -4 -8 -10 -11 -5 -3 -10 -1 -10 4 0 6 5
11 10 11 6 0 10 -2 10 -4z m-42 -15 c11 -7 11 -9 -2 -14 -9 -4 -23 -4 -32 0
-13 5 -13 7 -2 14 7 5 15 9 18 9 3 0 11 -4 18 -9z m-65 -66 c1 -5 -6 -11 -15
-13 -11 -2 -18 3 -18 13 0 17 30 18 33 0z m440 -24 c34 -18 34 -33 0 -49 -25
-11 -29 -10 -49 15 -20 25 -20 29 -5 40 9 7 18 11 21 10 3 -2 17 -9 33 -16z
m257 -1 c6 -11 8 -25 5 -30 -9 -15 -35 -12 -35 4 0 8 -3 21 -6 30 -9 24 23 20
36 -4z"/>
<path d="M3447 8630 c-3 -13 0 -20 8 -20 21 0 27 16 11 29 -11 9 -15 7 -19 -9z"/>
<path d="M4910 8625 c0 -8 5 -15 10 -15 6 0 10 7 10 15 0 8 -4 15 -10 15 -5 0
-10 -7 -10 -15z"/>
<path d="M3985 8619 c-4 -5 -4 -13 0 -18 3 -5 1 -12 -5 -16 -16 -10 -1 -25 25
-25 35 0 39 15 10 44 -13 13 -27 20 -30 15z"/>
<path d="M5957 8616 c-7 -18 -75 -30 -92 -16 -8 7 -28 9 -49 4 -33 -6 -36 -9
-36 -40 0 -23 5 -34 14 -34 24 0 29 -19 12 -45 -9 -13 -16 -32 -16 -41 0 -9
-15 -33 -33 -55 -48 -56 -89 -143 -95 -200 -5 -52 -2 -56 28 -37 15 10 22 9
37 -3 10 -9 25 -18 33 -21 12 -4 15 -21 14 -74 -1 -77 -14 -118 -45 -143 -19
-15 -20 -20 -8 -39 10 -16 11 -24 2 -33 -9 -9 -15 -3 -27 26 -24 58 -21 103 8
116 31 14 43 57 22 77 -16 17 -14 19 -31 -34 -7 -21 -29 -13 -33 12 -7 46 -13
64 -22 64 -10 0 -7 -80 6 -165 3 -22 2 -50 -3 -62 l-8 -23 -55 35 c-30 19 -62
38 -70 42 -8 4 -39 26 -68 50 -30 25 -63 43 -77 43 -35 0 -31 -19 4 -26 17 -4
38 -15 47 -25 14 -16 15 -21 3 -35 -11 -14 -9 -15 24 -9 30 6 37 4 37 -8 0 -9
7 -20 15 -25 14 -7 13 -11 -5 -27 -18 -16 -25 -17 -51 -8 -21 8 -39 9 -57 2
l-26 -10 32 -25 c18 -14 32 -35 32 -46 0 -16 3 -18 13 -9 8 6 17 8 20 4 12
-11 8 -23 -8 -23 -23 0 -20 -51 3 -57 16 -4 67 -91 59 -100 -2 -1 -17 16 -33
38 -16 22 -37 49 -47 59 -26 25 -87 122 -87 137 0 7 -4 13 -10 13 -5 0 -10 6
-10 13 0 6 -6 24 -14 38 -13 25 -12 27 16 44 37 22 24 39 -18 23 -26 -10 -35
-8 -70 16 -22 14 -51 44 -64 65 -22 35 -32 41 -82 51 -54 10 -58 13 -58 39 0
22 -8 32 -35 47 l-35 19 -30 -31 c-29 -28 -31 -35 -31 -105 -1 -85 26 -154 65
-169 13 -5 26 -20 30 -36 l7 -28 32 34 c31 33 32 34 35 12 2 -13 -4 -35 -13
-49 -17 -25 -17 -27 6 -44 20 -15 22 -21 11 -36 -24 -35 -25 -46 -7 -99 22
-64 74 -119 105 -111 14 4 23 0 26 -11 3 -9 10 -25 15 -36 8 -14 6 -22 -10
-37 -30 -28 -36 -65 -18 -105 14 -28 22 -34 47 -34 25 0 30 -4 30 -24 0 -14 5
-28 10 -31 6 -3 10 -17 10 -29 0 -13 7 -29 15 -36 8 -7 15 -27 15 -44 0 -18 7
-41 15 -52 19 -25 19 -30 -2 -38 -10 -3 -26 -11 -35 -18 -14 -10 -22 -10 -38
0 -24 15 -24 14 -5 -32 12 -28 21 -36 40 -36 27 0 48 -31 27 -38 -7 -2 -12
-15 -12 -29 0 -20 -4 -24 -22 -22 -58 8 -63 -34 -11 -92 39 -43 80 -69 111
-69 17 0 18 3 8 35 -9 28 -15 34 -30 29 -14 -5 -17 -2 -13 7 3 8 8 22 12 31 5
12 2 20 -9 24 -20 8 -21 34 -2 34 7 0 16 -9 19 -21 4 -13 12 -19 25 -17 10 2
27 -3 36 -11 12 -10 20 -11 27 -4 7 7 3 12 -14 17 -29 7 -43 34 -22 42 20 8
19 20 -5 44 -11 11 -20 25 -20 30 0 18 26 10 50 -15 13 -14 29 -25 36 -25 7 0
17 -8 23 -17 5 -10 13 -15 16 -11 4 4 -7 28 -24 53 -17 25 -31 50 -31 54 0 4
-10 19 -22 32 -13 14 -32 38 -42 54 -11 17 -25 34 -33 38 -15 9 -18 37 -3 37
5 0 14 -9 20 -19 5 -11 18 -22 28 -25 10 -3 26 -20 36 -37 10 -18 41 -54 68
-82 39 -39 52 -48 58 -37 6 10 3 21 -7 33 -15 16 -15 19 6 33 17 13 20 19 10
30 -9 11 -8 18 3 32 9 9 17 24 20 32 4 11 8 9 17 -9 11 -19 11 -22 0 -16 -8 6
-11 4 -6 -7 3 -9 0 -21 -6 -27 -8 -8 -8 -14 0 -22 15 -15 33 -3 33 22 0 10 7
19 15 19 8 0 15 9 15 20 0 11 7 23 15 26 20 8 9 104 -14 121 -9 6 -12 15 -8
20 5 4 14 1 21 -9 14 -19 45 -26 64 -14 22 13 35 -9 36 -61 1 -47 10 -73 24
-73 10 0 32 74 32 108 0 31 34 66 56 58 7 -3 19 3 26 12 7 9 20 19 28 21 38 9
45 5 48 -24 2 -16 7 -34 12 -39 11 -11 50 29 50 52 0 23 44 66 61 60 7 -2 13
-29 15 -71 2 -37 6 -77 9 -87 9 -27 37 -25 65 5 13 14 20 25 15 25 -5 0 -4 5
2 11 6 6 34 12 62 13 52 3 83 19 79 41 -3 14 57 85 72 85 5 0 10 -12 12 -27 3
-24 7 -28 37 -29 26 0 36 -6 42 -22 5 -12 15 -22 24 -22 29 0 4 188 -40 292
-16 40 -14 39 -175 62 -52 8 -99 12 -104 9 -4 -3 -25 -1 -45 5 -20 6 -48 14
-63 17 -23 4 -28 11 -28 34 0 16 6 31 15 34 8 4 23 23 35 44 11 21 29 52 40
68 35 55 49 80 60 107 7 15 21 30 32 33 13 5 17 12 12 23 -4 10 -13 35 -21 57
-8 22 -23 49 -34 61 -10 11 -19 27 -19 36 0 24 -35 49 -79 55 -49 7 -69 26
-51 48 9 11 17 12 30 5 34 -18 86 -12 103 13 23 34 33 12 12 -27 -20 -38 -15
-66 13 -66 15 0 18 -5 14 -25 -2 -15 2 -33 10 -43 8 -9 18 -25 21 -34 10 -27
23 -22 46 18 22 36 22 37 1 31 -11 -3 -20 -2 -20 3 0 15 30 32 45 26 27 -10
17 33 -10 46 -26 12 -34 26 -12 25 26 -1 77 28 77 45 0 9 5 20 11 24 6 3 9 19
5 34 -3 20 1 33 14 45 30 27 24 38 -16 32 -35 -6 -64 8 -64 31 0 5 -9 12 -21
15 -12 3 -18 10 -14 16 10 17 -16 12 -55 -9 -19 -10 -45 -25 -58 -31 -16 -9
-31 -10 -49 -3 -33 11 -42 34 -14 34 17 0 21 6 21 29 0 33 -2 35 -42 45 -25 6
-28 3 -38 -36 -6 -24 -18 -59 -26 -78 l-16 -35 -20 28 c-23 31 -38 35 -38 9 0
-10 -6 -26 -14 -37 -7 -11 -16 -37 -20 -57 -8 -42 -25 -49 -44 -18 -7 11 -18
20 -25 20 -7 0 -24 12 -38 28 -14 15 -33 32 -42 37 -25 15 -12 55 19 55 18 0
25 -7 32 -32 7 -28 13 -34 40 -36 25 -3 32 0 32 15 0 23 -11 38 -33 46 -25 9
-17 41 11 45 15 2 22 -2 22 -12 0 -9 5 -16 10 -16 6 0 10 13 10 29 0 65 25 82
36 26 8 -42 21 -41 52 5 25 38 29 75 7 84 -11 4 -15 -1 -15 -19 0 -18 -5 -25
-20 -25 -13 0 -20 7 -20 18 0 18 -18 42 -31 42 -4 0 -9 -6 -12 -14z m71 -341
c6 -5 -11 -65 -19 -65 -11 0 -40 61 -33 72 5 7 41 3 52 -7z m132 -110 c11 -13
7 -15 -24 -15 -25 0 -36 4 -36 15 0 9 9 15 24 15 13 0 29 -7 36 -15z m-284
-46 c10 -17 -13 -36 -27 -22 -12 12 -4 33 11 33 5 0 12 -5 16 -11z m8 -111 c7
-18 16 -53 20 -77 6 -39 5 -43 -11 -36 -10 4 -34 13 -53 20 -39 14 -53 52 -26
67 9 5 16 15 16 21 0 15 20 37 33 37 4 0 14 -15 21 -32z m91 -78 c0 -7 -6 -15
-12 -17 -8 -3 -13 4 -13 17 0 13 5 20 13 18 6 -3 12 -11 12 -18z m-179 -38
c-9 -9 -37 8 -31 18 5 8 11 7 21 -1 8 -6 12 -14 10 -17z m-530 -28 c-5 -13
-10 -14 -18 -6 -6 6 -8 18 -4 28 5 13 10 14 18 6 6 -6 8 -18 4 -28z m654 -21
l13 -38 9 33 c6 23 14 32 26 30 9 -1 23 1 30 6 19 12 51 -20 45 -45 -5 -20 -6
-19 -30 3 -17 16 -24 18 -22 8 4 -21 -23 -60 -42 -60 -18 0 -29 -20 -29 -51 0
-31 -16 -22 -33 19 -14 34 -16 35 -22 15 -11 -35 -25 -27 -25 14 0 34 39 103
59 103 4 0 13 -17 21 -37z m-714 -28 c21 -19 34 -34 28 -35 -6 0 -23 11 -38
25 -15 14 -31 25 -36 25 -5 0 -12 5 -15 10 -14 23 25 7 61 -25z m454 -4 c0 -9
3 -41 6 -71 5 -42 4 -52 -5 -44 -15 14 -41 112 -35 129 7 18 34 7 34 -14z
m-360 -2 c0 -5 -7 -9 -15 -9 -15 0 -20 12 -9 23 8 8 24 -1 24 -14z m444 -80
l-8 -24 -7 25 c-13 46 -11 56 7 38 11 -11 14 -23 8 -39z m-419 -89 c19 -21 15
-24 -22 -14 -13 4 -23 13 -23 20 0 20 24 17 45 -6z m365 -45 c0 -8 -2 -15 -4
-15 -2 0 -6 7 -10 15 -3 8 -1 15 4 15 6 0 10 -7 10 -15z m-337 -66 c-8 -8 -16
-2 -31 19 -28 38 -15 50 17 17 18 -18 22 -28 14 -36z m853 6 c-3 -57 -21 -79
-35 -43 -18 48 -17 62 9 75 14 7 26 13 26 13 1 0 1 -20 0 -45z m74 -7 c31 -10
40 -18 40 -35 0 -17 6 -23 23 -23 13 0 28 5 35 12 16 16 15 7 -4 -30 -17 -35
-35 -40 -54 -17 -17 21 -50 18 -80 -5 -34 -27 -50 -25 -50 5 0 20 5 25 25 25
31 0 45 28 22 42 -19 10 -23 38 -7 38 6 0 28 -6 50 -12z m-560 -70 c0 -18 -2
-20 -9 -8 -6 8 -7 18 -5 22 9 14 14 9 14 -14z m400 -58 c0 -5 -5 -10 -11 -10
-5 0 -7 5 -4 10 3 6 8 10 11 10 2 0 4 -4 4 -10z m-900 -25 c0 -8 -4 -15 -9
-15 -13 0 -22 16 -14 24 11 11 23 6 23 -9z m528 -67 c8 -19 8 -29 1 -34 -20
-12 -34 19 -30 66 1 17 13 4 29 -32z m522 12 c0 -5 -6 -10 -14 -10 -8 0 -18 5
-21 10 -3 6 3 10 14 10 12 0 21 -4 21 -10z m-614 -135 c9 -20 14 -38 11 -41
-5 -5 -37 52 -37 68 0 17 10 7 26 -27z m-276 -165 c0 -5 -2 -10 -4 -10 -3 0
-8 5 -11 10 -3 6 -1 10 4 10 6 0 11 -4 11 -10z"/>
<path d="M3527 8608 c-2 -7 -2 -21 1 -31 4 -16 6 -16 19 3 14 20 10 40 -7 40
-4 0 -10 -6 -13 -12z"/>
<path d="M4836 8612 c-10 -17 32 -55 52 -47 15 6 15 8 -3 17 -11 7 -25 18 -31
26 -8 11 -13 12 -18 4z"/>
<path d="M7520 8605 c0 -8 4 -15 9 -15 5 0 11 7 15 15 3 9 0 15 -9 15 -8 0
-15 -7 -15 -15z"/>
<path d="M8078 8603 c-9 -10 -28 -26 -42 -36 -26 -18 -34 -51 -16 -62 6 -4 8
-15 5 -26 -10 -29 37 -25 74 7 39 33 39 45 1 38 -33 -7 -42 11 -11 21 14 4 19
15 19 40 0 39 -6 43 -30 18z"/>
<path d="M7030 8595 c0 -9 5 -15 11 -13 6 2 11 8 11 13 0 5 -5 11 -11 13 -6 2
-11 -4 -11 -13z"/>
<path d="M7960 8594 c-9 -10 -10 -18 -2 -26 12 -12 32 -2 32 17 0 21 -16 26
-30 9z"/>
<path d="M2930 8566 c0 -9 7 -16 16 -16 17 0 14 22 -4 28 -7 2 -12 -3 -12 -12z"/>
<path d="M3655 8560 c-3 -5 1 -10 9 -10 9 0 16 5 16 10 0 6 -4 10 -9 10 -6 0
-13 -4 -16 -10z"/>
<path d="M4424 8561 c-10 -10 -2 -21 16 -21 12 0 20 -7 20 -17 0 -22 52 -24
120 -4 41 12 45 11 61 -8 11 -13 29 -21 48 -21 16 0 33 -4 36 -10 3 -5 15 -10
27 -10 16 0 18 3 10 13 -14 16 -127 74 -164 82 -33 8 -68 -2 -68 -20 0 -16
-41 -28 -54 -15 -7 7 -6 10 2 10 7 0 12 7 12 15 0 10 -10 14 -31 12 -17 -1
-32 -4 -35 -6z"/>
<path d="M4073 8543 c9 -9 19 -14 23 -11 10 10 -6 28 -24 28 -15 0 -15 -1 1
-17z"/>
<path d="M7011 8544 c0 -11 3 -14 6 -6 3 7 2 16 -1 19 -3 4 -6 -2 -5 -13z"/>
<path d="M3507 8533 c-16 -8 -26 -17 -23 -20 6 -7 66 20 66 29 0 11 -10 9 -43
-9z"/>
<path d="M4126 8527 c-18 -13 -17 -15 14 -25 46 -17 52 -15 48 11 -4 26 -35
34 -62 14z"/>
<path d="M7240 8522 c0 -10 43 -52 53 -52 15 0 6 23 -15 41 -25 20 -38 24 -38
11z"/>
<path d="M7926 8491 c5 -32 2 -43 -16 -61 -19 -19 -30 -22 -71 -17 -58 7 -79
-13 -48 -44 25 -25 46 -24 54 1 3 11 13 20 21 20 18 0 18 -16 0 -23 -9 -4 -12
-14 -9 -26 4 -14 1 -21 -10 -21 -14 0 -27 -45 -19 -68 7 -21 22 -13 22 12 0
14 5 28 11 31 10 7 18 0 64 -54 l20 -24 -24 6 c-14 3 -31 1 -38 -5 -9 -7 -17
-7 -26 1 -8 6 -17 8 -21 4 -4 -4 -11 -1 -17 7 -8 13 -11 13 -20 -2 -13 -24
-26 -23 -34 2 -4 11 -15 20 -27 20 -11 0 -22 8 -25 20 -7 27 -17 25 -41 -5
-16 -19 -19 -35 -15 -67 4 -29 3 -39 -5 -34 -8 5 -12 -3 -12 -24 0 -17 -7 -45
-16 -62 -12 -23 -16 -64 -17 -162 l-2 -131 44 2 c24 1 48 6 54 12 16 16 37 0
37 -29 0 -15 7 -41 15 -56 8 -16 15 -34 15 -41 0 -20 -22 -27 -32 -9 -5 9 -17
16 -28 16 -10 0 -22 9 -25 20 -7 24 -23 26 -31 5 -7 -18 -31 -20 -36 -3 -7 19
-27 -1 -53 -52 -29 -58 -43 -130 -25 -130 6 0 14 9 17 20 3 11 7 20 10 20 14
0 52 -59 53 -81 0 -15 7 -32 15 -39 8 -7 15 -18 15 -25 0 -18 -34 -45 -57 -45
-19 0 -63 -38 -63 -55 0 -5 -6 -16 -13 -24 -7 -9 -20 -35 -27 -59 -12 -37 -12
-45 1 -53 10 -6 11 -11 3 -16 -7 -5 -17 -27 -24 -50 -11 -34 -11 -45 0 -58 11
-13 10 -19 -4 -33 -18 -21 -21 -42 -6 -42 14 0 30 35 30 64 0 14 6 26 13 26 6
0 27 18 46 40 24 27 46 42 70 46 51 9 91 40 91 69 0 14 9 29 20 35 12 6 20 21
20 36 0 14 4 22 10 19 6 -4 10 5 10 20 0 14 6 38 14 53 7 15 16 44 20 65 8 45
27 48 43 7 6 -16 18 -30 27 -30 19 0 20 -9 3 -35 -17 -25 -40 -105 -33 -112 3
-3 12 -3 21 1 12 4 16 16 13 43 -3 42 15 55 37 27 21 -27 19 -37 -17 -73 -27
-28 -30 -35 -20 -52 10 -15 9 -19 -2 -19 -30 0 -64 -48 -68 -92 -3 -40 -1 -43
25 -46 32 -4 34 -14 7 -33 -22 -15 -41 -109 -22 -109 12 0 72 73 72 89 0 6 9
11 20 11 13 0 20 7 20 19 0 10 6 24 14 30 15 13 26 54 31 116 2 22 6 47 9 55
3 8 4 33 2 55 -2 22 -4 50 -5 63 -1 13 -5 20 -11 17 -6 -4 -9 -14 -8 -22 2 -9
-3 -18 -9 -20 -7 -3 -13 3 -13 13 0 10 -7 25 -16 35 -19 21 -11 39 16 39 24 0
36 18 21 33 -7 7 -16 5 -31 -8 -20 -18 -20 -18 -20 20 0 29 3 35 13 27 15 -12
77 -3 77 12 -1 6 -18 30 -39 54 -38 41 -61 53 -61 32 0 -7 -13 -8 -36 -4 -31
6 -36 4 -41 -15 -6 -25 -26 -23 -32 4 -3 20 34 54 60 55 23 0 34 32 14 42 -19
11 -20 28 0 28 8 0 15 9 15 20 0 11 7 23 15 26 19 8 17 74 -2 81 -8 3 -25 1
-39 -6 -20 -9 -28 -7 -44 9 -26 26 -25 39 3 49 32 12 46 32 49 69 2 30 5 32
29 27 15 -4 30 -2 33 3 3 6 16 8 29 6 20 -4 21 -4 2 5 -11 5 -28 12 -37 15
-28 9 -21 22 22 41 22 10 40 22 40 27 0 17 28 7 33 -12 6 -23 55 -28 75 -8 19
19 15 25 -19 32 -27 5 -30 9 -25 31 6 23 4 25 -28 25 -22 0 -45 -9 -64 -25
-36 -30 -52 -32 -52 -4 0 11 -5 30 -11 41 -16 30 4 47 30 24 23 -21 27 -15 36
47 6 39 5 46 -8 42 -9 -4 -16 2 -20 16 -8 31 1 38 19 15 23 -32 35 -7 41 91 5
83 4 92 -16 112 -35 35 -52 28 -45 -18z m-6 -141 c0 -5 -4 -10 -10 -10 -5 0
-10 5 -10 10 0 6 5 10 10 10 6 0 10 -4 10 -10z m-200 -140 c0 -5 6 -10 13 -10
16 0 53 -38 45 -46 -6 -5 -1 -28 17 -79 6 -17 4 -17 -14 4 -12 13 -21 29 -21
36 0 8 -8 16 -18 19 -10 4 -23 21 -30 39 -15 41 -15 47 -2 47 6 0 10 -4 10
-10z m160 -151 c0 -5 -4 -9 -10 -9 -5 0 -10 7 -10 16 0 8 5 12 10 9 6 -3 10
-10 10 -16z m47 -511 c-3 -8 -6 -5 -6 6 -1 11 2 17 5 13 3 -3 4 -12 1 -19z
m38 -289 c10 -15 -1 -22 -24 -14 -12 3 -19 11 -16 16 8 12 32 11 40 -2z m-35
-84 c0 -9 -7 -18 -15 -21 -8 -4 -15 -15 -15 -25 0 -10 -4 -19 -10 -19 -13 0
-13 3 7 45 17 37 33 46 33 20z"/>
<path d="M2933 8503 c-7 -2 -13 -17 -13 -32 0 -15 -5 -32 -12 -39 -15 -15 -5
-24 27 -24 36 0 31 -16 -7 -20 -41 -4 -46 -23 -12 -41 25 -13 28 -21 31 -72 2
-32 -1 -63 -7 -70 -8 -9 -3 -19 20 -38 25 -21 29 -30 24 -56 -4 -20 -3 -31 5
-31 21 0 23 27 5 79 -17 54 -12 79 10 48 24 -32 56 -14 36 22 -6 13 -7 22 0
26 14 9 40 -61 40 -109 1 -58 17 -76 60 -67 27 5 39 15 55 46 11 22 23 42 28
43 13 7 7 41 -15 79 -46 80 -162 213 -185 213 -7 0 -13 7 -13 15 0 25 -45 42
-77 28z m88 -166 c-13 -13 -26 -3 -16 12 3 6 11 8 17 5 6 -4 6 -10 -1 -17z
m79 3 c0 -5 -4 -10 -10 -10 -5 0 -10 5 -10 10 0 6 5 10 10 10 6 0 10 -4 10
-10z m-65 -39 c3 -5 1 -12 -5 -16 -5 -3 -10 1 -10 9 0 18 6 21 15 7z"/>
<path d="M6564 8499 c-7 -12 15 -31 28 -23 4 3 8 12 8 20 0 17 -26 19 -36 3z"/>
<path d="M3465 8491 c-3 -5 -1 -12 5 -16 5 -3 10 1 10 9 0 18 -6 21 -15 7z"/>
<path d="M4540 8480 c-16 -10 19 -50 44 -50 26 0 51 24 42 38 -7 12 -72 20
-86 12z"/>
<path d="M6889 8485 c-3 -5 -9 -23 -13 -40 -7 -28 -6 -29 9 -14 9 9 15 27 13
40 -2 13 -6 20 -9 14z"/>
<path d="M3987 8461 c-2 -10 4 -32 14 -47 l18 -28 6 26 c4 15 5 35 3 45 -5 25
-34 28 -41 4z"/>
<path d="M4786 8448 c-5 -24 -10 -29 -26 -25 -10 3 -27 -1 -37 -9 -24 -18 -33
-17 -33 2 0 19 -19 14 -67 -19 -44 -29 -48 -46 -16 -58 32 -12 82 3 108 31 10
11 26 20 36 20 10 0 21 5 24 10 3 6 15 10 25 10 20 0 45 34 36 49 -3 5 -14 11
-25 14 -15 3 -20 -2 -25 -25z"/>
<path d="M3557 8429 c-9 -6 -22 -7 -28 -3 -7 4 -10 1 -7 -7 4 -13 55 -15 67
-3 12 11 -16 22 -32 13z"/>
<path d="M3337 8410 c-3 -11 -1 -22 3 -25 11 -7 32 30 23 39 -11 11 -21 6 -26
-14z"/>
<path d="M6540 8386 c-5 -15 -13 -57 -16 -94 -5 -55 -2 -76 15 -114 17 -40 18
-51 8 -72 -13 -23 -13 -23 -36 -5 -32 26 -51 24 -51 -6 0 -14 -8 -29 -19 -35
-11 -5 -23 -20 -27 -32 -6 -21 -7 -21 -20 -3 -13 18 -15 18 -44 -10 -16 -16
-30 -36 -30 -44 0 -9 -9 -22 -21 -29 -11 -7 -27 -27 -35 -45 -8 -18 -31 -54
-50 -82 -19 -27 -34 -58 -34 -67 0 -10 -4 -18 -9 -18 -17 0 -24 -42 -10 -51 8
-5 46 -9 84 -9 39 1 106 -3 150 -9 45 -6 84 -6 89 -1 5 5 10 32 11 60 3 55 8
66 25 55 8 -5 10 -28 5 -76 -4 -43 -3 -74 3 -82 6 -6 12 -23 14 -37 4 -34 35
-38 49 -7 6 14 20 27 30 30 10 3 21 18 25 33 4 16 14 34 22 40 11 8 13 20 9
43 -8 38 25 91 55 91 25 0 23 -28 -4 -51 -23 -19 -23 -19 -3 -34 11 -9 25 -13
32 -11 15 6 37 -30 28 -44 -3 -6 -20 -10 -37 -10 -37 0 -83 -32 -104 -72 -9
-17 -27 -41 -41 -54 -22 -21 -24 -29 -19 -71 4 -26 7 -60 8 -75 1 -23 6 -28
26 -28 l25 0 -20 -22 c-22 -24 -30 -53 -20 -78 3 -8 8 -27 11 -42 8 -33 28
-36 59 -8 12 12 29 27 38 35 17 17 29 19 29 7 0 -5 -18 -21 -39 -38 -43 -32
-43 -30 -34 -161 l5 -72 33 -7 c19 -3 39 -12 46 -20 15 -18 39 -18 67 2 35 24
46 7 17 -28 -14 -16 -25 -33 -25 -38 0 -5 -25 0 -55 11 -30 10 -63 19 -73 19
-20 0 -52 -29 -52 -46 0 -6 -20 -28 -43 -50 -24 -21 -80 -73 -123 -114 -44
-41 -99 -92 -122 -113 -23 -21 -40 -42 -37 -47 3 -4 -6 -11 -19 -14 -13 -3
-35 -24 -50 -46 -45 -68 -64 -49 -46 46 11 60 16 67 52 90 34 21 58 56 58 83
0 5 -9 11 -20 14 -12 3 -20 14 -20 26 0 12 -7 24 -15 27 -8 4 -15 16 -15 29 0
12 -7 28 -15 35 -25 21 -1 37 29 20 21 -11 31 -10 66 4 22 9 54 16 70 16 23 0
30 4 30 20 0 27 16 25 24 -2 3 -13 17 -31 31 -41 l26 -19 -6 25 c-8 31 8 42
35 25 18 -12 24 -9 55 25 19 21 38 49 41 63 10 38 -5 125 -30 180 l-23 49 -94
0 c-93 -1 -162 -17 -257 -61 -18 -9 -42 -12 -54 -9 -19 7 -20 4 -15 -26 3 -19
9 -88 12 -155 3 -66 9 -142 14 -168 5 -25 5 -49 0 -52 -5 -2 -6 -17 -3 -32 4
-20 -3 -43 -25 -81 -36 -60 -36 -64 -15 -96 13 -19 14 -33 6 -68 -5 -24 -7
-58 -4 -75 3 -25 -2 -38 -27 -62 -17 -18 -31 -42 -31 -54 0 -12 -11 -33 -25
-46 -45 -43 -62 -81 -52 -118 8 -25 6 -36 -6 -50 -22 -25 -49 -100 -51 -146
-1 -25 -8 -43 -21 -52 -51 -35 -105 -100 -105 -126 0 -18 -7 -29 -20 -33 -11
-3 -20 -15 -20 -25 0 -11 -15 -34 -34 -53 -18 -19 -42 -47 -52 -63 -10 -16
-33 -47 -51 -70 -22 -28 -30 -47 -26 -62 4 -15 0 -24 -13 -28 -35 -13 -54 -37
-54 -69 0 -33 -45 -95 -68 -95 -18 0 -24 -20 -12 -35 9 -10 7 -16 -7 -23 -13
-8 -20 -6 -29 6 -10 13 -15 14 -25 5 -10 -10 -10 -15 0 -27 11 -13 9 -22 -8
-49 -28 -46 -27 -56 14 -73 19 -8 35 -21 35 -30 0 -15 -10 -14 -56 3 -6 2 -17
-10 -24 -26 -7 -17 -16 -29 -20 -26 -9 6 -20 -29 -20 -66 0 -15 -7 -29 -15
-32 -9 -4 -14 -18 -12 -44 2 -31 -2 -40 -20 -48 -14 -6 -23 -18 -23 -32 0 -13
-4 -23 -10 -23 -5 0 -10 -5 -10 -11 0 -6 9 -9 20 -6 17 4 18 2 9 -14 -12 -23
-37 -25 -45 -4 -4 8 -13 15 -21 15 -8 0 -12 -4 -9 -9 10 -16 -6 -42 -30 -52
-14 -5 -30 -21 -36 -36 -6 -16 -25 -43 -42 -60 -16 -18 -25 -33 -18 -33 7 0
12 5 12 10 0 6 6 10 13 10 22 0 57 36 57 59 0 24 39 44 110 55 25 4 69 14 98
22 46 14 52 19 52 42 0 15 8 41 18 57 10 17 29 56 42 89 21 53 28 61 74 81 56
25 94 59 77 70 -29 17 3 62 55 79 20 6 88 88 113 134 6 11 24 25 40 32 39 16
58 45 67 106 4 27 18 66 30 86 13 21 24 41 24 45 0 3 20 47 44 97 24 50 62
129 85 176 22 47 55 111 73 143 26 49 30 62 20 78 -7 10 -12 25 -12 34 0 23
56 80 113 116 28 18 63 42 77 54 14 12 47 34 73 49 45 25 52 27 98 17 94 -20
125 -15 169 28 22 21 40 43 40 48 0 15 -60 64 -70 58 -5 -3 -26 -2 -45 4 -27
7 -42 6 -63 -5 -63 -33 -68 -11 -11 44 46 43 52 78 7 43 -14 -12 -33 -21 -42
-21 -9 0 -16 -8 -16 -20 0 -26 -36 -27 -49 -2 -8 15 -2 26 34 60 47 44 63 49
96 31 15 -8 24 -7 35 2 13 11 14 9 9 -14 -6 -23 -4 -27 13 -27 12 0 24 5 27
11 21 33 101 33 90 -1 -9 -29 16 -36 37 -10 25 30 21 86 -9 126 -13 17 -23 34
-23 37 0 17 35 4 60 -23 l28 -30 7 33 c9 38 7 68 -7 84 -6 8 -4 14 8 21 14 8
15 16 5 62 -13 61 -9 70 19 45 14 -12 27 -16 47 -11 15 4 50 11 77 16 27 5 56
16 66 25 9 8 22 15 29 15 29 0 90 41 103 70 7 17 23 33 36 36 12 4 22 12 22
20 0 7 8 19 18 26 19 15 42 52 42 68 0 6 15 24 32 41 18 16 28 29 22 29 -5 0
-14 -4 -20 -8 -20 -18 -101 -44 -150 -48 -61 -4 -79 -11 -163 -64 -35 -22 -69
-39 -75 -36 -6 2 -2 7 9 12 11 4 36 21 56 38 88 75 120 97 129 91 6 -4 32 4
58 17 26 12 58 23 71 23 13 0 25 6 27 13 1 7 0 8 -3 2 -8 -17 -23 -11 -23 11
0 11 4 18 9 14 11 -6 61 15 61 26 0 5 -18 12 -40 15 -31 5 -40 11 -40 26 0 12
6 19 18 17 32 -3 33 1 8 34 -27 35 -32 57 -17 72 11 12 25 115 16 115 -21 0
-74 -34 -78 -51 -3 -11 -14 -19 -27 -19 -20 0 -22 4 -17 39 2 22 1 43 -5 49
-5 5 -4 19 4 37 11 23 10 29 -5 40 -12 8 -14 15 -8 20 18 10 12 25 -9 25 -11
0 -20 4 -20 9 0 5 -27 12 -60 16 -65 8 -90 25 -70 50 6 8 9 19 5 25 -4 6 -23
-3 -49 -25 -24 -19 -48 -35 -55 -35 -7 0 -23 12 -36 28 -21 24 -26 25 -44 14
-18 -10 -21 -10 -21 3 0 8 5 15 10 15 6 0 10 9 10 21 0 11 14 34 30 51 35 34
35 36 14 59 -19 21 -10 46 11 29 9 -8 15 -8 20 0 8 13 45 13 45 0 0 -5 7 -10
15 -10 19 0 19 14 -1 31 -8 7 -22 26 -31 43 -9 17 -24 39 -34 49 -11 10 -19
29 -19 42 0 14 -9 34 -20 45 l-20 20 0 -24 c0 -14 5 -28 10 -31 6 -3 10 -15
10 -26 0 -16 -5 -19 -20 -14 -30 9 -60 -4 -70 -31 -5 -13 -13 -24 -17 -24 -14
1 -39 24 -52 49 -17 30 -35 14 -36 -32 0 -22 -5 -33 -18 -35 -19 -4 -37 30
-19 36 7 2 12 19 12 37 0 19 4 37 10 40 11 7 2 64 -13 83 -9 11 -12 10 -19 -7
-4 -12 -12 -21 -18 -21 -16 0 -12 27 7 45 14 15 15 21 4 49 -7 17 -16 48 -21
69 -4 21 -10 41 -14 44 -3 3 -1 12 6 20 8 10 8 17 0 25 -8 8 -14 4 -22 -16z
m-1 -389 c-10 -10 -19 -23 -19 -29 0 -6 -3 -9 -6 -6 -3 3 2 23 11 44 12 30 18
35 25 24 6 -10 3 -20 -11 -33z m321 1 l-1 -43 -14 27 c-8 15 -12 34 -9 42 12
30 24 16 24 -26z m-455 -45 c17 -16 40 -33 51 -40 30 -18 -1 -42 -47 -36 -32
4 -38 10 -49 43 -11 34 -8 60 7 60 3 0 20 -12 38 -27z m102 -146 c-3 -7 -10 0
-16 15 -6 15 -7 36 -4 45 5 14 9 10 15 -16 5 -18 7 -38 5 -44z m148 -36 c3 -5
-4 -13 -16 -16 -23 -8 -34 -1 -24 14 8 13 32 14 40 2z m-19 -77 c-5 -13 -10
-14 -18 -6 -6 6 -8 18 -4 28 5 13 10 14 18 6 6 -6 8 -18 4 -28z m234 -3 c0 -6
-4 -13 -10 -16 -5 -3 -10 1 -10 9 0 9 5 16 10 16 6 0 10 -4 10 -9z m-25 -41
c3 -11 2 -28 -4 -37 -9 -16 -11 -15 -20 10 -11 29 -8 47 9 47 5 0 11 -9 15
-20z m115 -70 c0 -5 -5 -10 -11 -10 -5 0 -7 5 -4 10 3 6 8 10 11 10 2 0 4 -4
4 -10z m-170 -75 c0 -8 6 -24 12 -35 18 -29 -1 -44 -30 -24 -24 17 -29 43 -10
62 16 16 28 15 28 -3z m235 -4 c-8 -13 -35 -15 -35 -2 0 5 8 11 18 13 21 5 26
2 17 -11z m78 -8 c6 -33 -8 -63 -28 -63 -19 0 -19 15 1 45 9 13 13 29 9 35 -3
5 -2 10 3 10 5 0 12 -12 15 -27z m-363 -62 c0 -20 -25 -35 -41 -25 -5 3 -9 14
-9 24 0 10 -5 22 -10 25 -6 4 -8 11 -5 16 10 15 65 -19 65 -40z m125 39 c3 -5
1 -10 -4 -10 -6 0 -11 5 -11 10 0 6 2 10 4 10 3 0 8 -4 11 -10z m-215 -32 c0
-5 -7 -8 -15 -8 -8 0 -15 2 -15 4 0 2 -3 12 -6 21 -6 15 -4 15 15 4 11 -8 21
-17 21 -21z m80 -116 c0 -15 -72 -72 -90 -72 -31 0 -32 18 -2 34 16 8 34 22
41 30 14 17 51 22 51 8z m330 -28 c0 -18 -69 -49 -81 -37 -5 5 0 19 11 31 24
26 70 30 70 6z m31 -34 c18 -10 27 -40 12 -40 -10 0 -43 32 -43 42 0 11 7 10
31 -2z m169 -9 c0 -11 -39 -21 -45 -11 -2 4 -2 10 2 14 10 9 43 7 43 -3z m-85
-51 c-10 -12 -25 -19 -32 -18 -22 5 -16 22 9 30 39 10 42 9 23 -12z m-889 -97
c37 -28 36 -37 -8 -47 -25 -6 -28 -3 -28 18 0 13 -7 27 -16 30 -16 6 -11 26 7
26 6 0 26 -12 45 -27z m-68 -60 c-12 -15 -38 -17 -38 -4 0 5 3 16 6 25 5 12 9
13 24 3 14 -8 16 -15 8 -24z m1007 18 c3 -5 0 -13 -5 -16 -16 -10 -62 4 -55
15 8 13 52 13 60 1z m-787 -73 c-6 -18 -13 -39 -14 -46 -3 -10 -8 -10 -26 0
-13 6 -36 12 -52 12 -47 1 -42 23 6 31 24 4 52 14 63 21 30 21 34 17 23 -18z
m482 -8 c0 -5 -7 -10 -16 -10 -8 0 -12 5 -9 10 3 6 10 10 16 10 5 0 9 -4 9
-10z m-636 -18 c2 -4 2 -13 -2 -19 -7 -11 -77 -43 -93 -43 -13 0 18 57 33 63
21 8 56 8 62 -1z m-64 -613 c0 -5 -4 -9 -10 -9 -5 0 -10 7 -10 16 0 8 5 12 10
9 6 -3 10 -10 10 -16z"/>
<path d="M6655 8401 c-7 -13 32 -34 46 -26 7 5 6 11 -2 21 -13 16 -35 18 -44
5z"/>
<path d="M8032 8360 c-1 -22 1 -40 4 -40 3 0 21 7 40 16 33 16 34 18 18 35 -9
10 -22 15 -30 12 -8 -3 -14 0 -14 6 0 6 -4 11 -8 11 -5 0 -9 -18 -10 -40z"/>
<path d="M6972 8360 c-15 -24 -69 -27 -98 -5 -19 15 -66 20 -77 9 -3 -4 5 -15
18 -26 44 -34 33 -39 -63 -29 -7 0 -12 9 -10 19 2 9 -3 17 -9 16 -7 -1 -22 -2
-33 -2 -13 -1 -20 -9 -20 -23 0 -17 4 -20 29 -14 22 5 30 2 35 -11 8 -21 -9
-34 -45 -34 -38 0 -52 -22 -44 -70 7 -44 31 -54 56 -23 19 22 72 43 109 43 33
0 68 -19 113 -59 25 -23 32 -20 29 10 -1 4 10 6 23 5 31 -1 35 -35 5 -43 -13
-3 -20 -14 -20 -28 0 -15 -8 -26 -20 -30 -27 -8 -25 -19 5 -39 14 -9 25 -25
25 -36 0 -10 5 -22 11 -25 6 -4 10 -19 9 -33 -5 -70 0 -89 25 -100 14 -7 38
-12 53 -12 19 0 37 -11 63 -41 34 -41 37 -42 58 -27 33 23 71 83 71 111 0 16
10 31 26 42 23 15 25 21 19 53 -12 65 -32 92 -66 92 -28 0 -30 2 -18 16 9 12
24 15 51 11 32 -4 42 0 75 32 21 20 47 41 57 46 16 9 15 12 -14 34 l-32 23 7
-32 c5 -24 3 -35 -12 -45 -21 -17 -53 -19 -53 -5 0 6 -7 10 -15 10 -8 0 -15
-4 -15 -10 0 -16 -29 0 -35 20 -3 10 -1 37 4 61 13 57 -7 94 -45 85 -20 -5
-24 -3 -24 15 0 18 -4 20 -25 15 -21 -5 -25 -3 -25 14 0 16 -5 20 -19 15 -10
-3 -24 1 -31 10 -19 23 -92 20 -108 -5z m-62 -61 c0 -6 -4 -7 -10 -4 -5 3 -10
11 -10 16 0 6 5 7 10 4 6 -3 10 -11 10 -16z m-40 -27 c0 -13 -12 -22 -22 -16
-10 6 -1 24 13 24 5 0 9 -4 9 -8z m280 -46 c0 -16 -7 -27 -20 -31 -11 -3 -20
-14 -20 -24 0 -10 -11 -28 -25 -41 -14 -13 -25 -31 -25 -39 0 -9 -9 -30 -19
-47 -14 -23 -16 -35 -8 -43 8 -8 8 -14 -1 -23 -9 -9 -13 -7 -18 8 -4 10 -16
30 -26 43 -17 22 -17 25 -1 52 9 15 29 33 45 40 15 6 30 21 34 33 12 38 54 96
69 96 9 0 15 -9 15 -24z"/>
<path d="M7718 8363 c7 -3 16 -2 19 1 4 3 -2 6 -13 5 -11 0 -14 -3 -6 -6z"/>
<path d="M7261 8326 c-10 -11 -8 -16 9 -21 24 -8 46 7 36 24 -10 15 -31 14
-45 -3z"/>
<path d="M4549 8311 l-24 -20 23 -1 c12 0 25 7 29 15 9 25 -2 27 -28 6z"/>
<path d="M7760 8288 c0 -31 3 -38 20 -38 25 0 26 21 0 51 l-19 24 -1 -37z"/>
<path d="M2883 8265 c-13 -56 -2 -97 53 -200 20 -38 38 -72 40 -73 1 -2 23 8
48 23 38 22 46 32 46 55 0 16 -4 31 -10 35 -5 3 -7 11 -5 18 7 17 -11 41 -24
33 -6 -4 -11 -29 -11 -56 0 -27 -4 -51 -9 -55 -13 -7 -63 40 -59 57 2 7 -8 24
-20 36 -17 17 -22 31 -18 47 4 15 1 25 -9 29 -19 7 -19 32 0 40 18 7 19 17 2
40 -12 16 -14 13 -24 -29z"/>
<path d="M8280 8295 c-7 -8 -8 -15 -2 -15 5 0 15 7 22 15 7 8 8 15 2 15 -5 0
-15 -7 -22 -15z"/>
<path d="M3510 8291 c0 -5 -9 -11 -20 -14 -19 -5 -19 -7 -4 -44 18 -42 39 -70
67 -85 23 -12 49 9 67 53 12 27 10 32 -11 52 -13 12 -39 28 -59 34 -42 15 -40
15 -40 4z m55 -31 c4 -6 1 -17 -5 -26 -14 -16 -40 -2 -40 22 0 16 36 19 45 4z
m6 -63 c-1 -12 -15 -9 -19 4 -3 6 1 10 8 8 6 -3 11 -8 11 -12z"/>
<path d="M8015 8264 c-24 -57 -21 -64 29 -64 25 0 48 5 51 11 11 17 -3 23 -29
11 -19 -8 -25 -8 -29 3 -7 18 1 25 30 25 31 0 29 24 -2 38 -35 16 -33 17 -50
-24z"/>
<path d="M5450 8282 c0 -5 9 -17 20 -27 22 -20 26 -14 10 16 -11 19 -30 26
-30 11z"/>
<path d="M5540 8271 c0 -5 5 -13 10 -16 6 -3 10 -2 10 4 0 5 -4 13 -10 16 -5
3 -10 2 -10 -4z"/>
<path d="M4114 8243 c-22 -23 -11 -38 25 -35 32 2 86 30 77 40 -13 12 -88 8
-102 -5z"/>
<path d="M4733 8247 c-35 -18 -28 -26 16 -20 32 4 43 1 57 -16 10 -11 23 -21
28 -21 5 0 17 -7 27 -16 24 -22 42 -9 26 18 -23 41 -45 55 -88 61 -24 2 -54 0
-66 -6z"/>
<path d="M4987 8244 c-3 -3 7 -17 24 -31 16 -14 29 -33 29 -43 0 -19 26 -30
73 -30 33 0 34 26 2 44 -11 6 -39 23 -63 39 -45 28 -54 31 -65 21z"/>
<path d="M7581 8224 c-12 -15 -21 -33 -21 -41 0 -10 -8 -12 -33 -8 -32 6 -33
5 -54 -47 -11 -29 -23 -61 -27 -70 -3 -10 -9 -18 -14 -18 -5 0 -33 -46 -62
-102 -30 -57 -60 -109 -67 -116 -20 -21 -16 -30 17 -37 24 -5 30 -12 30 -34 0
-38 -62 -105 -90 -96 -30 10 -24 -8 10 -27 18 -10 30 -25 30 -37 0 -32 18 -34
45 -5 18 20 25 37 23 58 -2 17 2 31 10 33 7 3 12 -4 12 -16 0 -11 5 -23 10
-26 15 -9 12 -25 -5 -25 -10 0 -15 -10 -15 -29 0 -22 -6 -30 -25 -35 -28 -7
-33 -39 -11 -69 12 -15 18 -17 35 -7 12 6 26 8 31 5 6 -3 10 3 10 13 0 16 5
19 22 14 18 -4 20 -2 16 16 -4 13 1 27 12 37 43 39 131 259 115 286 -8 12 -42
12 -50 -1 -9 -14 -35 -12 -35 3 0 7 9 18 20 25 24 14 26 38 5 46 -16 6 -21 36
-6 36 5 0 15 -10 23 -22 20 -29 38 -15 39 30 0 20 0 52 0 71 0 19 8 47 16 63
14 23 15 31 4 51 -12 22 -11 28 9 55 36 48 8 73 -29 26z m-95 -562 c-9 -8 -56
31 -56 46 0 11 8 8 30 -13 16 -16 28 -30 26 -33z"/>
<path d="M6420 8224 c0 -8 5 -12 10 -9 6 4 8 11 5 16 -9 14 -15 11 -15 -7z"/>
<path d="M5335 8220 c-8 -13 5 -13 25 0 13 8 13 10 -2 10 -9 0 -20 -4 -23 -10z"/>
<path d="M3668 8189 c-20 -21 -24 -49 -8 -49 6 0 14 8 17 18 4 9 11 20 17 24
7 5 7 10 1 16 -6 5 -17 2 -27 -9z"/>
<path d="M4460 8200 c0 -5 4 -10 9 -10 6 0 13 5 16 10 3 6 -1 10 -9 10 -9 0
-16 -4 -16 -10z"/>
<path d="M5571 8205 c0 -5 6 -19 14 -29 8 -11 15 -15 15 -10 0 6 -7 19 -15 30
-8 10 -14 15 -14 9z"/>
<path d="M8620 8186 c0 -20 19 -31 32 -18 7 7 3 14 -11 21 -17 10 -21 9 -21
-3z"/>
<path d="M4230 8179 c0 -5 5 -7 10 -4 6 3 10 8 10 11 0 2 -4 4 -10 4 -5 0 -10
-5 -10 -11z"/>
<path d="M3710 8160 c0 -6 7 -10 15 -10 8 0 15 2 15 4 0 2 -7 6 -15 10 -8 3
-15 1 -15 -4z"/>
<path d="M4542 8160 c2 -8 18 -16 34 -17 18 -1 22 0 9 4 -11 3 -26 10 -34 17
-11 9 -13 8 -9 -4z"/>
<path d="M4740 8165 c0 -3 7 -17 16 -30 18 -28 12 -45 -17 -45 -25 0 -25 -30
1 -37 24 -6 25 -12 4 -28 -14 -10 -15 -14 -3 -34 8 -12 30 -31 49 -42 51 -27
73 -49 93 -93 19 -40 17 -56 -5 -39 -16 13 -88 24 -89 15 -10 -50 9 -122 32
-122 5 0 15 -11 21 -25 9 -20 18 -25 49 -25 24 0 39 -5 43 -15 15 -40 -71 -29
-127 16 -21 17 -40 29 -42 28 -1 -2 -10 -21 -19 -42 -11 -28 -13 -44 -6 -58
13 -23 81 -59 112 -59 29 0 98 55 98 78 0 9 7 25 14 34 12 16 15 15 35 -12 12
-17 28 -30 36 -30 17 0 20 21 6 36 -24 24 -162 291 -168 324 -2 8 -6 32 -9 53
-6 35 -17 47 -28 28 -7 -10 -54 -2 -62 11 -10 15 8 27 46 31 29 3 36 9 38 30
2 20 -4 28 -29 41 -30 15 -89 22 -89 11z m100 -181 c0 -8 -4 -12 -10 -9 -5 3
-10 10 -10 16 0 5 5 9 10 9 6 0 10 -7 10 -16z m30 -197 c0 -7 -6 -22 -14 -33
-22 -28 -41 -6 -20 24 17 24 34 29 34 9z m74 -48 c33 -64 33 -79 1 -49 -14 13
-25 29 -25 36 0 6 -6 14 -14 17 -15 6 -11 47 4 47 4 0 19 -23 34 -51z m-50
-15 c8 -21 1 -28 -18 -21 -9 4 -13 13 -10 22 8 20 20 19 28 -1z"/>
<path d="M5462 8153 c2 -10 11 -19 21 -21 16 -3 17 -1 5 17 -16 25 -31 27 -26
4z"/>
<path d="M3315 8129 c13 -21 -17 -70 -46 -76 -32 -6 -38 -18 -14 -27 8 -3 15
-18 15 -34 0 -15 5 -33 10 -38 17 -17 0 -103 -22 -115 -10 -5 -16 -14 -13 -18
2 -5 -2 -14 -10 -21 -8 -7 -13 -16 -10 -20 3 -5 0 -12 -6 -16 -9 -5 -10 1 -5
20 3 14 2 26 -3 26 -18 0 -71 -35 -71 -47 0 -6 -10 -13 -22 -15 -29 -4 -34
-26 -7 -30 36 -5 47 -33 24 -59 -20 -22 -20 -22 3 -15 27 9 29 -7 4 -32 -16
-16 -22 -17 -37 -6 -12 9 -16 20 -12 36 8 27 -13 78 -31 78 -23 0 -25 -31 -4
-68 12 -20 27 -49 33 -64 13 -33 22 -35 49 -8 11 11 32 20 46 20 24 0 26 3 21
29 -5 21 -2 31 10 35 14 6 14 8 -1 24 -22 25 -20 32 9 32 18 0 30 11 51 48 15
26 35 56 44 67 10 11 20 32 24 48 5 20 13 27 30 27 12 0 31 9 40 19 15 16 15
22 4 41 -12 19 -10 24 22 51 34 28 34 30 16 44 -11 8 -30 15 -42 15 -13 0 -29
8 -36 18 -14 19 -74 49 -63 31z m6 -152 c-13 -13 -26 -3 -16 12 3 6 11 8 17 5
6 -4 6 -10 -1 -17z"/>
<path d="M4074 8129 c-8 -14 11 -33 25 -25 16 10 13 36 -3 36 -8 0 -18 -5 -22
-11z"/>
<path d="M5600 8126 c0 -8 4 -17 9 -20 10 -7 23 19 14 28 -11 11 -23 6 -23 -8z"/>
<path d="M8070 8131 c0 -5 7 -14 15 -21 12 -10 15 -10 15 3 0 8 -7 17 -15 21
-8 3 -15 2 -15 -3z"/>
<path d="M2820 8120 c0 -5 5 -10 10 -10 6 0 10 5 10 10 0 6 -4 10 -10 10 -5 0
-10 -4 -10 -10z"/>
<path d="M5181 8113 c0 -12 59 -56 65 -50 7 7 -41 57 -55 57 -6 0 -11 -3 -10
-7z"/>
<path d="M2850 8105 c0 -3 9 -22 20 -42 18 -35 19 -53 0 -53 -5 0 -12 9 -15
20 -6 19 -35 29 -35 12 0 -10 96 -82 110 -82 14 0 13 13 -5 36 -8 10 -15 24
-15 31 0 25 -60 103 -60 78z"/>
<path d="M3660 8094 c0 -4 10 -24 22 -45 22 -40 44 -53 34 -21 -3 9 -8 29 -12
45 -4 17 -13 27 -25 27 -10 0 -19 -3 -19 -6z"/>
<path d="M8133 8088 c2 -7 10 -13 17 -13 7 0 15 6 18 13 2 7 -5 12 -18 12 -13
0 -20 -5 -17 -12z"/>
<path d="M3582 8043 c5 -25 28 -28 28 -4 0 12 -6 21 -16 21 -9 0 -14 -7 -12
-17z"/>
<path d="M4594 8035 c-6 -14 -67 -55 -83 -55 -5 0 -25 -7 -45 -15 -33 -14 -35
-17 -24 -36 11 -18 10 -23 -14 -44 -39 -34 -36 -47 10 -39 20 4 39 11 40 15 2
5 20 9 39 9 27 0 34 -3 29 -15 -7 -20 26 -20 70 1 34 17 46 44 19 44 -22 0
-18 18 7 31 l22 12 -23 18 c-28 23 -21 49 12 49 40 0 39 13 0 27 -48 16 -52
16 -59 -2z"/>
<path d="M3105 8020 c-10 -11 -24 -20 -30 -20 -22 0 -96 -80 -91 -98 2 -9 7
-44 11 -77 4 -33 14 -71 22 -84 l16 -25 18 22 c9 12 21 22 26 22 4 0 22 11 38
24 27 22 29 27 17 46 -15 25 -8 40 10 22 18 -18 28 -15 28 8 0 22 12 25 41 10
28 -15 25 8 -6 50 -26 35 -34 90 -14 90 8 0 8 5 -1 15 -18 21 -64 19 -85 -5z
m63 -57 c5 -18 -29 -16 -53 3 -19 15 -18 15 14 12 19 -2 36 -9 39 -15z m-68
-77 c0 -14 -10 -33 -23 -43 -13 -10 -26 -26 -30 -35 -11 -30 -27 -20 -27 18 0
30 3 34 19 29 14 -4 23 0 31 15 6 11 8 20 5 20 -4 0 -3 5 0 10 11 18 25 10 25
-14z m-40 4 c0 -5 -4 -10 -10 -10 -5 0 -10 5 -10 10 0 6 5 10 10 10 6 0 10 -4
10 -10z"/>
<path d="M7340 8016 c0 -8 5 -18 10 -21 6 -3 10 3 10 14 0 12 -4 21 -10 21 -5
0 -10 -6 -10 -14z"/>
<path d="M5268 8013 c7 -3 16 -2 19 1 4 3 -2 6 -13 5 -11 0 -14 -3 -6 -6z"/>
<path d="M5475 8010 c3 -5 10 -10 16 -10 5 0 9 5 9 10 0 6 -7 10 -16 10 -8 0
-12 -4 -9 -10z"/>
<path d="M3630 8001 c0 -5 5 -13 10 -16 6 -3 10 -2 10 4 0 5 -4 13 -10 16 -5
3 -10 2 -10 -4z"/>
<path d="M8701 7989 c-13 -11 -21 -23 -17 -26 4 -4 16 3 28 15 28 28 20 36
-11 11z"/>
<path d="M3472 7988 c-7 -7 -12 -24 -12 -40 0 -18 -12 -39 -35 -62 -19 -20
-35 -40 -35 -45 0 -6 -12 -16 -27 -23 -16 -7 -28 -21 -28 -30 0 -9 -9 -25 -19
-36 -21 -24 -14 -42 14 -35 11 3 20 0 20 -6 0 -6 -6 -11 -12 -12 -20 -1 -78
-86 -78 -114 0 -14 8 -29 21 -36 17 -9 20 -17 15 -42 -3 -16 -15 -36 -26 -44
-11 -8 -20 -23 -20 -34 0 -22 -34 -59 -54 -59 -12 0 -32 -29 -24 -35 2 -1 18
-8 37 -15 26 -11 36 -11 39 -2 2 7 13 10 26 6 19 -4 23 0 31 37 9 36 15 43 50
55 23 8 43 9 50 4 6 -5 36 -10 67 -11 32 -1 63 -6 69 -10 16 -9 4 -39 -16 -39
-18 0 -20 -16 -3 -26 6 -4 17 1 25 12 12 16 15 17 23 4 18 -28 10 -37 -47 -50
-129 -28 -135 -31 -182 -79 -43 -44 -47 -53 -48 -100 -1 -49 0 -51 27 -51 16
0 36 -7 44 -16 18 -17 22 -84 5 -84 -6 0 -8 8 -4 19 8 28 -17 43 -59 35 -29
-5 -36 -11 -36 -30 0 -12 5 -26 11 -30 6 -3 9 -19 6 -34 -5 -21 0 -33 19 -51
21 -19 25 -31 20 -57 -6 -38 19 -58 36 -29 5 10 16 17 23 17 23 0 18 -17 -6
-23 -26 -7 -20 -31 9 -35 25 -4 29 -17 7 -26 -28 -10 -17 -36 15 -36 37 0 52
-27 26 -46 -10 -7 -15 -18 -11 -24 11 -18 -13 -38 -43 -33 -35 5 -103 4 -114
-3 -5 -3 -6 -10 -2 -15 6 -10 143 -7 160 4 13 8 56 -14 62 -32 3 -10 -2 -12
-22 -7 -31 8 -33 -2 -6 -37 22 -28 26 -53 9 -59 -7 -2 -7 -12 2 -30 14 -31 -1
-79 -33 -111 -11 -11 -18 -32 -18 -56 0 -33 -3 -38 -19 -34 -11 3 -21 -2 -24
-11 -4 -9 -13 -16 -22 -16 -23 0 -18 -17 8 -24 43 -11 57 -7 57 18 0 14 4 27
9 31 6 3 26 36 46 73 35 66 55 120 79 217 7 28 34 102 59 167 26 64 47 124 47
133 0 8 9 33 20 55 11 22 21 48 23 59 2 11 6 24 10 27 11 11 8 34 -3 34 -5 0
-10 -6 -10 -14 0 -18 -54 -46 -90 -46 -14 0 -31 -5 -38 -12 -9 -9 -15 -9 -27
3 -26 26 -8 46 46 53 30 4 52 13 56 22 7 20 -3 29 -19 17 -7 -6 -31 -9 -54 -9
-31 2 -47 9 -68 30 -40 44 -30 66 20 42 35 -17 94 -10 94 11 0 8 -7 28 -16 45
-20 38 -3 64 20 32 13 -16 18 -17 35 -6 31 18 54 15 70 -10 14 -22 14 -22 27
14 16 47 28 161 20 193 -4 14 -13 25 -21 25 -9 0 -20 12 -25 26 -14 36 -13 37
20 31 l30 -6 0 99 c0 101 -11 130 -36 96 -8 -11 -11 -35 -8 -62 5 -43 -9 -63
-20 -26 -15 53 -18 84 -7 78 6 -4 11 -3 11 1 0 13 -55 43 -78 43 -12 0 -24 5
-27 10 -11 18 -26 10 -20 -10 9 -28 -18 -36 -44 -13 -26 22 -26 33 0 79 28 51
19 67 -34 62 l-42 -3 -6 50 c-4 38 -2 55 11 72 17 22 27 113 12 113 -4 0 -13
-5 -20 -12z m180 -430 c-17 -17 -47 9 -30 29 10 12 13 12 27 -1 11 -12 12 -19
3 -28z m58 -128 c0 -13 -5 -18 -15 -14 -8 4 -15 12 -15 20 0 8 7 14 15 14 8 0
15 -9 15 -20z m-56 -79 c3 -4 3 -11 0 -14 -8 -8 -34 3 -34 14 0 11 27 12 34 0z
m96 -111 c0 -12 -28 -20 -45 -14 -21 8 -19 32 3 36 18 5 42 -9 42 -22z m-305
-316 c14 -22 15 -28 4 -35 -8 -5 -19 -7 -26 -4 -7 2 -15 0 -18 -5 -4 -6 -14
-10 -23 -10 -16 1 -16 2 1 14 9 7 17 22 17 33 0 40 21 43 45 7z m91 -131 c-3
-4 -17 4 -31 17 -18 17 -22 26 -13 31 12 8 55 -38 44 -48z m99 17 c3 -5 -6
-21 -22 -34 -36 -32 -56 -16 -22 18 27 27 35 30 44 16z"/>
<path d="M4022 7964 c4 -21 22 -23 26 -1 2 10 -3 17 -13 17 -10 0 -15 -6 -13
-16z"/>
<path d="M5595 7940 c3 -5 8 -10 11 -10 2 0 4 5 4 10 0 6 -5 10 -11 10 -5 0
-7 -4 -4 -10z"/>
<path d="M3760 7888 c1 -18 7 -44 14 -57 l14 -24 7 21 c7 25 -11 92 -26 92 -5
0 -9 -15 -9 -32z"/>
<path d="M4347 7914 c-4 -4 -7 -14 -7 -23 0 -11 3 -12 11 -4 6 6 10 16 7 23
-2 6 -7 8 -11 4z"/>
<path d="M2913 7869 c5 -36 3 -40 -13 -36 -10 2 -24 1 -31 -3 -8 -6 -1 -13 26
-24 20 -9 41 -16 46 -16 5 0 6 21 3 48 -7 62 -11 72 -25 72 -8 0 -10 -13 -6
-41z"/>
<path d="M3500 7870 c0 -5 7 -10 15 -10 8 0 15 5 15 10 0 6 -7 10 -15 10 -8 0
-15 -4 -15 -10z"/>
<path d="M6881 7830 c-31 -27 -23 -70 14 -70 25 0 55 41 55 75 0 21 -40 19
-69 -5z"/>
<path d="M3991 7826 c-8 -9 -11 -19 -7 -23 9 -9 29 13 24 27 -2 8 -8 7 -17 -4z"/>
<path d="M4492 7793 c4 -21 33 -25 33 -3 0 8 -8 16 -18 18 -14 3 -18 -1 -15
-15z"/>
<path d="M2742 7748 c-7 -7 -12 -21 -12 -32 0 -18 1 -19 20 -1 20 18 27 45 12
45 -4 0 -13 -5 -20 -12z"/>
<path d="M5025 7750 c-7 -12 2 -30 16 -30 12 0 12 27 0 35 -5 3 -12 1 -16 -5z"/>
<path d="M2945 7723 c-3 -10 -1 -19 4 -21 6 -2 11 -12 11 -22 0 -10 4 -21 9
-24 4 -3 11 -18 14 -33 8 -37 71 -104 75 -81 3 17 -88 198 -99 198 -4 0 -10
-8 -14 -17z"/>
<path d="M8300 7707 c-17 -29 -30 -37 -88 -52 -37 -10 -77 -18 -89 -17 -13 0
-23 -6 -23 -13 0 -20 -20 -29 -33 -16 -6 6 -21 11 -34 11 -16 0 -23 6 -23 20
0 16 -4 18 -22 11 -37 -13 -32 -35 14 -61 24 -13 45 -27 48 -31 11 -16 48 3
55 28 5 20 11 24 27 19 12 -3 27 -2 32 3 6 4 40 14 76 21 96 18 98 19 98 43 0
12 2 31 4 41 6 33 -21 29 -42 -7z"/>
<path d="M4667 7713 c-10 -9 31 -35 43 -28 19 12 10 35 -13 35 -13 0 -27 -3
-30 -7z"/>
<path d="M8124 7707 c-6 -17 12 -57 26 -57 16 0 12 46 -5 60 -12 10 -16 9 -21
-3z"/>
<path d="M2845 7691 c3 -11 1 -22 -5 -26 -18 -11 -11 -22 17 -28 55 -10 69 14
30 51 -29 28 -51 29 -42 3z"/>
<path d="M7200 7700 c0 -5 5 -10 10 -10 6 0 10 5 10 10 0 6 -4 10 -10 10 -5 0
-10 -4 -10 -10z"/>
<path d="M3897 7694 c-4 -4 -7 -14 -7 -23 0 -11 3 -12 11 -4 6 6 10 16 7 23
-2 6 -7 8 -11 4z"/>
<path d="M8055 7680 c-3 -5 1 -10 9 -10 9 0 16 5 16 10 0 6 -4 10 -9 10 -6 0
-13 -4 -16 -10z"/>
<path d="M2771 7653 c-13 -28 -2 -51 18 -39 13 8 15 66 3 66 -5 0 -14 -12 -21
-27z"/>
<path d="M4470 7656 c0 -9 7 -16 16 -16 17 0 14 22 -4 28 -7 2 -12 -3 -12 -12z"/>
<path d="M4319 7637 c-8 -6 -21 -21 -29 -32 -11 -15 -7 -14 15 5 17 14 32 26
34 28 2 1 2 4 -1 7 -2 3 -11 -1 -19 -8z"/>
<path d="M2927 7634 c-9 -9 4 -35 14 -28 5 3 9 12 9 20 0 14 -12 19 -23 8z"/>
<path d="M4177 7593 c-11 -13 -17 -26 -15 -29 7 -7 40 34 37 44 -2 6 -12 -1
-22 -15z"/>
<path d="M7230 7589 c0 -5 5 -7 10 -4 6 3 10 8 10 11 0 2 -4 4 -10 4 -5 0 -10
-5 -10 -11z"/>
<path d="M2895 7580 c-4 -6 0 -19 9 -29 21 -23 20 -43 -1 -39 -10 2 -22 18
-28 36 -6 21 -15 32 -27 32 -22 0 -23 -13 -3 -34 9 -8 15 -28 13 -43 -2 -23 1
-29 20 -31 13 -2 31 0 40 4 25 10 66 4 75 -12 9 -15 37 -19 37 -5 0 4 -10 23
-23 42 -13 19 -26 42 -30 52 -7 19 -22 22 -32 7 -9 -15 -25 -12 -25 4 0 19
-17 29 -25 16z"/>
<path d="M4461 7556 c-7 -8 -20 -14 -29 -13 -20 1 -72 -31 -72 -44 0 -12 57
-11 65 1 3 5 12 7 20 3 10 -3 15 1 15 12 0 13 8 16 38 13 31 -3 37 0 37 17 0
25 -55 34 -74 11z"/>
<path d="M3152 7535 l-22 -22 19 -47 c17 -37 25 -46 46 -46 30 0 31 4 5 37
-18 23 -28 63 -15 63 3 0 14 -5 24 -12 21 -13 56 -4 46 12 -3 5 -17 10 -30 10
-12 0 -25 7 -29 15 -7 20 -16 18 -44 -10z"/>
<path d="M4971 7534 c0 -11 3 -14 6 -6 3 7 2 16 -1 19 -3 4 -6 -2 -5 -13z"/>
<path d="M3047 7506 c-3 -7 -1 -18 5 -24 8 -8 8 -15 0 -25 -7 -8 -9 -17 -5
-20 3 -4 0 -13 -7 -22 -17 -20 -13 -23 39 -31 l42 -7 -7 39 c-7 40 -41 104
-54 104 -4 0 -10 -6 -13 -14z"/>
<path d="M3960 7505 c0 -8 5 -15 10 -15 6 0 10 7 10 15 0 8 -4 15 -10 15 -5 0
-10 -7 -10 -15z"/>
<path d="M4931 7484 c-15 -19 -33 -28 -65 -31 l-44 -5 20 -20 c19 -19 22 -20
54 -4 19 8 34 20 34 25 0 5 9 11 20 14 12 3 20 14 20 26 0 28 -14 26 -39 -5z"/>
<path d="M8050 7489 c0 -8 12 -22 25 -32 32 -23 32 -15 0 19 -15 16 -25 21
-25 13z"/>
<path d="M3911 7474 c0 -11 3 -14 6 -6 3 7 2 16 -1 19 -3 4 -6 -2 -5 -13z"/>
<path d="M4080 7480 c0 -5 5 -10 10 -10 6 0 10 5 10 10 0 6 -4 10 -10 10 -5 0
-10 -4 -10 -10z"/>
<path d="M7565 7479 c-4 -6 -16 -8 -27 -6 -11 3 -21 0 -25 -8 -3 -8 -20 -20
-39 -27 -36 -13 -41 -33 -14 -51 12 -7 30 1 73 29 31 22 57 44 57 51 0 17 -17
25 -25 12z"/>
<path d="M3910 7431 c0 -12 5 -21 10 -21 6 0 10 6 10 14 0 8 -4 18 -10 21 -5
3 -10 -3 -10 -14z"/>
<path d="M4948 7433 c-21 -3 -28 -10 -28 -28 0 -17 4 -22 18 -18 17 4 61 54
45 52 -4 -1 -20 -4 -35 -6z"/>
<path d="M2855 7420 c-3 -6 1 -13 10 -16 19 -8 30 0 20 15 -8 14 -22 14 -30 1z"/>
<path d="M4406 7404 c-16 -14 -35 -23 -43 -20 -10 4 -13 0 -11 -12 5 -21 37
-19 91 5 40 17 43 23 25 41 -17 17 -29 15 -62 -14z"/>
<path d="M4025 7410 c-3 -5 -1 -10 4 -10 6 0 11 5 11 10 0 6 -2 10 -4 10 -3 0
-8 -4 -11 -10z"/>
<path d="M2691 7384 c0 -11 3 -14 6 -6 3 7 2 16 -1 19 -3 4 -6 -2 -5 -13z"/>
<path d="M3980 7360 c0 -25 -18 -26 -37 -2 -13 15 -13 14 -8 -13 4 -23 0 -36
-20 -57 -14 -15 -25 -31 -25 -35 0 -4 -12 -19 -25 -32 -14 -13 -25 -32 -25
-44 0 -16 12 -7 55 39 30 32 54 63 55 68 0 4 14 25 30 46 34 43 36 50 15 50
-8 0 -15 -9 -15 -20z"/>
<path d="M8033 7335 c-1 -23 3 -35 10 -32 15 5 16 59 1 64 -5 2 -10 -12 -11
-32z"/>
<path d="M4940 7340 c0 -5 5 -10 11 -10 5 0 7 5 4 10 -3 6 -8 10 -11 10 -2 0
-4 -4 -4 -10z"/>
<path d="M7320 7334 c0 -8 5 -12 10 -9 6 3 10 10 10 16 0 5 -4 9 -10 9 -5 0
-10 -7 -10 -16z"/>
<path d="M2550 7314 c0 -14 -9 -37 -19 -50 -17 -22 -19 -40 -18 -141 2 -88 5
-117 16 -121 10 -3 12 5 9 34 -6 49 11 215 23 230 7 9 19 7 46 -7 42 -22 53
-18 53 19 -1 25 -2 25 -14 10 -17 -23 -36 -23 -36 0 0 21 -29 52 -48 52 -7 0
-12 -12 -12 -26z"/>
<path d="M3005 7320 c3 -5 10 -10 16 -10 5 0 9 5 9 10 0 6 -7 10 -16 10 -8 0
-12 -4 -9 -10z"/>
<path d="M3089 7311 c17 -17 29 -21 48 -16 34 8 18 24 -32 32 l-38 6 22 -22z"/>
<path d="M5070 7320 c0 -5 7 -10 15 -10 8 0 15 5 15 10 0 6 -7 10 -15 10 -8 0
-15 -4 -15 -10z"/>
<path d="M2883 7283 c-54 -29 -65 -32 -82 -21 -16 10 -23 10 -32 1 -17 -17 36
-36 84 -30 46 6 48 -4 4 -27 -24 -14 -48 -17 -97 -13 -36 2 -75 7 -86 11 -17
6 -22 3 -27 -15 -4 -14 0 -30 8 -39 10 -11 15 -39 15 -84 0 -59 2 -67 18 -64
10 2 18 14 20 31 3 23 6 26 18 16 8 -6 14 -18 14 -25 0 -8 5 -14 11 -14 6 0
17 -7 25 -15 17 -17 119 -22 109 -5 -3 6 -15 10 -25 10 -25 0 -70 21 -70 32 0
15 30 21 45 8 9 -8 27 -10 46 -6 17 3 39 1 50 -4 16 -9 19 -7 19 15 0 19 -12
33 -55 61 -30 20 -55 41 -55 45 0 18 58 9 71 -11 28 -38 43 -29 40 25 -2 27
-8 53 -13 56 -8 5 -8 20 0 50 6 24 10 44 9 44 -1 1 -30 -14 -64 -32z"/>
<path d="M2290 7300 c19 -13 30 -13 30 0 0 6 -10 10 -22 10 -19 0 -20 -2 -8
-10z"/>
<path d="M2366 7301 c-7 -10 28 -43 37 -35 8 8 -11 44 -23 44 -5 0 -11 -4 -14
-9z"/>
<path d="M6393 7303 c-7 -2 -13 -12 -13 -21 0 -12 3 -13 12 -4 7 7 20 12 30
12 10 0 18 5 18 10 0 10 -26 12 -47 3z"/>
<path d="M2140 7282 c0 -11 7 -36 16 -57 21 -52 38 -33 21 25 -13 45 -37 66
-37 32z"/>
<path d="M3860 7291 c0 -6 5 -13 10 -16 6 -3 10 1 10 9 0 9 -4 16 -10 16 -5 0
-10 -4 -10 -9z"/>
<path d="M5049 7273 c-16 -18 -10 -22 41 -25 34 -2 45 1 45 12 0 21 -71 32
-86 13z"/>
<path d="M3040 7265 c0 -8 -4 -15 -10 -15 -5 0 -17 -16 -26 -36 -15 -30 -15
-37 -3 -45 20 -13 34 -5 31 18 -1 10 7 28 19 39 21 19 22 19 36 -3 19 -28 77
-32 87 -7 11 28 7 56 -6 48 -16 -10 -70 -6 -82 6 -15 15 -46 12 -46 -5z m110
-45 c0 -5 -7 -10 -15 -10 -8 0 -15 5 -15 10 0 6 7 10 15 10 8 0 15 -4 15 -10z"/>
<path d="M2971 7244 c-6 -15 -9 -29 -7 -32 10 -9 36 20 36 39 0 27 -15 23 -29
-7z"/>
<path d="M4750 7251 c5 -11 10 -33 10 -49 0 -24 5 -31 26 -35 24 -4 26 -2 21
23 -9 43 26 69 37 28 3 -13 16 -34 27 -48 l21 -24 19 24 c10 14 19 28 19 32 0
18 -119 68 -163 68 -24 0 -26 -2 -17 -19z"/>
<path d="M7813 7245 c-3 -9 -3 -18 0 -21 9 -9 27 6 27 22 0 19 -19 18 -27 -1z"/>
<path d="M2327 7216 c-4 -9 -13 -16 -21 -16 -19 0 -31 -39 -16 -54 8 -8 15 -7
24 7 8 10 20 15 30 11 9 -3 22 -2 29 4 6 6 23 12 37 14 l24 3 -26 17 c-40 27
-74 32 -81 14z"/>
<path d="M4514 7209 c-13 -15 -14 -20 -4 -15 8 3 23 9 33 12 9 4 17 10 17 15
0 17 -27 9 -46 -12z"/>
<path d="M7425 7210 c3 -5 10 -10 16 -10 5 0 9 5 9 10 0 6 -7 10 -16 10 -8 0
-12 -4 -9 -10z"/>
<path d="M2120 7176 c0 -17 24 -38 33 -29 15 15 6 43 -13 43 -11 0 -20 -6 -20
-14z"/>
<path d="M2590 7186 c0 -2 7 -9 15 -16 13 -11 14 -10 9 4 -5 14 -24 23 -24 12z"/>
<path d="M3166 7165 l-29 -12 25 -6 c14 -4 28 -16 31 -27 5 -18 36 -28 49 -14
11 10 -4 43 -26 57 -17 11 -27 11 -50 2z"/>
<path d="M5900 7170 c0 -5 7 -10 16 -10 8 0 12 5 9 10 -3 6 -10 10 -16 10 -5
0 -9 -4 -9 -10z"/>
<path d="M2187 7153 c-9 -8 -9 -76 -1 -97 5 -13 9 -14 20 -5 17 14 18 36 2 42
-7 2 -10 8 -5 12 4 5 13 3 19 -3 7 -7 18 -12 26 -12 8 0 4 12 -14 35 -27 35
-35 40 -47 28z"/>
<path d="M4075 7141 c-3 -5 -1 -12 5 -16 5 -3 10 1 10 9 0 18 -6 21 -15 7z"/>
<path d="M5958 7143 c7 -3 16 -2 19 1 4 3 -2 6 -13 5 -11 0 -14 -3 -6 -6z"/>
<path d="M4000 7131 c0 -11 26 -22 34 -14 12 12 5 23 -14 23 -11 0 -20 -4 -20
-9z"/>
<path d="M8191 7124 c0 -11 3 -14 6 -6 3 7 2 16 -1 19 -3 4 -6 -2 -5 -13z"/>
<path d="M2990 7087 c0 -21 6 -53 14 -70 8 -18 16 -41 18 -51 3 -18 11 -20 73
-18 78 1 145 11 145 21 0 3 -9 12 -20 19 -12 7 -18 17 -15 22 4 6 -4 9 -17 7
-16 -1 -23 3 -23 15 0 39 -87 97 -143 96 -30 -1 -32 -3 -32 -41z m103 -71 c24
-18 21 -26 -8 -26 -18 0 -25 5 -25 20 0 23 8 25 33 6z"/>
<path d="M7564 7069 c-16 -22 -53 -73 -81 -112 -56 -75 -60 -86 -42 -104 8 -8
8 -13 0 -17 -6 -4 -11 0 -11 8 0 9 -6 16 -13 16 -10 0 -14 -14 -13 -46 1 -39
-3 -49 -26 -68 -16 -12 -28 -27 -28 -33 0 -6 -7 -13 -15 -17 -8 -3 -15 -12
-15 -20 0 -9 -9 -32 -21 -53 -14 -26 -19 -47 -16 -70 3 -18 2 -33 -2 -33 -3 0
-7 -17 -8 -39 -1 -21 -9 -65 -17 -97 -22 -89 -51 -283 -43 -291 16 -15 38 27
62 121 13 55 33 116 44 137 11 20 23 64 27 98 4 36 12 62 20 65 8 3 14 18 14
33 0 15 7 36 14 46 14 18 14 17 21 -2 9 -29 21 -26 33 7 10 25 57 203 69 262
3 14 11 31 17 39 8 11 8 15 -1 18 -7 3 -13 11 -13 20 0 10 6 12 21 8 19 -6 20
-4 14 29 -6 29 -4 36 9 36 9 0 16 7 16 15 0 9 11 28 25 43 30 32 31 42 7 42
-10 0 -31 -18 -48 -41z m-104 -343 c0 -8 -4 -18 -10 -21 -5 -3 -10 3 -10 14 0
12 5 21 10 21 6 0 10 -6 10 -14z m-70 -16 c0 -6 -12 -34 -27 -63 -24 -45 -28
-49 -31 -28 -2 15 2 28 12 33 9 5 16 19 16 32 0 12 3 26 7 29 10 10 23 8 23
-3z m46 -76 c-3 -8 -10 -14 -16 -14 -14 0 -13 27 2 53 l13 22 3 -23 c2 -13 1
-30 -2 -38z m-106 -58 c0 -8 -4 -18 -10 -21 -5 -3 -10 3 -10 14 0 12 5 21 10
21 6 0 10 -6 10 -14z"/>
<path d="M4450 7090 c-13 -9 -13 -10 0 -9 8 0 24 4 35 9 l20 9 -20 0 c-11 0
-27 -4 -35 -9z"/>
<path d="M8010 7085 c-9 -11 -10 -19 -3 -26 6 -6 13 -1 21 16 13 28 2 34 -18
10z"/>
<path d="M2260 7060 c0 -5 5 -10 10 -10 6 0 9 -14 8 -31 -3 -27 0 -32 25 -34
35 -5 34 11 -3 53 -31 34 -40 39 -40 22z"/>
<path d="M2565 7040 c4 -19 2 -36 -5 -45 -7 -9 -8 -15 -2 -15 5 0 13 7 16 16
4 10 13 13 26 9 16 -5 20 -2 20 19 0 15 -8 30 -19 36 -34 18 -43 12 -36 -20z"/>
<path d="M4010 7060 c-8 -5 -12 -11 -9 -14 3 -3 14 1 25 9 21 16 8 20 -16 5z"/>
<path d="M4133 7063 c-18 -7 -16 -23 2 -23 8 0 15 7 15 15 0 8 -1 15 -2 14 -2
0 -9 -3 -15 -6z"/>
<path d="M4514 7059 c-7 -12 12 -29 34 -29 18 0 15 27 -4 34 -21 8 -22 8 -30
-5z"/>
<path d="M8072 7048 c2 -17 11 -24 31 -26 34 -4 35 10 2 32 -32 21 -37 20 -33
-6z"/>
<path d="M3701 7037 c8 -7 18 -20 22 -30 8 -20 27 -14 27 8 0 15 -30 35 -52
35 -9 -1 -9 -4 3 -13z"/>
<path d="M4470 7041 c-14 -3 -40 -14 -59 -25 -27 -14 -31 -20 -19 -27 26 -15
85 1 99 27 15 29 12 32 -21 25z"/>
<path d="M7690 7040 c0 -5 5 -10 11 -10 5 0 7 5 4 10 -3 6 -8 10 -11 10 -2 0
-4 -4 -4 -10z"/>
<path d="M2234 7029 c-3 -6 -17 -9 -30 -6 -21 4 -24 1 -18 -17 9 -30 25 -44
32 -27 2 7 13 22 23 32 11 11 19 21 19 24 0 9 -19 5 -26 -6z"/>
<path d="M4088 7023 c7 -3 16 -2 19 1 4 3 -2 6 -13 5 -11 0 -14 -3 -6 -6z"/>
<path d="M4037 7003 c-4 -3 -7 -11 -7 -17 0 -6 5 -5 12 2 6 6 9 14 7 17 -3 3
-9 2 -12 -2z"/>
<path d="M7757 7003 c-4 -3 -7 -13 -7 -22 1 -13 3 -13 11 2 11 19 8 33 -4 20z"/>
<path d="M7634 6972 c-32 -27 -80 -109 -70 -119 10 -11 36 19 36 41 0 16 12
29 40 45 25 14 40 29 40 42 0 25 -9 24 -46 -9z"/>
<path d="M2230 6944 c0 -9 5 -14 12 -12 18 6 21 28 4 28 -9 0 -16 -7 -16 -16z"/>
<path d="M7963 6953 c-18 -6 -16 -23 1 -23 17 0 30 16 19 23 -5 2 -14 2 -20 0z"/>
<path d="M2355 6940 c-8 -13 5 -13 25 0 13 8 13 10 -2 10 -9 0 -20 -4 -23 -10z"/>
<path d="M2305 6920 c-3 -5 1 -10 9 -10 8 0 18 5 21 10 3 6 -1 10 -9 10 -8 0
-18 -4 -21 -10z"/>
<path d="M3205 6920 c-8 -14 13 -40 32 -40 20 0 12 44 -9 48 -9 2 -19 -2 -23
-8z"/>
<path d="M4251 6899 c-21 -23 -54 -44 -83 -55 -10 -3 -18 -12 -18 -19 0 -7
-14 -18 -31 -24 -17 -6 -33 -19 -36 -30 -3 -10 -14 -22 -26 -25 -15 -4 -19 -8
-11 -16 7 -7 34 1 90 30 105 53 133 75 117 91 -18 18 -16 29 6 29 16 0 31 18
31 36 0 11 -21 2 -39 -17z"/>
<path d="M7194 6905 c-3 -8 -3 -19 1 -25 9 -14 35 6 35 26 0 19 -29 18 -36 -1z"/>
<path d="M2190 6897 c0 -8 7 -17 15 -21 8 -3 15 -2 15 3 0 5 -7 14 -15 21 -12
10 -15 10 -15 -3z"/>
<path d="M7887 6903 c-4 -3 -7 -11 -7 -17 0 -6 5 -5 12 2 6 6 9 14 7 17 -3 3
-9 2 -12 -2z"/>
<path d="M2520 6892 c0 -5 3 -12 7 -15 10 -11 12 -147 2 -147 -5 0 -9 -8 -9
-19 0 -10 -10 -25 -22 -34 -13 -8 -20 -18 -17 -21 7 -7 40 19 124 97 29 26 57
47 63 47 7 0 12 4 12 10 0 13 -50 62 -79 77 -26 15 -81 17 -81 5z"/>
<path d="M4101 6877 c-14 -17 -4 -27 26 -27 16 0 23 6 23 20 0 23 -31 27 -49
7z"/>
<path d="M4305 6875 c-24 -11 -27 -15 -13 -20 15 -6 78 19 78 30 0 9 -35 4
-65 -10z"/>
<path d="M3175 6870 c-3 -5 1 -13 10 -16 22 -9 29 1 11 15 -10 8 -16 9 -21 1z"/>
<path d="M4675 6869 c-22 -5 -44 -14 -49 -19 -6 -6 -21 -10 -35 -10 -38 0
-130 -37 -164 -66 -17 -14 -58 -38 -93 -54 -35 -16 -64 -33 -64 -39 0 -6 -25
-25 -55 -42 -30 -17 -55 -33 -55 -36 0 -7 64 8 74 18 6 5 22 9 38 9 20 0 26 4
22 15 -4 10 0 15 14 15 11 0 22 7 26 15 3 8 17 15 31 15 14 0 25 5 25 10 0 6
14 10 30 10 27 0 30 2 24 25 -5 21 -3 25 17 25 13 0 33 7 43 15 11 8 29 15 40
15 10 0 38 11 60 24 23 13 62 27 88 31 26 4 55 13 65 21 16 12 15 13 -12 13
-16 -1 -48 -5 -70 -10z"/>
<path d="M4810 6876 c0 -9 30 -14 35 -6 4 6 -3 10 -14 10 -12 0 -21 -2 -21 -4z"/>
<path d="M7663 6853 c-10 -14 -30 -38 -46 -54 -17 -17 -25 -33 -21 -43 4 -11
-2 -19 -20 -26 -14 -5 -26 -14 -26 -20 0 -5 -9 -19 -20 -30 -26 -26 -27 -70
-2 -70 10 0 23 -5 30 -12 17 -17 45 10 38 38 -5 18 0 24 24 33 17 5 31 16 31
23 2 18 5 49 7 74 1 12 13 33 27 48 28 30 33 66 10 66 -8 0 -22 -12 -32 -27z"/>
<path d="M2337 6854 c-11 -11 3 -24 18 -18 8 4 12 10 9 15 -6 11 -18 12 -27 3z"/>
<path d="M3253 6823 c-1 -28 4 -42 28 -64 39 -37 38 -53 -3 -44 -18 4 -40 13
-48 20 -12 11 -19 11 -40 0 l-25 -13 28 -7 c15 -4 30 -5 33 -2 3 3 14 -3 25
-14 10 -10 28 -19 38 -19 11 0 23 -4 26 -10 3 -5 11 -10 16 -10 17 0 -3 74
-28 104 -19 23 -24 37 -20 63 5 26 2 33 -11 33 -13 0 -18 -10 -19 -37z"/>
<path d="M7125 6850 c-11 -5 -34 -9 -52 -9 -17 -1 -34 -5 -37 -9 -3 -5 -37
-14 -75 -21 -81 -15 -96 -27 -81 -65 14 -39 12 -98 -5 -120 -8 -11 -15 -26
-15 -33 0 -20 38 -15 49 6 6 10 23 21 38 24 80 14 133 36 157 63 14 16 26 33
26 38 0 5 7 18 17 28 9 10 13 21 9 25 -4 4 -11 1 -15 -6 -11 -17 -61 -6 -61
13 0 17 52 36 79 29 14 -3 23 0 27 11 4 9 5 18 3 20 -11 10 -47 13 -64 6z
m-47 -105 c12 -25 12 -25 -13 -9 -14 9 -22 20 -19 25 9 15 20 10 32 -16z"/>
<path d="M6364 6839 c-18 -5 -34 -15 -37 -23 -4 -11 5 -14 44 -12 43 1 49 4
47 20 -4 24 -14 27 -54 15z"/>
<path d="M4360 6820 c-13 -8 -13 -10 2 -10 9 0 20 5 23 10 8 13 -5 13 -25 0z"/>
<path d="M3175 6800 c-7 -12 2 -30 16 -30 12 0 12 27 0 35 -5 3 -12 1 -16 -5z"/>
<path d="M7870 6795 c-10 -12 -10 -18 1 -31 8 -10 14 -42 15 -78 1 -118 44
-155 44 -38 0 53 6 62 28 40 9 -9 12 -9 12 2 0 11 -77 120 -85 120 -1 0 -8 -7
-15 -15z"/>
<path d="M4294 6785 c-14 -11 -15 -14 -4 -14 8 0 24 6 34 14 15 11 16 15 5 15
-8 0 -24 -7 -35 -15z"/>
<path d="M2342 6778 c-12 -12 1 -38 19 -38 11 0 39 29 39 41 0 13 -44 11 -58
-3z"/>
<path d="M5075 6769 c-4 -6 -5 -13 -2 -16 7 -7 27 6 27 18 0 12 -17 12 -25 -2z"/>
<path d="M2450 6761 c0 -6 5 -13 10 -16 6 -3 10 1 10 9 0 9 -4 16 -10 16 -5 0
-10 -4 -10 -9z"/>
<path d="M2666 6743 c-29 -30 -75 -71 -118 -104 -32 -23 -37 -43 -9 -34 15 4
19 -1 24 -29 3 -18 3 -53 1 -77 -4 -35 -3 -40 6 -26 13 21 40 23 40 3 0 -19
40 -32 50 -17 3 6 21 13 38 14 18 1 32 3 32 3 0 1 -6 13 -13 27 -9 18 -18 23
-27 17 -9 -5 -19 -1 -29 12 -9 11 -29 21 -44 21 -23 2 -27 6 -23 21 3 11 0 26
-6 33 -12 15 7 41 55 75 22 16 31 18 43 8 20 -17 31 -4 16 20 -10 16 -8 20 9
25 27 9 33 1 33 -42 0 -20 2 -31 4 -25 2 6 19 14 38 18 34 6 48 24 19 24 -9 0
-20 11 -24 24 -9 22 -36 36 -72 36 -9 0 -28 -12 -43 -27z"/>
<path d="M7803 6719 c-18 -16 -33 -33 -33 -38 0 -16 -142 -156 -159 -156 -8 0
-22 -14 -30 -30 -8 -17 -18 -31 -23 -33 -11 -5 -10 -42 1 -42 23 0 41 14 41
31 0 22 29 40 56 34 10 -2 38 -6 61 -8 41 -5 43 -4 37 19 -5 19 -3 23 9 19 16
-7 37 39 37 81 0 13 4 25 10 29 5 3 7 12 3 21 -3 8 2 23 12 33 9 11 15 31 13
44 l-3 26 -32 -30z"/>
<path d="M2370 6709 c0 -12 5 -19 12 -17 18 6 20 25 3 31 -10 5 -15 0 -15 -14z"/>
<path d="M3892 6704 c-12 -8 -22 -19 -22 -25 0 -16 24 -10 55 16 26 21 28 24
10 25 -11 0 -31 -7 -43 -16z"/>
<path d="M4005 6700 c3 -5 8 -10 11 -10 2 0 4 5 4 10 0 6 -5 10 -11 10 -5 0
-7 -4 -4 -10z"/>
<path d="M5176 6681 c-7 -10 17 -21 45 -21 10 0 19 7 19 15 0 17 -55 22 -64 6z"/>
<path d="M2985 6660 c-3 -5 1 -10 9 -10 9 0 16 5 16 10 0 6 -4 10 -9 10 -6 0
-13 -4 -16 -10z"/>
<path d="M2679 6633 c5 -10 21 -29 35 -42 14 -14 26 -32 26 -40 0 -35 26 -64
67 -76 71 -21 76 -2 13 55 -30 27 -59 50 -63 50 -5 0 -7 9 -5 21 2 16 -5 24
-37 35 -22 7 -41 14 -43 14 -1 0 2 -8 7 -17z"/>
<path d="M2810 6640 c0 -5 11 -10 25 -10 14 0 25 5 25 10 0 6 -11 10 -25 10
-14 0 -25 -4 -25 -10z"/>
<path d="M2395 6630 c-3 -5 -2 -10 4 -10 5 0 13 5 16 10 3 6 2 10 -4 10 -5 0
-13 -4 -16 -10z"/>
<path d="M3098 6633 c7 -3 16 -2 19 1 4 3 -2 6 -13 5 -11 0 -14 -3 -6 -6z"/>
<path d="M5010 6630 c0 -5 5 -10 10 -10 6 0 10 5 10 10 0 6 -4 10 -10 10 -5 0
-10 -4 -10 -10z"/>
<path d="M7857 6617 c-3 -8 -8 -44 -12 -81 -6 -53 -12 -69 -28 -78 -12 -6 -28
-18 -36 -25 -10 -10 -25 -13 -50 -8 -20 4 -33 4 -29 0 4 -4 3 -15 -2 -25 -8
-15 -5 -16 28 -10 20 4 51 14 69 23 36 19 83 23 83 7 0 -6 -10 -15 -22 -21
-70 -31 -163 -103 -153 -119 10 -16 25 -12 25 7 0 9 3 13 7 9 4 -4 6 -22 5
-41 -3 -30 41 -145 55 -145 3 0 2 16 -1 35 -6 29 -3 39 18 58 17 16 23 30 19
45 -3 13 3 31 16 48 12 15 21 32 21 39 0 16 35 47 43 38 13 -13 7 -35 -24 -79
-17 -25 -28 -48 -25 -51 8 -8 35 17 109 100 l60 68 -32 44 c-25 35 -31 53 -31
95 0 31 -4 49 -10 45 -5 -3 -10 -39 -10 -80 0 -71 -14 -125 -32 -125 -4 0 -8
35 -8 78 -1 52 -5 83 -15 96 -8 11 -15 30 -15 43 0 25 -15 31 -23 10z"/>
<path d="M2290 6610 c0 -5 7 -10 16 -10 8 0 12 5 9 10 -3 6 -10 10 -16 10 -5
0 -9 -4 -9 -10z"/>
<path d="M7220 6601 c-77 -39 -83 -41 -96 -30 -24 20 -44 3 -44 -38 0 -21 -13
-66 -30 -101 l-30 -63 21 -41 c22 -43 22 -78 -2 -136 -11 -26 -11 -36 -1 -52
6 -11 12 -26 12 -34 0 -20 -39 -46 -67 -46 -47 0 -40 -102 8 -108 34 -5 64
-36 79 -81 11 -34 10 -42 -10 -81 -17 -33 -20 -48 -12 -64 6 -12 13 -30 17
-41 6 -19 7 -19 25 5 17 22 17 26 5 36 -19 14 -19 28 -1 43 11 9 15 6 20 -15
5 -19 10 -24 18 -16 11 11 2 52 -13 52 -5 0 -9 7 -9 15 0 18 17 20 22 3 8 -23
28 4 28 38 0 19 4 42 9 52 6 9 15 98 21 197 6 99 22 243 35 320 13 77 26 151
27 164 3 26 -9 34 -32 22z m-10 -86 c0 -8 -4 -15 -10 -15 -5 0 -10 7 -10 15 0
8 5 15 10 15 6 0 10 -7 10 -15z m-86 -502 c-8 -46 -12 -52 -24 -33 -5 8 -3 24
6 42 20 38 26 35 18 -9z m-1 -117 c6 -16 -2 -28 -14 -20 -12 7 -11 34 0 34 5
0 11 -6 14 -14z"/>
<path d="M4398 6593 c-21 -2 -38 -8 -38 -13 0 -15 28 -19 64 -9 38 10 59 30
29 27 -10 -1 -35 -3 -55 -5z"/>
<path d="M5197 6594 c-12 -12 4 -24 31 -23 21 1 23 2 7 6 -11 3 -23 9 -26 14
-3 5 -8 6 -12 3z"/>
<path d="M5265 6590 c3 -5 8 -10 11 -10 2 0 4 5 4 10 0 6 -5 10 -11 10 -5 0
-7 -4 -4 -10z"/>
<path d="M7500 6585 c0 -8 -4 -15 -10 -15 -5 0 -10 -13 -10 -30 0 -16 -4 -30
-10 -30 -5 0 -10 -7 -10 -15 0 -25 14 -17 32 18 24 44 33 87 19 87 -6 0 -11
-7 -11 -15z"/>
<path d="M2896 6554 c-9 -22 -8 -24 11 -24 9 0 31 -5 50 -12 44 -16 54 -2 18
27 -35 28 -70 32 -79 9z"/>
<path d="M7411 6548 c0 -9 -8 -23 -16 -32 -17 -16 -49 -139 -59 -224 -5 -41
-4 -53 5 -50 7 2 14 23 15 45 1 22 9 56 17 74 23 52 50 163 44 185 -4 15 -5
16 -6 2z"/>
<path d="M4238 6533 c7 -3 16 -2 19 1 4 3 -2 6 -13 5 -11 0 -14 -3 -6 -6z"/>
<path d="M6853 6528 c-57 -19 -34 -68 31 -68 28 0 34 -18 14 -38 -9 -9 -9 -15
3 -27 29 -29 67 9 84 84 11 52 -51 75 -132 49z"/>
<path d="M4417 6506 c-27 -7 -53 -18 -59 -24 -20 -20 1 -26 45 -13 23 6 55 15
70 19 15 4 29 12 30 17 3 15 -32 16 -86 1z"/>
<path d="M3195 6500 c-3 -5 -18 -10 -33 -10 -15 0 -34 -5 -42 -10 -10 -7 15
-10 80 -9 l95 0 -39 19 c-45 23 -52 24 -61 10z"/>
<path d="M2917 6493 c-15 -15 -5 -23 30 -23 22 0 33 4 28 9 -15 13 -50 22 -58
14z"/>
<path d="M3335 6490 c8 -12 72 -40 92 -40 13 0 13 3 3 15 -7 8 -21 15 -31 15
-10 0 -21 5 -24 10 -3 6 -15 10 -26 10 -11 0 -17 -5 -14 -10z"/>
<path d="M2567 6418 c-6 -43 8 -59 17 -17 3 18 2 37 -3 42 -5 5 -11 -5 -14
-25z"/>
<path d="M2681 6426 c-38 -13 -53 -36 -25 -36 10 0 33 5 51 12 27 10 38 10 53
0 26 -16 50 -15 50 1 0 37 -61 48 -129 23z"/>
<path d="M2847 6423 c-15 -14 16 -41 57 -52 53 -13 66 -14 66 -3 0 24 -107 72
-123 55z"/>
<path d="M4510 6422 c-19 -2 -39 -7 -44 -12 -15 -15 23 -24 47 -12 12 6 29 12
37 14 24 7 -3 14 -40 10z"/>
<path d="M3215 6410 c-3 -5 3 -10 14 -10 12 0 21 5 21 10 0 6 -6 10 -14 10 -8
0 -18 -4 -21 -10z"/>
<path d="M3417 6403 c-13 -12 -7 -41 8 -47 18 -6 30 16 21 39 -6 16 -18 19
-29 8z"/>
<path d="M3360 6384 c0 -8 5 -12 10 -9 6 3 10 10 10 16 0 5 -4 9 -10 9 -5 0
-10 -7 -10 -16z"/>
<path d="M6794 6383 c-3 -10 -22 -51 -41 -91 -27 -55 -48 -83 -90 -117 -30
-25 -58 -45 -62 -45 -3 0 -23 -16 -44 -36 -34 -34 -40 -36 -64 -25 -40 18 -39
5 2 -33 37 -35 41 -65 6 -47 -23 13 -93 17 -110 7 -7 -4 -10 -14 -7 -22 3 -8
0 -11 -10 -7 -8 3 -21 0 -29 -7 -8 -7 -21 -10 -28 -7 -8 3 -20 1 -28 -4 -12
-7 -12 -12 -1 -30 17 -27 10 -33 -36 -31 -30 2 -43 -3 -66 -27 -25 -26 -27
-33 -16 -46 10 -12 10 -19 2 -27 -18 -18 -14 -46 8 -53 30 -9 26 -39 -4 -31
-17 4 -29 -1 -49 -23 -14 -16 -31 -31 -37 -33 -10 -3 -10 -8 0 -25 19 -30 6
-57 -25 -49 -20 5 -32 0 -54 -23 -27 -27 -48 -68 -39 -76 1 -2 23 0 48 5 43 8
70 3 40 -8 -8 -3 -30 -22 -49 -44 -19 -21 -42 -38 -52 -38 -10 0 -21 -10 -24
-22 -4 -13 -17 -33 -28 -45 -11 -13 -17 -23 -13 -23 12 0 90 42 121 66 29 22
189 94 210 94 6 0 34 16 62 35 29 19 56 35 62 35 5 0 11 7 15 15 3 8 13 15 23
15 34 1 51 23 49 65 -1 39 0 40 34 41 38 0 38 -1 24 82 -3 19 -1 32 6 32 5 0
10 -6 10 -13 0 -7 10 -24 22 -36 20 -23 22 -23 35 -5 7 10 13 28 13 41 0 36
31 45 73 23 20 -11 38 -16 41 -12 6 10 -34 57 -61 71 -22 11 -22 41 -1 41 5 0
24 11 42 25 18 14 42 25 54 25 16 0 20 6 19 27 -1 19 3 28 16 31 11 2 17 -3
17 -13 0 -10 7 -15 18 -13 12 2 17 13 17 36 0 26 4 32 22 32 29 0 35 12 36 70
1 36 5 50 17 53 10 2 22 24 30 50 14 51 46 91 36 46 -19 -85 3 -107 35 -34 16
37 18 49 8 61 -7 8 -19 13 -28 12 -9 -2 -21 3 -27 10 -6 8 -25 15 -44 16 -18
1 -36 8 -40 16 -21 45 -29 55 -44 58 -9 2 -19 -5 -22 -15z m-349 -404 c11 -17
-1 -21 -15 -4 -8 9 -8 15 -2 15 6 0 14 -5 17 -11z m105 -104 c0 -8 -4 -15 -10
-15 -5 0 -10 7 -10 15 0 8 5 15 10 15 6 0 10 -7 10 -15z m-80 -135 c0 -5 -7
-10 -16 -10 -8 0 -12 5 -9 10 3 6 10 10 16 10 5 0 9 -4 9 -10z m-50 -35 c0 -8
-8 -15 -19 -15 -10 0 -24 -7 -31 -15 -7 -8 -18 -15 -26 -15 -7 0 -18 -9 -24
-20 -6 -11 -17 -20 -24 -20 -8 0 -19 -7 -26 -15 -7 -8 -20 -15 -29 -15 -13 1
-11 5 7 19 12 11 22 26 22 35 0 11 9 16 29 16 16 0 31 3 33 8 4 9 70 52 81 52
4 0 7 -7 7 -15z m0 -105 c0 -5 -4 -10 -10 -10 -5 0 -10 5 -10 10 0 6 5 10 10
10 6 0 10 -4 10 -10z m-235 -50 c-10 -11 -21 -17 -24 -14 -3 3 3 12 13 20 28
20 32 17 11 -6z"/>
<path d="M7536 6371 c-8 -13 24 -112 34 -106 4 2 6 28 5 57 -1 39 -6 54 -17
56 -9 2 -19 -1 -22 -7z"/>
<path d="M3378 6344 c-4 -3 -27 -6 -52 -6 -25 0 -58 -3 -73 -8 l-28 -7 25 -6
c49 -12 170 -13 170 -2 0 22 -30 42 -42 29z"/>
<path d="M2812 6313 c3 -32 35 -44 45 -17 4 11 -1 22 -12 30 -28 21 -37 17
-33 -13z"/>
<path d="M3148 6323 c7 -3 16 -2 19 1 4 3 -2 6 -13 5 -11 0 -14 -3 -6 -6z"/>
<path d="M5292 6298 c5 -32 28 -35 28 -4 0 17 -5 26 -16 26 -10 0 -14 -7 -12
-22z"/>
<path d="M3320 6260 c-11 -7 -7 -10 18 -10 20 0 31 4 27 10 -8 13 -26 13 -45
0z"/>
<path d="M7470 6230 c0 -18 6 -33 15 -37 23 -8 26 0 14 35 -14 40 -29 41 -29
2z"/>
<path d="M2325 6220 c3 -5 8 -10 11 -10 2 0 4 5 4 10 0 6 -5 10 -11 10 -5 0
-7 -4 -4 -10z"/>
<path d="M6425 6180 c-9 -15 4 -30 20 -23 8 3 15 9 15 13 0 12 -29 20 -35 10z"/>
<path d="M6927 6163 c-4 -3 -7 -20 -6 -37 l1 -31 8 35 c9 36 8 45 -3 33z"/>
<path d="M6344 6133 c-17 -17 -17 -18 5 -21 30 -5 46 11 27 27 -11 9 -18 8
-32 -6z"/>
<path d="M4418 6113 c7 -3 16 -2 19 1 4 3 -2 6 -13 5 -11 0 -14 -3 -6 -6z"/>
<path d="M2253 6083 c-15 -5 -17 -23 -4 -23 5 0 11 7 15 15 3 8 4 15 3 14 -1
0 -8 -3 -14 -6z"/>
<path d="M2350 6080 c0 -5 7 -10 15 -10 8 0 15 5 15 10 0 6 -7 10 -15 10 -8 0
-15 -4 -15 -10z"/>
<path d="M3358 6083 c-10 -2 -18 -9 -18 -14 0 -15 53 -6 58 9 4 12 -8 14 -40
5z"/>
<path d="M4325 6070 c3 -5 8 -10 11 -10 2 0 4 5 4 10 0 6 -5 10 -11 10 -5 0
-7 -4 -4 -10z"/>
<path d="M6898 6054 c-5 -4 -8 -16 -8 -28 0 -14 3 -17 11 -9 6 6 9 19 7 28 -1
9 -6 13 -10 9z"/>
<path d="M2442 6017 c-12 -13 -19 -27 -15 -30 11 -12 23 -8 23 7 0 8 9 16 20
18 23 3 28 21 8 26 -8 1 -24 -8 -36 -21z"/>
<path d="M5150 6022 c0 -10 12 -29 26 -43 25 -23 26 -23 15 -2 -16 32 -14 43
12 44 21 1 21 1 -3 9 -40 13 -50 11 -50 -8z"/>
<path d="M6190 6015 c-13 -14 -20 -25 -16 -25 12 0 56 32 56 41 0 16 -16 10
-40 -16z"/>
<path d="M2605 6020 c3 -5 8 -10 11 -10 2 0 4 5 4 10 0 6 -5 10 -11 10 -5 0
-7 -4 -4 -10z"/>
<path d="M4158 6023 c7 -3 16 -2 19 1 4 3 -2 6 -13 5 -11 0 -14 -3 -6 -6z"/>
<path d="M2295 6009 c-10 -15 3 -25 16 -12 7 7 7 13 1 17 -6 3 -14 1 -17 -5z"/>
<path d="M6889 5989 c-1 -8 0 -21 1 -28 1 -12 -1 -13 -13 -2 -10 8 -17 9 -22
1 -3 -5 0 -13 9 -16 8 -3 18 -18 21 -34 8 -38 32 -59 41 -36 3 9 1 22 -5 29
-5 7 -12 30 -15 51 -5 39 -15 60 -17 35z"/>
<path d="M3326 5951 c-17 -18 -17 -21 -3 -27 27 -10 52 0 52 21 0 27 -27 30
-49 6z"/>
<path d="M2965 5910 c3 -5 13 -10 21 -10 8 0 14 5 14 10 0 6 -9 10 -21 10 -11
0 -17 -4 -14 -10z"/>
<path d="M6760 5902 c-60 -19 -73 -26 -78 -40 -4 -13 60 -42 93 -42 13 0 25
-5 27 -10 6 -18 63 -17 63 0 0 9 -9 15 -23 15 -13 0 -30 9 -38 20 -12 16 -12
21 3 37 25 28 4 36 -47 20z"/>
<path d="M2231 5899 c-22 -9 -23 -11 -7 -27 9 -10 16 -24 16 -30 0 -15 17 -16
26 -1 3 6 1 15 -6 19 -7 4 -9 16 -5 29 3 11 5 21 3 20 -2 0 -14 -5 -27 -10z"/>
<path d="M5220 5900 c0 -5 5 -10 11 -10 5 0 7 5 4 10 -3 6 -8 10 -11 10 -2 0
-4 -4 -4 -10z"/>
<path d="M4826 5868 c-9 -36 -8 -37 24 -22 18 10 27 20 23 29 -8 23 -40 18
-47 -7z"/>
<path d="M4725 5850 c3 -5 13 -10 21 -10 8 0 14 5 14 10 0 6 -9 10 -21 10 -11
0 -17 -4 -14 -10z"/>
<path d="M2865 5840 c3 -5 8 -10 11 -10 2 0 4 5 4 10 0 6 -5 10 -11 10 -5 0
-7 -4 -4 -10z"/>
<path d="M4685 5826 c-11 -8 -14 -16 -8 -19 6 -4 18 0 28 7 11 8 14 16 8 19
-6 4 -18 0 -28 -7z"/>
<path d="M5175 5830 c3 -5 11 -10 16 -10 6 0 7 5 4 10 -3 6 -11 10 -16 10 -6
0 -7 -4 -4 -10z"/>
<path d="M2170 5770 c0 -5 7 -10 15 -10 8 0 15 5 15 10 0 6 -7 10 -15 10 -8 0
-15 -4 -15 -10z"/>
<path d="M6890 5771 c0 -6 5 -13 10 -16 6 -3 10 1 10 9 0 9 -4 16 -10 16 -5 0
-10 -4 -10 -9z"/>
<path d="M4980 5762 c0 -5 12 -14 26 -20 14 -7 23 -8 19 -2 -9 15 -45 32 -45
22z"/>
<path d="M6705 5737 c-4 -10 -5 -21 -1 -24 10 -10 18 4 13 24 -4 17 -4 17 -12
0z"/>
<path d="M6107 5734 c-16 -16 -6 -35 16 -32 12 2 22 10 22 18 0 16 -26 25 -38
14z"/>
<path d="M5036 5702 c-15 -14 -3 -31 25 -37 36 -8 47 -1 30 19 -13 16 -47 27
-55 18z"/>
<path d="M6625 5680 c20 -22 40 -26 51 -9 8 14 -14 29 -45 29 -23 0 -24 -1 -6
-20z"/>
<path d="M7102 5668 c-7 -7 -12 -19 -12 -28 0 -8 -9 -23 -20 -33 -23 -20 -26
-37 -6 -37 19 0 52 47 58 83 6 29 -1 34 -20 15z"/>
<path d="M3314 5589 c-18 -20 -18 -21 1 -35 18 -14 21 -13 27 8 14 53 4 63
-28 27z"/>
<path d="M6800 5545 c0 -8 5 -15 10 -15 6 0 10 7 10 15 0 8 -4 15 -10 15 -5 0
-10 -7 -10 -15z"/>
<path d="M7080 5547 c0 -8 7 -20 15 -27 12 -10 15 -10 15 3 0 8 -7 20 -15 27
-12 10 -15 10 -15 -3z"/>
<path d="M6780 5502 c0 -23 35 -57 44 -43 4 5 2 12 -4 16 -5 3 -10 15 -10 26
0 10 -7 19 -15 19 -8 0 -15 -8 -15 -18z"/>
<path d="M2830 5500 c0 -5 5 -10 11 -10 5 0 7 5 4 10 -3 6 -8 10 -11 10 -2 0
-4 -4 -4 -10z"/>
<path d="M2902 5488 c3 -7 13 -15 24 -17 16 -3 17 -1 5 13 -16 19 -34 21 -29
4z"/>
<path d="M7085 5480 c-4 -6 -2 -17 4 -23 15 -15 25 -2 13 19 -7 12 -11 13 -17
4z"/>
<path d="M2955 5460 c3 -5 14 -10 23 -10 15 0 15 2 2 10 -20 13 -33 13 -25 0z"/>
<path d="M6721 5395 c-23 -39 -31 -42 -65 -20 -21 14 -24 13 -41 -5 -11 -12
-26 -18 -39 -15 -12 3 -46 -4 -76 -15 -65 -24 -90 -25 -90 -6 0 17 -39 48 -51
40 -4 -2 -10 -18 -14 -35 -7 -29 -9 -30 -45 -24 -34 6 -41 3 -74 -29 -27 -28
-43 -36 -72 -36 -27 0 -37 -5 -41 -20 -3 -11 -10 -20 -17 -20 -16 0 -68 -49
-62 -59 3 -4 19 -6 35 -3 23 3 31 10 33 31 2 20 9 27 31 29 28 3 37 -12 12
-22 -15 -5 -15 -62 0 -97 3 -10 2 -20 -4 -23 -10 -6 -6 -99 5 -117 3 -5 12 -9
20 -9 8 0 14 -4 14 -10 0 -5 -7 -10 -15 -10 -19 0 -20 -49 -1 -56 16 -6 50
-83 41 -92 -3 -3 9 -11 27 -16 18 -6 33 -18 33 -26 0 -14 57 -60 75 -60 4 0
11 -6 14 -12 4 -7 4 -3 2 9 -4 20 -2 21 16 12 11 -6 28 -9 38 -6 12 3 17 0 14
-8 -3 -7 -1 -16 5 -20 6 -3 11 1 11 9 0 9 9 16 20 16 25 0 26 -18 3 -37 -16
-13 -15 -14 12 -9 21 3 36 -2 53 -17 l22 -20 0 34 c0 19 -5 40 -10 45 -6 6
-13 44 -16 84 -3 40 -12 89 -20 108 -7 19 -14 42 -14 51 0 10 -11 27 -25 39
-27 24 -31 37 -14 47 16 10 46 -22 53 -56 3 -19 11 -29 18 -27 17 6 23 57 9
71 -29 29 6 76 42 56 14 -8 15 -14 6 -30 -8 -16 -7 -25 7 -40 9 -10 23 -19 30
-19 7 0 14 -11 16 -25 4 -31 22 -34 26 -5 2 11 -2 20 -9 20 -8 0 -10 14 -5 48
3 26 2 53 -3 61 -10 16 -4 41 10 41 5 0 9 -8 9 -17 0 -15 2 -15 9 -4 16 25 41
4 41 -33 0 -19 5 -38 10 -41 6 -3 10 -14 10 -24 0 -10 9 -28 20 -41 16 -18 20
-20 20 -7 0 10 4 17 8 17 5 0 14 12 21 26 10 22 9 30 -4 44 -9 9 -20 41 -25
71 -4 30 -11 63 -15 74 -12 38 22 -13 42 -61 10 -24 22 -42 28 -41 17 6 29 79
17 110 -13 34 -7 53 18 60 14 4 20 -2 25 -25 12 -51 29 -26 28 40 -1 65 5 76
50 84 19 4 27 1 27 -9 0 -8 7 -13 18 -11 12 3 16 12 15 31 -1 18 3 27 13 27 8
0 14 7 14 15 0 24 -33 17 -73 -16 -37 -30 -39 -31 -113 -24 -44 4 -81 13 -90
22 -16 17 -18 29 -4 38 17 11 11 35 -9 35 -11 0 -28 -15 -40 -35z m-343 -111
c1 -10 16 -27 33 -37 32 -18 34 -40 5 -45 -11 -3 -21 6 -29 27 -7 20 -18 31
-30 31 -13 0 -17 5 -13 16 3 9 6 20 6 26 0 18 25 2 28 -18z m-100 -82 c21 -21
46 -41 55 -45 15 -6 25 -47 11 -47 -3 0 -25 19 -48 43 -23 24 -49 46 -59 50
-18 7 -24 37 -7 37 6 0 27 -17 48 -38z m-88 -26 c0 -3 -4 -8 -10 -11 -5 -3
-10 -1 -10 4 0 6 5 11 10 11 6 0 10 -2 10 -4z m304 -4 c7 -12 -22 -45 -33 -37
-8 4 -8 12 -1 26 11 20 25 25 34 11z m50 -78 c8 -21 -11 -44 -35 -44 -22 0
-26 29 -7 48 17 17 35 15 42 -4z m-110 -46 c15 -25 2 -31 -38 -17 -28 10 -33
16 -24 26 15 18 48 13 62 -9z"/>
<path d="M6810 5410 c0 -5 5 -10 11 -10 5 0 7 5 4 10 -3 6 -8 10 -11 10 -2 0
-4 -4 -4 -10z"/>
<path d="M2730 5331 c0 -5 7 -14 15 -21 12 -10 15 -10 15 3 0 8 -7 17 -15 21
-8 3 -15 2 -15 -3z"/>
<path d="M4657 5098 c-15 -15 -27 -36 -27 -48 0 -26 -29 -38 -44 -19 -6 8 -38
21 -71 29 -33 7 -69 22 -81 32 -31 28 -40 23 -64 -38 -19 -45 -21 -60 -12 -75
17 -27 15 -43 -11 -71 -18 -20 -22 -33 -19 -71 3 -34 0 -48 -10 -52 -11 -4
-14 -27 -12 -101 1 -75 -2 -96 -14 -103 -10 -5 -13 -16 -9 -31 3 -13 -2 -36
-14 -57 -11 -20 -18 -45 -16 -57 3 -20 4 -20 15 4 7 14 16 32 22 40 5 8 31 51
56 95 26 44 53 87 59 95 7 8 15 27 19 43 3 15 13 27 21 27 8 0 15 4 15 8 0 9
162 256 209 319 32 43 23 66 -12 31z"/>
<path d="M5975 5080 c-3 -5 -2 -10 4 -10 5 0 13 5 16 10 3 6 2 10 -4 10 -5 0
-13 -4 -16 -10z"/>
<path d="M6029 5069 c-8 -17 -8 -24 3 -35 21 -21 53 4 44 34 -9 28 -32 28 -47
1z"/>
<path d="M4095 5050 c3 -5 8 -10 11 -10 2 0 4 5 4 10 0 6 -5 10 -11 10 -5 0
-7 -4 -4 -10z"/>
<path d="M5890 5020 c-13 -11 -42 -25 -64 -31 -93 -25 -107 -34 -85 -56 5 -5
10 -28 11 -50 0 -47 3 -52 40 -76 34 -21 87 -22 94 -2 9 23 54 19 54 -5 0 -25
12 -25 35 0 13 14 25 18 43 13 24 -6 25 -5 18 33 -9 45 -20 62 -63 98 -27 23
-31 31 -26 61 5 30 3 35 -14 35 -11 0 -30 -9 -43 -20z"/>
<path d="M4174 4945 c-9 -14 -15 -28 -12 -30 9 -9 69 27 65 38 -7 23 -36 18
-53 -8z"/>
<path d="M5695 4910 c3 -5 10 -10 16 -10 5 0 9 5 9 10 0 6 -7 10 -16 10 -8 0
-12 -4 -9 -10z"/>
<path d="M4185 4879 c-10 -15 3 -25 16 -12 7 7 7 13 1 17 -6 3 -14 1 -17 -5z"/>
<path d="M5231 4881 c-10 -6 -10 -10 -1 -16 13 -8 24 -1 19 14 -3 6 -10 7 -18
2z"/>
<path d="M6131 4820 c-9 -5 -2 -11 20 -19 38 -13 39 -13 39 -3 0 14 -46 31
-59 22z"/>
<path d="M5705 4790 c3 -5 11 -10 16 -10 6 0 7 5 4 10 -3 6 -11 10 -16 10 -6
0 -7 -4 -4 -10z"/>
<path d="M5914 4759 c-3 -6 -1 -16 5 -22 8 -8 11 -5 11 11 0 24 -5 28 -16 11z"/>
<path d="M6080 4745 c0 -9 11 -20 24 -26 34 -16 42 -77 13 -100 -19 -16 -19
-16 9 -23 15 -4 33 -14 39 -22 11 -16 49 -9 39 7 -8 14 32 11 44 -3 5 -7 13
-28 17 -46 10 -46 28 -49 67 -13 l33 31 -35 28 c-19 15 -44 36 -55 48 -11 11
-45 34 -75 52 -31 17 -66 42 -79 56 -28 30 -41 33 -41 11z"/>
<path d="M5975 4690 c-9 -15 4 -30 25 -30 24 0 36 20 19 31 -19 12 -36 11 -44
-1z"/>
<path d="M5830 4650 c0 -5 5 -10 10 -10 6 0 10 5 10 10 0 6 -4 10 -10 10 -5 0
-10 -4 -10 -10z"/>
<path d="M5991 4584 c0 -11 3 -14 6 -6 3 7 2 16 -1 19 -3 4 -6 -2 -5 -13z"/>
<path d="M6053 4518 c2 -7 10 -13 17 -13 7 0 15 6 18 13 2 7 -5 12 -18 12 -13
0 -20 -5 -17 -12z"/>
<path d="M6166 4481 c-7 -11 14 -20 32 -14 6 3 12 9 12 14 0 12 -37 12 -44 0z"/>
<path d="M6100 4452 c0 -13 23 -32 38 -32 7 0 12 5 10 12 -5 13 -48 31 -48 20z"/>
<path d="M6160 4412 c0 -5 7 -13 16 -16 10 -4 14 -1 12 6 -5 15 -28 23 -28 10z"/>
<path d="M5060 4346 c0 -17 14 -29 23 -20 8 8 -3 34 -14 34 -5 0 -9 -6 -9 -14z"/>
<path d="M5950 4335 c26 -28 90 -69 90 -57 -1 20 -78 82 -101 82 -7 0 -2 -11
11 -25z"/>
<path d="M6250 4341 c0 -9 64 -61 74 -61 14 0 4 21 -21 45 -28 25 -53 33 -53
16z"/>
<path d="M5057 4268 c-15 -17 -25 -33 -22 -36 7 -7 58 46 53 57 -1 5 -15 -5
-31 -21z"/>
<path d="M5864 4255 c21 -16 32 -13 21 4 -3 6 -14 11 -23 11 -15 -1 -15 -2 2
-15z"/>
<path d="M6057 4264 c-4 -4 -4 -10 -1 -15 6 -10 34 0 34 12 0 10 -24 12 -33 3z"/>
<path d="M5960 4196 c0 -2 7 -12 16 -20 17 -18 39 -22 29 -6 -7 11 -45 33 -45
26z"/>
<path d="M5840 4170 c19 -13 30 -13 30 0 0 6 -10 10 -22 10 -19 0 -20 -2 -8
-10z"/>
<path d="M5640 4160 c0 -5 7 -10 16 -10 8 0 12 5 9 10 -3 6 -10 10 -16 10 -5
0 -9 -4 -9 -10z"/>
<path d="M6022 4148 c3 -7 12 -14 21 -16 12 -2 15 1 11 12 -7 19 -38 22 -32 4z"/>
<path d="M5900 4125 c7 -8 20 -15 29 -15 13 1 13 3 -3 15 -26 19 -42 19 -26 0z"/>
<path d="M5121 3564 c-19 -24 -20 -44 -3 -44 8 0 34 62 28 67 -2 2 -13 -8 -25
-23z"/>
<path d="M5574 1565 c-3 -14 -18 -32 -33 -40 l-26 -14 28 -1 c27 0 87 25 87
36 0 3 -5 14 -10 25 -15 27 -38 24 -46 -6z"/>
<path d="M5450 1500 c-22 -7 -21 -8 12 -9 20 -1 40 4 43 9 7 12 -19 12 -55 0z"/>
</g>
</svg>
