<?xml version="1.0" standalone="no"?>
<!DOCTYPE svg PUBLIC "-//W3C//DTD SVG 20010904//EN"
 "http://www.w3.org/TR/2001/REC-SVG-20010904/DTD/svg10.dtd">
<svg version="1.0" xmlns="http://www.w3.org/2000/svg"
 width="1080.000000pt" height="1080.000000pt" viewBox="0 0 1080.000000 1080.000000"
 preserveAspectRatio="xMidYMid meet">

<g transform="translate(0.000000,1080.000000) scale(0.100000,-0.100000)"
fill="#000000" stroke="none">
<path d="M5715 7650 c-3 -5 -21 -10 -39 -10 -28 0 -34 -4 -39 -26 -7 -39 14
-52 83 -49 34 2 63 5 66 8 10 9 -7 47 -29 67 -23 22 -33 25 -42 10z"/>
<path d="M3650 7295 c7 -8 16 -12 21 -9 13 8 1 24 -18 24 -13 0 -13 -3 -3 -15z"/>
<path d="M3682 7280 c-9 -15 -10 -26 -3 -38 10 -16 10 -16 11 1 0 10 5 15 10
12 6 -4 10 5 10 19 0 31 -11 33 -28 6z"/>
<path d="M4415 7273 c-5 -15 -7 -38 -6 -50 1 -11 -3 -24 -8 -28 -8 -4 -8 -12
0 -27 8 -15 8 -19 -1 -13 -7 4 -10 1 -8 -11 2 -11 -1 -18 -7 -17 -5 1 -10 -11
-10 -27 0 -24 3 -27 18 -19 9 5 17 15 17 22 0 8 3 8 9 -2 5 -7 15 -11 22 -7 8
4 4 -1 -8 -10 -32 -23 -29 -36 4 -19 25 13 28 13 34 -2 11 -31 29 20 29 79 -1
45 -6 61 -39 106 l-39 53 -7 -28z"/>
<path d="M6443 7288 c-17 -8 -23 -20 -23 -45 0 -20 4 -32 10 -28 6 3 10 18 10
32 0 16 7 27 20 30 11 3 20 9 20 14 0 11 -9 10 -37 -3z"/>
<path d="M3720 7281 c0 -10 22 -30 31 -28 10 3 78 -71 71 -77 -3 -3 0 -6 6 -6
5 0 13 6 15 13 3 7 6 4 6 -6 1 -10 -4 -28 -10 -39 -8 -15 -8 -22 1 -28 7 -4 9
-16 5 -28 -6 -20 -5 -21 21 -7 25 12 29 12 40 -3 12 -15 13 -16 14 -1 0 9 -6
19 -14 22 -8 3 -17 21 -21 39 -10 43 -80 127 -122 144 -38 16 -43 17 -43 5z"/>
<path d="M3640 7246 c0 -8 7 -16 15 -20 13 -4 14 -2 5 14 -13 23 -20 26 -20 6z"/>
<path d="M4365 7229 c-4 -6 -5 -12 -2 -15 2 -3 7 2 10 11 7 17 1 20 -8 4z"/>
<path d="M4061 7204 c0 -11 3 -14 6 -6 3 7 2 16 -1 19 -3 4 -6 -2 -5 -13z"/>
<path d="M6334 7176 c1 -43 10 -65 21 -54 8 7 -7 98 -15 98 -4 0 -7 -20 -6
-44z"/>
<path d="M6441 7194 c0 -11 3 -14 6 -6 3 7 2 16 -1 19 -3 4 -6 -2 -5 -13z"/>
<path d="M3792 7130 c14 -43 18 -49 18 -24 0 11 -7 29 -15 40 -13 17 -14 16
-3 -16z"/>
<path d="M4047 7136 c-20 -30 -32 -76 -21 -76 5 0 22 12 38 26 26 23 27 26 12
43 -9 10 -13 21 -9 24 3 4 4 7 1 7 -3 0 -13 -11 -21 -24z"/>
<path d="M4100 7145 c0 -16 16 -20 24 -6 3 5 -1 11 -9 15 -9 3 -15 0 -15 -9z"/>
<path d="M3970 7135 c0 -5 4 -16 9 -24 9 -14 -8 -43 -21 -35 -4 2 -9 0 -12 -5
-3 -5 2 -11 12 -13 13 -4 24 6 41 36 12 23 17 36 10 29 -10 -10 -15 -9 -25 5
-8 9 -13 13 -14 7z"/>
<path d="M4747 7101 c-9 -15 -14 -31 -11 -34 3 -3 -4 -10 -15 -17 -12 -6 -19
-15 -16 -21 4 -5 -1 -12 -9 -15 -9 -3 -16 -13 -16 -21 0 -10 -7 -14 -20 -10
-11 3 -22 2 -25 -3 -3 -4 9 -10 26 -12 24 -4 35 1 58 27 24 28 59 121 48 131
-1 2 -11 -9 -20 -25z"/>
<path d="M4147 7113 c-12 -11 -8 -89 7 -129 8 -25 10 -47 5 -61 -5 -13 -5 -23
-1 -23 4 0 0 -5 -8 -10 -12 -8 -12 -10 -1 -10 8 0 2 -9 -13 -21 -14 -11 -26
-26 -26 -32 0 -6 7 -1 16 11 11 15 25 22 50 22 31 0 34 2 29 23 -3 12 -7 56
-9 97 -2 52 -9 85 -23 108 -11 17 -23 29 -26 25z"/>
<path d="M6374 7084 c-7 -3 -10 -14 -7 -24 6 -22 18 -18 33 11 11 19 1 24 -26
13z"/>
<path d="M3203 7064 c-6 -6 -14 -32 -18 -57 -8 -50 6 -87 33 -87 22 -1 55 -26
58 -45 3 -20 0 -19 -46 10 -47 30 -53 30 -71 8 -8 -9 -9 -14 -3 -10 15 9 113
-92 130 -132 7 -16 10 -39 7 -51 -3 -12 0 -32 7 -44 19 -36 9 -60 -25 -64 -16
-2 -34 -11 -40 -19 -9 -13 -16 -13 -33 -4 -18 9 -22 9 -22 -2 0 -8 -9 -17 -20
-20 -11 -3 -20 -2 -20 3 0 13 -36 6 -53 -12 -28 -28 -20 -46 32 -73 47 -23 49
-26 38 -50 -16 -34 -31 -37 -61 -14 -33 26 -34 17 -2 -15 20 -19 25 -35 27
-82 3 -71 7 -84 26 -84 8 0 11 5 7 11 -3 6 5 3 19 -6 15 -9 31 -14 36 -11 5 4
9 -6 9 -22 -1 -16 3 -35 7 -43 5 -7 10 -39 11 -70 1 -46 -1 -56 -12 -52 -8 3
-14 11 -14 19 0 8 -10 12 -29 11 -16 -1 -27 -5 -24 -9 2 -5 -1 -8 -7 -8 -7 0
-9 -7 -6 -16 5 -14 4 -15 -9 -4 -13 11 -14 10 -9 -4 5 -13 0 -16 -25 -16 -17
0 -31 -5 -31 -11 0 -6 -9 -9 -20 -6 -10 3 -27 -1 -37 -9 -10 -7 -13 -14 -8
-14 6 0 3 -5 -5 -10 -10 -7 -11 -13 -5 -17 6 -5 12 -20 13 -35 2 -25 -6 -33
-30 -29 -4 0 -6 -5 -3 -12 2 -6 6 -24 9 -39 4 -16 13 -28 20 -28 8 0 17 -15
20 -35 4 -20 11 -33 16 -30 5 3 23 -1 41 -10 36 -19 49 -13 25 10 -17 17 -22
55 -7 55 5 0 23 14 40 32 35 35 50 31 35 -10 -8 -20 -7 -33 4 -50 17 -26 2
-52 -28 -52 -10 0 -20 -7 -23 -14 -4 -10 -1 -13 9 -9 8 3 20 0 28 -6 7 -6 16
-7 21 -3 4 4 5 -2 2 -13 -13 -46 -10 -90 10 -127 2 -3 -10 -1 -26 5 -17 6 -27
16 -23 21 3 6 -1 5 -9 -1 -11 -9 -15 -27 -13 -60 1 -27 2 -49 3 -51 1 -2 11 4
23 12 29 20 48 20 77 0 18 -13 20 -19 10 -26 -11 -8 -10 -9 3 -4 19 6 68 -39
68 -61 0 -6 5 -15 10 -18 6 -4 9 -1 8 6 -2 9 7 12 29 11 17 -2 34 1 37 7 9 14
36 2 36 -15 0 -8 11 -20 25 -26 14 -6 25 -14 25 -18 0 -4 7 -24 15 -44 8 -20
15 -38 14 -41 0 -4 7 -18 16 -32 15 -22 22 -54 28 -119 3 -33 59 -26 71 10 6
14 13 26 18 26 4 0 3 -12 -2 -26 -13 -32 -13 -35 3 -32 6 2 11 -4 9 -12 -2
-10 0 -11 6 -5 28 31 51 209 32 245 -12 23 -12 23 26 17 22 -4 47 -7 56 -7 17
0 68 -68 68 -90 0 -5 -24 -10 -54 -10 l-54 0 -6 -57 c-7 -77 -8 -83 -17 -78
-4 3 -9 -2 -12 -9 -3 -8 -1 -17 6 -20 9 -3 8 -5 -1 -5 -8 -1 -10 -6 -6 -13 4
-7 9 -24 10 -37 2 -14 11 -32 21 -39 16 -11 19 -10 23 9 10 39 29 34 26 -7 -3
-37 15 -89 27 -77 4 3 7 -2 8 -13 0 -10 2 -57 3 -104 1 -47 8 -95 14 -107 10
-19 9 -20 -8 -16 -18 5 -19 3 -11 -20 5 -14 7 -34 4 -46 -3 -11 0 -35 6 -53 8
-21 8 -34 1 -38 -13 -8 -20 -89 -9 -96 5 -3 7 -10 3 -15 -3 -5 -9 -7 -14 -4
-7 4 -18 -60 -20 -120 -1 -22 -19 -47 -29 -41 -8 5 -6 -53 2 -61 3 -2 -3 -13
-14 -24 -10 -10 -19 -26 -19 -35 0 -46 -69 -144 -101 -144 -10 0 -39 -20 -66
-45 -35 -33 -54 -45 -71 -42 -13 3 -26 -2 -31 -11 -6 -10 -16 -13 -35 -8 -25
6 -27 10 -24 48 2 26 9 43 18 46 13 5 13 3 1 -11 -12 -15 -11 -17 3 -17 21 0
20 20 -4 49 -25 29 -56 22 -45 -12 3 -12 12 -62 20 -112 7 -49 18 -105 25
-123 15 -39 7 -54 -11 -21 -7 13 -18 30 -26 37 -11 11 -13 8 -13 -20 0 -18 -6
-58 -14 -90 l-13 -56 36 5 c20 3 49 12 65 20 20 11 42 13 80 7 64 -9 87 -7
159 18 31 11 73 18 93 16 l36 -3 25 70 c13 39 26 100 28 137 4 82 9 91 45 83
28 -6 28 -6 35 52 8 73 24 147 41 196 8 20 11 37 8 37 -4 0 1 12 11 26 9 15
14 35 11 47 -3 14 3 30 18 47 25 27 45 119 49 225 2 65 5 67 76 51 21 -5 23
-2 18 21 -3 15 0 35 7 46 8 15 8 21 -2 24 -6 3 -10 9 -6 14 3 5 -2 9 -10 9 -9
0 -16 -8 -17 -17 0 -10 -2 -26 -4 -35 -2 -10 2 -18 8 -18 14 0 -13 -20 -27
-20 -13 0 2 122 15 131 7 4 18 5 26 2 7 -3 13 1 13 9 0 17 26 40 66 57 27 10
39 10 75 -2 47 -16 69 -13 69 9 0 8 -19 19 -45 26 -27 7 -47 19 -51 30 -3 10
-12 25 -20 33 -14 13 -13 15 7 15 12 0 31 8 41 17 11 10 18 13 16 8 -1 -6 8
-23 22 -38 14 -16 27 -37 30 -48 7 -27 25 -24 23 4 -1 17 5 23 22 25 22 2 43
-13 44 -33 1 -11 81 -17 81 -7 -1 17 -46 53 -70 57 -3 0 -21 8 -40 17 -51 23
-72 31 -100 35 -28 5 -69 49 -70 76 0 14 5 16 26 11 18 -5 34 0 54 15 35 25
41 26 33 4 -5 -13 -2 -15 17 -10 13 3 32 1 43 -5 11 -5 33 -14 49 -19 25 -7
28 -6 18 6 -7 8 -22 17 -33 21 -12 4 -47 18 -77 32 l-55 25 35 6 c19 4 54 4
78 0 24 -3 42 -2 42 4 0 5 7 7 15 4 8 -4 17 -2 20 3 3 6 16 5 32 -1 33 -12 44
-2 18 17 -19 14 -19 15 3 20 12 4 22 13 22 21 0 8 -4 11 -10 8 -5 -3 -21 2
-35 11 -26 17 -26 17 -24 -7 4 -49 0 -59 -27 -59 -24 0 -24 1 -9 16 18 18 13
62 -8 77 -9 5 -5 13 11 26 12 11 21 25 20 33 -2 7 7 14 20 16 12 2 20 7 17 12
-3 4 2 11 11 14 10 4 13 2 9 -7 -4 -6 1 -3 10 8 18 23 17 69 -2 71 -7 1 -22 2
-33 3 -12 0 -25 12 -30 26 -7 18 -17 25 -36 25 -16 0 -24 5 -21 13 2 6 10 11
17 9 7 -2 20 4 29 12 16 14 23 14 71 -3 49 -17 55 -18 66 -4 6 9 15 14 20 11
9 -6 34 16 34 29 0 5 27 7 59 6 44 -1 61 3 65 13 4 12 10 12 26 4 13 -7 20 -7
20 0 0 5 -7 10 -15 10 -8 0 -15 7 -15 15 0 8 5 15 10 15 6 0 10 8 11 18 0 10
3 12 6 5 7 -19 31 -16 60 7 14 11 34 20 44 20 10 0 21 5 24 10 4 6 13 7 24 1
13 -7 24 -4 45 14 15 13 40 27 56 30 53 12 44 90 -16 145 -24 22 -26 23 -22 5
3 -11 7 -27 9 -35 2 -8 -3 -15 -10 -15 -10 0 -16 13 -18 41 -2 35 1 43 21 52
31 14 66 -9 66 -42 0 -13 7 -26 15 -30 10 -4 15 1 15 14 0 34 53 16 71 -23
l10 -22 -5 23 c-3 14 1 22 10 22 8 0 19 10 23 23 7 18 10 19 15 6 4 -9 8 -33
9 -55 3 -34 6 -39 35 -45 17 -4 38 -11 44 -16 21 -15 95 -34 111 -28 8 4 34
-7 58 -23 60 -40 119 -56 138 -38 12 13 9 16 -23 21 -36 7 -37 8 -30 44 11 60
8 132 -6 141 -16 10 -25 90 -11 90 14 0 14 97 1 105 -16 10 -12 38 5 31 10 -3
15 1 15 14 0 10 -7 25 -15 34 -8 8 -15 20 -15 26 0 7 -9 29 -19 49 -11 20 -30
59 -43 88 -12 29 -30 54 -41 57 -17 4 -17 6 -3 28 9 13 17 41 18 61 2 23 8 37
17 37 8 0 11 6 7 16 -3 9 -6 18 -6 20 0 3 -4 2 -10 -1 -5 -3 -10 1 -10 9 0 9
-4 16 -10 16 -5 0 -10 6 -10 13 0 6 -13 25 -30 40 -16 16 -30 24 -30 18 0 -5
4 -12 9 -16 6 -3 8 -15 6 -26 -5 -27 22 -133 35 -137 6 -2 10 -8 10 -14 0 -14
-26 -38 -34 -31 -3 4 -6 1 -6 -5 0 -7 3 -12 8 -12 4 0 7 -26 8 -58 1 -111 14
-194 30 -188 8 3 14 1 14 -4 0 -6 -4 -10 -9 -10 -4 0 -7 -15 -5 -32 7 -78 13
-126 18 -168 4 -31 3 -39 -3 -25 -8 17 -10 14 -16 -22 -8 -45 -14 -50 -46 -33
-16 9 -19 7 -19 -14 0 -19 -5 -24 -25 -22 -21 1 -25 6 -25 33 0 21 -7 37 -21
46 -13 10 -16 17 -10 22 8 4 8 12 1 25 -5 10 -10 27 -10 38 0 11 -6 25 -14 31
-21 18 -24 56 -7 78 9 11 41 33 70 49 68 37 72 57 23 107 -20 21 -36 39 -34
40 2 1 -1 15 -7 31 -10 24 -14 26 -27 15 -8 -7 -13 -21 -11 -31 3 -11 0 -18
-9 -18 -20 0 -17 16 12 65 31 54 26 66 -23 54 -53 -12 -60 -11 -37 5 19 15 19
15 -3 38 l-23 22 0 -39 c-1 -35 -6 -43 -37 -63 -30 -20 -34 -20 -28 -5 13 35
18 123 6 123 -6 0 -11 6 -11 14 0 17 -122 50 -155 42 -14 -4 -35 -16 -46 -27
-26 -26 -12 -39 41 -38 l35 0 -30 24 c-16 14 -26 25 -21 25 6 0 22 -12 37 -26
24 -23 31 -25 63 -16 31 9 36 8 36 -6 -1 -21 -60 -52 -99 -52 -16 0 -39 8 -52
19 -33 25 -50 30 -78 19 -16 -6 -27 -5 -31 2 -4 7 -19 -24 -33 -67 -20 -62
-25 -72 -26 -45 -1 37 -13 40 -59 12 -18 -11 -39 -20 -46 -20 -7 0 -19 -13
-26 -29 -21 -52 -61 -51 -79 1 -9 24 -8 35 3 47 7 9 17 27 21 41 4 14 25 60
46 103 30 62 36 81 26 90 -17 17 -44 14 -64 -6 -17 -17 -17 -19 0 -28 24 -14
11 -32 -13 -19 -36 19 -60 12 -61 -17 -1 -54 -10 -87 -27 -100 -15 -11 -21 -8
-43 17 -26 30 -64 40 -71 18 -6 -16 -28 -1 -28 19 0 9 8 25 17 35 16 18 16 21
0 47 -9 16 -17 31 -17 34 0 6 61 20 77 18 7 -1 10 4 7 12 -3 8 2 20 11 27 8 7
15 17 15 22 0 6 11 19 25 30 14 11 22 24 19 30 -5 7 -2 8 5 3 27 -16 110 89
121 154 3 20 11 35 16 34 5 -1 9 11 9 25 -2 43 -62 58 -139 35 -15 -4 -18 -2
-12 12 5 15 4 16 -9 5 -8 -7 -24 -10 -36 -7 -12 3 -18 3 -15 0 3 -4 -4 -13
-16 -21 -16 -12 -23 -13 -26 -4 -8 26 -22 -2 -16 -34 6 -31 4 -34 -17 -34 -13
0 -37 7 -54 16 -41 21 -138 11 -133 -14 2 -12 12 -16 33 -14 28 2 29 2 9 -10
-12 -7 -19 -19 -16 -27 3 -10 0 -12 -12 -8 -10 4 -16 1 -16 -9 0 -9 -9 -27
-20 -41 -11 -14 -20 -34 -20 -44 0 -11 -3 -19 -8 -19 -4 0 -13 -15 -20 -32 -7
-18 -20 -46 -29 -63 -17 -33 -34 -85 -28 -85 3 0 21 9 42 20 l38 21 -25 -21
c-64 -53 -100 -95 -100 -117 0 -18 -5 -23 -25 -23 -27 0 -45 30 -45 75 0 39
-35 42 -77 5 -43 -38 -56 -29 -47 29 7 45 28 61 78 61 23 0 23 0 8 45 -17 53
-12 64 20 43 22 -15 23 -14 35 21 12 33 11 37 -10 53 -12 9 -23 15 -26 13 -2
-2 -19 2 -38 10 -38 16 -55 19 -36 7 8 -5 8 -12 -3 -26 -17 -24 -21 -20 -26
19 -2 24 1 30 17 31 67 4 86 60 37 107 l-27 26 -28 -34 c-27 -33 -27 -38 -29
-172 0 -76 2 -150 7 -165 4 -17 2 -38 -6 -56 l-13 -30 -37 25 c-29 19 -38 32
-41 61 -3 24 0 40 8 45 7 4 11 14 8 22 -8 21 -18 19 -29 -7 -6 -13 -14 -23
-20 -24 -28 -2 -45 -18 -45 -43 0 -14 -9 -37 -20 -51 -11 -14 -20 -33 -20 -42
0 -10 -4 -18 -10 -18 -5 0 -10 -7 -10 -15 0 -14 10 -15 60 -9 39 4 60 3 60 -4
0 -5 -21 -12 -47 -15 -27 -2 -57 -7 -68 -11 -18 -6 -20 -2 -23 35 -1 22 2 47
8 55 21 24 16 144 -7 193 -18 40 -21 42 -31 25 -6 -10 -12 -15 -12 -10 0 5 -8
2 -17 -5 -16 -13 -17 -12 -5 2 17 22 23 57 11 64 -20 13 -7 25 32 31 40 7 40
7 35 43 -3 20 -8 62 -12 93 -3 32 -12 63 -20 69 -8 6 -11 15 -8 20 3 5 0 9 -6
9 -7 0 -9 -7 -6 -16 3 -9 9 -34 13 -56 4 -30 3 -39 -5 -34 -8 5 -12 0 -12 -12
0 -29 -35 -34 -59 -8 -24 25 -26 48 -9 76 10 16 9 23 -12 45 -13 14 -32 25
-42 25 -11 0 -28 5 -39 11 -17 9 -21 7 -26 -10 -3 -11 -13 -23 -23 -26 -27 -9
-32 -56 -8 -73 15 -11 19 -22 14 -42 -3 -16 1 -35 9 -46 19 -25 20 -51 1 -35
-11 9 -12 6 -8 -14 4 -22 9 -25 48 -25 23 0 46 5 49 10 8 12 25 13 25 1 0 -4
-11 -20 -25 -35 -21 -23 -24 -33 -19 -67 9 -55 -8 -49 -34 12 -19 47 -42 59
-42 23 0 -17 -31 -19 -48 -2 -18 18 -15 68 3 68 12 0 9 12 -14 55 -29 54 -36
112 -13 108 11 -3 16 8 27 65 5 23 11 32 21 28 18 -7 3 24 -22 45 -20 17 -116
19 -131 3z m17 -44 c0 -5 -5 -10 -11 -10 -5 0 -7 5 -4 10 3 6 8 10 11 10 2 0
4 -4 4 -10z m65 -40 c21 -22 37 -40 34 -40 -3 0 -23 18 -44 40 -21 22 -37 40
-34 40 3 0 23 -18 44 -40z m140 -10 c3 -6 -1 -7 -9 -4 -18 7 -21 14 -7 14 6 0
13 -4 16 -10z m1120 -186 c-50 -42 -89 -69 -81 -55 8 13 97 81 106 80 3 0 -8
-11 -25 -25z m-1075 -4 c0 -4 -9 -6 -21 -3 -15 4 -17 8 -8 14 14 8 29 3 29
-11z m1120 -39 c0 -10 -24 -21 -46 -21 -12 0 -13 3 -2 15 14 16 48 20 48 6z
m-150 -36 c0 -2 -10 -10 -22 -16 -21 -11 -22 -11 -9 4 13 16 31 23 31 12z
m-140 -39 c0 -2 -8 -10 -17 -17 -16 -13 -17 -12 -4 4 13 16 21 21 21 13z m51
-69 c-1 -12 -15 -9 -19 4 -3 6 1 10 8 8 6 -3 11 -8 11 -12z m-946 -85 c-3 -13
-1 -30 6 -38 17 -21 1 -92 -24 -106 -12 -6 -36 -27 -54 -46 -25 -26 -31 -40
-27 -58 5 -19 2 -24 -14 -24 -18 0 -19 4 -10 53 13 71 29 101 56 105 28 4 38
40 22 87 -10 31 -10 39 6 56 23 25 48 7 39 -29z m944 -37 c1 -11 12 -43 25
-72 21 -44 22 -54 11 -70 -12 -16 -11 -21 7 -40 25 -27 22 -32 -22 -37 -19 -2
-38 -10 -44 -18 -6 -8 -18 -17 -26 -20 -12 -5 -12 -7 3 -13 12 -5 24 0 37 15
20 24 41 21 23 -2 -6 -7 -10 -30 -9 -50 1 -21 -2 -38 -7 -38 -4 0 -6 -4 -2 -9
3 -6 -4 -9 -15 -8 -11 1 -20 5 -20 10 0 4 -5 5 -11 2 -6 -4 -19 2 -30 13 -10
12 -26 25 -35 30 -9 5 -14 15 -10 21 4 6 12 9 17 6 5 -3 6 0 3 8 -3 8 -13 14
-22 13 -13 -1 -17 7 -17 29 0 22 -11 42 -37 69 -21 22 -38 42 -38 47 0 10 129
123 170 148 32 19 35 19 42 3 3 -9 7 -26 7 -37z m-380 -170 c0 -5 -13 11 -29
37 -17 27 -30 56 -30 65 1 18 59 -83 59 -102z m-121 86 c3 -8 -1 -12 -9 -9 -7
2 -15 10 -17 17 -3 8 1 12 9 9 7 -2 15 -10 17 -17z m272 -11 c0 -5 -4 -10 -10
-10 -5 0 -10 5 -10 10 0 6 5 10 10 10 6 0 10 -4 10 -10z m920 -43 c-61 -55
-235 -191 -242 -189 -5 1 -14 -2 -21 -8 -33 -28 -94 -73 -123 -91 -36 -22 -80
-18 -70 6 2 7 10 31 17 54 7 23 16 41 21 41 5 0 5 -8 0 -17 -5 -10 -12 -32
-15 -50 -7 -38 -1 -37 81 11 32 19 50 36 47 44 -3 7 2 20 10 28 8 9 15 23 15
33 0 23 9 31 26 24 10 -4 11 -10 3 -25 -6 -10 -8 -24 -5 -31 2 -7 5 -4 5 6 1
19 21 24 21 5 0 -7 10 2 22 21 12 19 24 29 26 23 4 -13 49 17 137 87 47 39 76
56 45 28z m-1550 -11 c0 -2 -26 -16 -57 -31 -32 -16 -61 -30 -65 -32 -5 -2 -8
-2 -8 0 0 5 63 46 90 59 17 7 40 10 40 4z m1794 -10 c-10 -8 -21 -12 -24 -10
-5 6 21 24 34 24 6 0 1 -6 -10 -14z m-1513 -18 c37 -10 39 -13 39 -51 0 -36
-26 -97 -41 -97 -4 0 -10 20 -13 45 -4 24 -12 47 -17 51 -6 3 -8 17 -5 29 4
14 1 25 -7 28 -24 10 6 7 44 -5z m833 -29 c21 -1 24 -3 11 -6 -11 -3 -32 -16
-47 -30 -30 -28 -48 -24 -48 13 0 17 5 24 20 24 18 0 19 3 10 23 l-11 22 17
-22 c10 -15 28 -23 48 -24z m628 11 c-12 -11 -24 -20 -28 -20 -4 0 1 9 11 20
10 11 23 20 28 20 6 0 1 -9 -11 -20z m-822 -71 c-12 -30 -24 -56 -27 -59 -9
-8 7 53 24 88 24 51 26 31 3 -29z m431 38 c-10 -9 -11 -8 -5 6 3 10 9 15 12
12 3 -3 0 -11 -7 -18z m422 3 c-3 -11 0 -20 6 -20 6 0 11 -5 11 -11 0 -8 -5
-8 -15 1 -8 7 -15 9 -15 4 0 -4 -5 -3 -12 4 -9 9 -8 15 8 27 10 8 20 15 21 15
0 0 -1 -9 -4 -20z m-1976 -60 c6 0 16 -14 22 -31 7 -20 16 -29 27 -27 9 2 19
-3 21 -9 3 -9 -5 -12 -25 -9 -37 4 -51 13 -63 39 -5 12 -18 36 -28 52 -29 44
-24 55 7 17 15 -18 32 -32 39 -32z m578 5 c27 -26 33 -65 11 -65 -26 0 -79 27
-67 34 6 4 11 18 11 32 0 31 14 31 45 -1z m-499 -10 c9 -8 13 -19 10 -24 -3
-5 1 -12 10 -15 9 -4 14 -9 10 -13 -8 -9 -67 48 -60 59 7 11 13 10 30 -7z
m611 -18 c4 -6 -2 -8 -18 -4 -13 4 -28 7 -32 7 -5 0 -6 4 -3 9 7 11 44 3 53
-12z m103 -7 c0 -5 -5 -10 -11 -10 -5 0 -7 5 -4 10 3 6 8 10 11 10 2 0 4 -4 4
-10z m910 0 c0 -5 -4 -10 -10 -10 -5 0 -10 5 -10 10 0 6 5 10 10 10 6 0 10 -4
10 -10z m-970 -10 c0 -5 -2 -10 -4 -10 -3 0 -8 5 -11 10 -3 6 -1 10 4 10 6 0
11 -4 11 -10z m357 -42 c-3 -7 -5 -2 -5 12 0 14 2 19 5 13 2 -7 2 -19 0 -25z
m-427 17 c0 -12 -24 -55 -32 -55 -10 0 -10 3 2 34 8 22 30 37 30 21z m138 -18
c6 -5 12 -20 12 -33 0 -12 4 -25 8 -28 4 -2 6 11 4 29 -4 32 -2 34 33 41 53
10 108 -6 120 -33 5 -13 13 -23 17 -23 5 0 8 -4 8 -10 0 -5 -3 -9 -7 -8 -16 3
-43 -15 -43 -28 0 -7 -10 -19 -22 -25 -45 -23 -47 -37 -12 -79 l27 -31 -23
-24 c-13 -14 -26 -25 -29 -25 -12 0 -41 115 -31 118 22 8 9 43 -22 62 -75 44
-130 126 -75 113 12 -3 28 -10 35 -16z m432 3 c0 -11 -4 -20 -10 -20 -5 0 -10
9 -10 20 0 11 5 20 10 20 6 0 10 -9 10 -20z m-880 1 c0 -17 -18 -21 -24 -6 -3
9 0 15 9 15 8 0 15 -4 15 -9z m40 -22 c0 -6 -4 -7 -10 -4 -5 3 -10 11 -10 16
0 6 5 7 10 4 6 -3 10 -11 10 -16z m1535 11 c3 -5 1 -10 -4 -10 -6 0 -11 5 -11
10 0 6 2 10 4 10 3 0 8 -4 11 -10z m185 0 c0 -5 -4 -10 -10 -10 -5 0 -10 5
-10 10 0 6 5 10 10 10 6 0 10 -4 10 -10z m-220 -10 c0 -5 -5 -10 -11 -10 -5 0
-7 5 -4 10 3 6 8 10 11 10 2 0 4 -4 4 -10z m-1636 -6 c19 -7 21 -37 3 -56 -7
-7 -18 -26 -25 -43 -13 -29 -14 -29 -28 -10 -12 16 -14 17 -14 2 0 -9 -3 -18
-7 -18 -5 -1 -23 -3 -42 -5 -19 -2 -40 -9 -48 -16 -8 -6 -27 -13 -43 -15 -24
-2 -29 2 -35 26 -4 18 -12 28 -23 27 -9 0 -18 6 -19 14 -5 22 137 56 166 40
11 -5 24 -10 28 -10 12 0 44 56 36 64 -8 8 30 8 51 0z m1582 -22 c-3 -32 -31
-78 -51 -86 -8 -3 -31 1 -52 9 l-38 14 39 -2 c36 -2 39 0 52 38 21 57 56 77
50 27z m-1447 -8 c18 -23 19 -28 6 -41 -8 -8 -15 -25 -15 -38 0 -29 -8 -34
-37 -26 l-23 6 30 45 c27 41 28 45 13 62 -9 10 -11 18 -5 18 6 0 20 -12 31
-26z m775 -26 c-5 -7 -2 -9 9 -5 24 9 41 -17 27 -43 -9 -16 -18 -20 -33 -16
-12 3 -25 6 -28 6 -13 0 -17 55 -6 62 19 12 39 9 31 -4z m-394 -57 c0 -9 -7
-3 -15 13 -19 36 -19 47 0 22 8 -11 15 -27 15 -35z m830 -17 c0 -2 -11 3 -25
12 -14 9 -25 23 -25 32 0 10 8 7 25 -12 14 -15 25 -29 25 -32z m235 16 c-3 -5
-10 -10 -16 -10 -5 0 -9 5 -9 10 0 6 7 10 16 10 8 0 12 -4 9 -10z m122 -6 c-3
-3 -12 -4 -19 -1 -8 3 -5 6 6 6 11 1 17 -2 13 -5z m-1403 -35 c14 -17 26 -35
26 -40 0 -13 -57 -11 -66 2 -3 6 -23 18 -42 26 l-36 15 24 14 c39 21 66 17 94
-17z m946 21 c0 -5 -7 -10 -15 -10 -8 0 -15 5 -15 10 0 6 7 10 15 10 8 0 15
-4 15 -10z m-1160 -80 c0 -18 -9 -31 -31 -44 -30 -18 -32 -18 -51 2 -24 24
-18 69 10 79 9 4 21 13 26 21 7 12 12 11 27 -9 10 -13 19 -35 19 -49z m414 33
c12 -84 11 -108 -4 -111 -49 -9 -72 70 -34 121 26 35 31 34 38 -10z m-994 -28
c-14 -15 -21 -32 -17 -44 3 -12 -1 -22 -10 -25 -22 -9 -33 2 -31 29 1 13 5 22
8 20 3 -2 19 7 36 20 38 31 43 31 14 0z m1618 -6 c-3 -8 -7 -3 -11 10 -4 17
-3 21 5 13 5 -5 8 -16 6 -23z m-392 -26 c-11 -11 -19 6 -11 24 8 17 8 17 12 0
3 -10 2 -21 -1 -24z m-556 17 c0 -5 -2 -10 -4 -10 -3 0 -8 5 -11 10 -3 6 -1
10 4 10 6 0 11 -4 11 -10z m910 -65 c0 -15 9 -24 32 -30 20 -6 34 -18 36 -29
4 -17 2 -17 -27 3 -17 12 -35 19 -41 16 -5 -3 -10 1 -10 10 0 11 -7 15 -22 13
-25 -3 -34 18 -23 59 l6 26 25 -23 c13 -13 24 -33 24 -45z m-790 3 c0 -12 -14
-10 -35 5 -10 8 -15 19 -11 26 6 9 13 8 27 -5 10 -9 19 -21 19 -26z m-350 -9
c11 -19 9 -20 -26 -17 -26 2 -39 -2 -42 -12 -3 -8 -13 -27 -24 -42 -18 -26
-18 -29 -2 -53 13 -20 14 -28 4 -40 -10 -12 -6 -21 24 -48 28 -27 36 -42 36
-71 0 -20 -5 -36 -11 -36 -7 0 -5 -9 5 -22 34 -48 57 -98 44 -98 -21 1 -79
109 -72 135 7 27 -13 67 -55 114 l-31 35 21 22 c17 18 18 22 5 27 -13 5 -12
11 7 43 50 82 95 106 117 63z m1430 -30 c0 -6 -12 -31 -27 -57 -15 -26 -27
-48 -25 -49 1 -2 -1 -4 -5 -5 -3 -2 -12 11 -19 28 -20 49 6 85 69 93 4 1 7 -4
7 -10z m-980 -79 c0 -5 -2 -10 -4 -10 -3 0 -8 5 -11 10 -3 6 -1 10 4 10 6 0
11 -4 11 -10z m180 -18 c0 -24 -41 -72 -47 -55 -2 7 -11 9 -19 6 -26 -10 -15
15 19 41 38 31 47 32 47 8z m-114 -27 c1 -14 -2 -25 -7 -25 -5 0 -9 4 -9 9 0
5 -3 16 -6 25 -4 10 -1 16 7 16 8 0 15 -11 15 -25z m984 5 c0 -5 -11 -10 -24
-10 -14 0 -28 -4 -31 -10 -11 -18 -23 -11 -18 10 4 15 14 20 39 20 19 0 34 -4
34 -10z m-475 -20 c3 -5 -3 -10 -14 -10 -12 0 -21 5 -21 10 0 6 6 10 14 10 8
0 18 -4 21 -10z m-367 -45 c-3 -3 -9 2 -12 12 -6 14 -5 15 5 6 7 -7 10 -15 7
-18z m-21 -37 c-3 -8 -6 -5 -6 6 -1 11 2 17 5 13 3 -3 4 -12 1 -19z m113 15
c0 -10 -32 -43 -42 -43 -13 0 -9 17 8 34 16 16 34 21 34 9z m85 -13 c-3 -5 -1
-10 5 -10 6 0 3 -9 -7 -19 -17 -19 -35 -68 -48 -138 -4 -22 -17 -39 -36 -50
-34 -20 -36 -29 -9 -45 18 -11 18 -14 3 -30 -13 -14 -26 -16 -77 -11 -33 3
-65 9 -69 13 -11 10 41 59 70 66 12 3 27 3 32 -1 6 -3 16 5 22 19 7 14 19 28
28 31 11 3 23 30 35 73 16 62 39 112 52 112 3 0 2 -4 -1 -10z m169 -5 c-4 -8
-8 -15 -10 -15 -2 0 -4 7 -4 15 0 8 4 15 10 15 5 0 7 -7 4 -15z m-232 -36 c-5
-42 -22 -46 -22 -5 0 26 4 36 13 33 6 -2 11 -15 9 -28z m-388 -20 c-8 -14 -24
-10 -24 6 0 9 6 12 15 9 8 -4 12 -10 9 -15z m69 1 c3 -11 1 -18 -4 -14 -5 3
-9 12 -9 20 0 20 7 17 13 -6z m-636 4 c-3 -3 -12 -4 -19 -1 -8 3 -5 6 6 6 11
1 17 -2 13 -5z m560 -83 c15 -19 17 -101 3 -101 -5 0 -15 10 -21 22 -8 14 -14
18 -17 10 -5 -15 -38 -16 -48 -1 -3 6 -17 8 -32 4 -43 -11 -172 5 -172 21 0
16 16 19 25 5 7 -12 79 -1 84 12 2 6 13 20 25 32 18 17 31 20 81 17 40 -3 63
-9 72 -21z m-477 -16 c0 -5 -5 -3 -10 5 -5 8 -10 20 -10 25 0 6 5 3 10 -5 5
-8 10 -19 10 -25z m802 3 c-7 -7 -12 -8 -12 -2 0 14 12 26 19 19 2 -3 -1 -11
-7 -17z m-622 -12 c0 -2 -7 -7 -16 -10 -8 -3 -12 -2 -9 4 6 10 25 14 25 6z
m516 -59 c-1 -8 -9 -26 -19 -40 -9 -15 -17 -34 -17 -44 0 -15 -2 -15 -14 3 -8
10 -11 21 -7 24 5 3 16 20 25 38 17 32 36 44 32 19z m-56 -92 c0 -17 -2 -18
-25 -9 -13 5 -14 8 -3 15 19 13 28 11 28 -6z m285 -25 c0 -8 -6 -15 -13 -15
-7 0 -17 -7 -22 -15 -8 -12 -10 -9 -10 11 0 14 3 29 7 33 12 11 38 2 38 -14z
m-35 -60 c0 -5 -7 -10 -16 -10 -8 0 -12 5 -9 10 3 6 10 10 16 10 5 0 9 -4 9
-10z m-212 -171 c-2 -6 -8 -10 -13 -10 -5 0 -11 4 -13 10 -2 6 4 11 13 11 9 0
15 -5 13 -11z m-108 -16 c0 -5 -4 -14 -9 -21 -7 -11 -9 -11 -14 1 -3 8 -3 18
0 21 9 8 23 7 23 -1z m245 -4 c4 -6 -1 -16 -11 -24 -23 -16 -28 -13 -19 14 7
23 20 27 30 10z m3 -47 c-10 -2 -15 -9 -11 -18 3 -8 -1 -14 -11 -14 -9 0 -16
-7 -16 -15 0 -8 -5 -15 -10 -15 -6 0 -8 -11 -6 -25 3 -14 0 -25 -5 -25 -14 0
-11 86 4 99 8 6 17 8 20 4 4 -3 9 1 13 10 3 10 12 13 22 9 16 -6 16 -7 0 -10z
m152 -112 c0 -5 -2 -10 -4 -10 -3 0 -8 5 -11 10 -3 6 -1 10 4 10 6 0 11 -4 11
-10z m-200 -42 c0 -5 -9 -8 -20 -8 -23 0 -25 6 -7 24 12 13 26 4 27 -16z"/>
<path d="M4175 5280 c3 -5 8 -10 11 -10 2 0 4 5 4 10 0 6 -5 10 -11 10 -5 0
-7 -4 -4 -10z"/>
<path d="M3994 7054 c-8 -29 -6 -38 10 -40 20 -3 27 33 9 47 -11 10 -15 9 -19
-7z"/>
<path d="M4360 7051 c0 -6 5 -13 10 -16 6 -3 10 1 10 9 0 9 -4 16 -10 16 -5 0
-10 -4 -10 -9z"/>
<path d="M4497 7045 c-22 -11 -32 -12 -46 -3 -36 22 -101 -45 -101 -105 0 -16
3 -18 12 -9 7 7 26 12 44 12 29 0 32 3 38 41 4 27 11 39 19 36 7 -3 26 6 42
19 34 27 32 30 -8 9z"/>
<path d="M3922 7041 c-10 -6 -8 -10 9 -14 24 -7 39 -1 39 14 0 11 -30 12 -48
0z"/>
<path d="M3649 7019 c-10 -6 -4 -9 19 -9 17 0 32 2 32 4 0 9 -39 13 -51 5z"/>
<path d="M6430 7000 c0 -5 5 -10 10 -10 6 0 10 5 10 10 0 6 -4 10 -10 10 -5 0
-10 -4 -10 -10z"/>
<path d="M3694 6981 c3 -5 15 -7 26 -4 28 7 25 13 -6 13 -14 0 -23 -4 -20 -9z"/>
<path d="M6411 6980 c-10 -5 -8 -9 4 -14 23 -8 35 -8 35 3 0 13 -25 20 -39 11z"/>
<path d="M3852 6918 c5 -23 11 -44 13 -46 15 -16 58 58 45 78 -7 11 -11 11
-23 1 -10 -8 -17 -9 -22 -1 -15 24 -22 7 -13 -32z m52 8 c-3 -7 -11 -13 -19
-13 -18 0 -19 9 -3 25 14 14 29 6 22 -12z"/>
<path d="M3635 6930 c3 -5 15 -10 26 -10 11 0 17 5 14 10 -3 6 -15 10 -26 10
-11 0 -17 -4 -14 -10z"/>
<path d="M3701 6931 c-10 -6 -10 -10 -1 -16 13 -8 24 -1 19 14 -3 6 -10 7 -18
2z"/>
<path d="M4817 6888 c4 -24 12 -56 19 -73 l12 -30 8 29 c4 18 1 44 -8 69 -20
57 -38 59 -31 5z"/>
<path d="M3100 6879 c0 -8 -12 -10 -40 -5 -22 3 -40 4 -40 1 0 -7 97 -55 110
-55 19 0 7 64 -12 68 -10 2 -18 -2 -18 -9z"/>
<path d="M3763 6868 c-5 -7 -17 -30 -27 -50 -20 -44 -21 -45 -23 -17 -4 51
-24 36 -30 -23 -2 -24 -11 -53 -19 -65 -8 -12 -10 -24 -5 -28 13 -7 41 -64 41
-82 0 -20 7 -16 39 19 l29 32 33 -34 34 -34 7 45 c12 79 9 147 -7 163 -17 17
-20 30 -5 21 6 -3 10 3 10 13 0 23 -26 37 -34 19 -3 -7 -3 -2 0 11 4 17 1 22
-14 22 -11 0 -24 -6 -29 -12z"/>
<path d="M6212 6863 c-12 -21 -13 -73 -2 -73 7 0 20 81 14 88 -1 2 -7 -5 -12
-15z"/>
<path d="M5169 6788 c-1 -2 -3 -14 -4 -28 -2 -14 -7 -36 -11 -49 -6 -22 -6
-23 8 -11 8 8 15 31 15 52 0 32 -3 46 -8 36z"/>
<path d="M5830 6765 c0 -8 4 -15 10 -15 5 0 7 7 4 15 -4 8 -8 15 -10 15 -2 0
-4 -7 -4 -15z"/>
<path d="M3008 6745 c-110 -34 -120 -40 -116 -78 3 -28 7 -32 28 -29 14 1 27
7 28 12 6 18 22 10 32 -14 11 -31 70 -62 82 -44 10 17 10 58 0 58 -4 0 -13 14
-19 30 -10 27 -9 33 19 60 16 17 28 30 26 29 -2 0 -37 -11 -80 -24z"/>
<path d="M5408 6754 c-7 -6 8 -64 19 -75 5 -5 8 11 8 33 0 38 -12 57 -27 42z"/>
<path d="M3087 6736 c-9 -24 10 -38 58 -43 47 -6 47 -6 43 23 -3 27 -6 29 -50
31 -30 1 -48 -3 -51 -11z"/>
<path d="M3640 6639 c0 -6 9 -13 20 -16 11 -3 20 -10 20 -16 0 -6 3 -7 7 -4 7
8 -25 47 -39 47 -4 0 -8 -5 -8 -11z"/>
<path d="M4767 6619 c-17 -10 -17 -12 -1 -23 14 -10 15 -16 5 -32 -11 -17 -11
-17 -6 6 5 21 4 22 -5 7 -6 -9 -8 -21 -5 -27 3 -5 -15 -52 -40 -104 -26 -53
-44 -99 -41 -105 18 -28 96 -18 96 13 0 7 9 21 20 31 13 12 18 25 14 40 -4 18
-1 25 15 30 12 3 21 15 21 26 0 15 -7 19 -32 20 -33 0 -33 0 -10 16 26 19 30
73 6 97 -8 9 -16 16 -17 16 -1 0 -10 -5 -20 -11z"/>
<path d="M5623 6618 c-6 -7 -13 -25 -17 -40 -5 -23 -3 -28 13 -28 22 0 41 27
41 59 0 23 -22 28 -37 9z"/>
<path d="M4051 6528 c-14 -31 -16 -49 -10 -72 15 -53 25 -48 47 26 17 56 19
73 10 80 -22 13 -27 9 -47 -34z"/>
<path d="M6236 6505 c4 -8 8 -15 10 -15 2 0 4 7 4 15 0 8 -4 15 -10 15 -5 0
-7 -7 -4 -15z"/>
<path d="M6736 6306 c-15 -13 -26 -27 -26 -32 0 -5 -21 -22 -46 -38 -25 -16
-50 -34 -57 -40 -7 -7 -24 -20 -39 -30 -15 -10 -25 -22 -22 -27 3 -5 -4 -9
-16 -9 -17 0 -20 4 -15 20 8 24 -14 58 -25 40 -5 -7 -10 -2 -14 14 -7 28 -26
36 -26 10 0 -8 -4 -12 -10 -9 -6 3 -10 -4 -10 -17 0 -13 -4 -28 -10 -34 -5 -5
-6 -15 -1 -22 5 -9 11 -5 21 13 16 29 36 33 42 8 7 -29 -2 -52 -18 -46 -8 3
-14 0 -14 -6 0 -16 -21 -13 -41 5 -17 16 -19 15 -29 -11 -6 -15 -19 -29 -30
-32 -11 -3 -21 -14 -21 -24 -1 -11 -3 -23 -4 -29 -1 -5 -3 -15 -4 -21 0 -7
-11 -9 -25 -5 -22 5 -24 2 -34 -46 -6 -32 -6 -61 -1 -76 12 -32 11 -42 -5 -42
-11 0 -24 -31 -30 -72 -1 -5 -4 -8 -8 -8 -5 0 -15 0 -24 0 -12 0 -14 4 -7 13
6 6 13 23 16 37 5 22 5 23 -7 8 -22 -29 -35 -21 -61 37 -19 41 -26 75 -29 142
-4 126 -36 175 -51 80 -5 -26 -3 -37 6 -37 9 0 10 -3 3 -10 -7 -7 -8 -29 -3
-58 7 -46 -6 -95 -20 -75 -3 5 -14 12 -23 16 -12 4 -18 17 -18 40 0 44 -9 51
-30 24 -31 -40 -52 -96 -48 -127 4 -25 -1 -35 -30 -58 -45 -35 -88 -79 -131
-131 -32 -40 -32 -43 -15 -56 11 -8 22 -15 27 -15 4 0 30 -11 58 -24 54 -27
67 -20 51 24 -9 25 27 132 44 130 10 -1 10 -9 -4 -95 -5 -33 -8 -62 -5 -65 2
-2 13 1 23 8 29 18 37 15 44 -13 4 -14 11 -23 16 -20 5 3 11 1 15 -5 4 -6 10
-8 15 -5 4 3 10 -1 13 -9 3 -8 15 -12 30 -9 14 3 30 -2 40 -11 8 -9 23 -16 31
-16 29 0 80 -34 127 -85 28 -30 56 -50 70 -51 31 -1 110 -25 126 -36 7 -6 20
-5 33 2 11 6 26 8 33 4 9 -5 9 -4 0 6 -13 15 -6 39 18 61 12 10 15 20 8 30 -5
8 -9 23 -9 34 -1 28 -35 66 -53 59 -18 -7 -15 29 6 77 8 19 18 42 21 53 5 13
13 17 31 14 24 -5 30 10 10 24 -10 7 21 48 37 48 5 0 6 -20 2 -45 -5 -39 -4
-45 11 -45 13 0 16 -6 11 -25 -6 -24 -6 -25 14 -8 12 11 22 36 26 65 7 49 33
86 42 60 3 -10 8 -9 23 4 18 16 19 16 19 -5 0 -14 -12 -29 -36 -43 -26 -15
-34 -26 -31 -39 3 -11 -2 -23 -10 -28 -12 -6 -13 -12 -4 -27 10 -18 11 -18 17
4 7 24 20 29 27 10 4 -10 6 -10 6 0 1 9 6 10 20 2 13 -7 22 -7 26 0 3 5 19 10
36 10 19 0 29 5 29 15 0 14 3 13 25 -2 32 -24 32 -37 -1 -30 -28 5 -95 -10
-104 -23 -9 -14 -71 -41 -80 -35 -20 13 -28 -30 -13 -75 18 -53 30 -63 57 -48
12 7 51 8 105 4 47 -4 95 -8 106 -8 11 -1 22 -5 25 -10 3 -4 19 -3 35 1 17 5
22 10 13 10 -11 1 -15 6 -11 17 12 31 61 10 79 -34 4 -8 104 -18 104 -11 0 17
39 9 67 -14 51 -42 102 -70 89 -49 -9 15 23 43 52 45 16 1 28 6 24 11 -3 5 2
7 11 3 8 -3 30 -1 47 6 25 9 33 9 39 -2 6 -9 11 -10 15 -2 4 6 2 11 -4 11 -7
0 -10 6 -7 14 9 23 -18 39 -42 27 -16 -9 -25 -7 -46 15 -26 25 -28 54 -4 54 7
0 17 -8 24 -17 11 -15 15 -15 29 -4 11 9 16 10 16 2 0 -7 9 -9 24 -5 16 4 34
0 48 -10 28 -20 50 -21 24 -1 -14 11 -17 18 -9 26 13 13 67 -12 76 -34 3 -9
18 -14 41 -12 25 1 36 -3 36 -12 0 -11 5 -11 20 -3 10 6 17 16 14 24 -3 7 6
21 20 30 24 15 26 15 26 0 0 -10 3 -14 7 -11 3 4 12 2 20 -4 10 -9 13 -8 13 0
0 7 8 11 17 9 25 -4 28 29 4 37 -19 6 -31 27 -13 24 25 -4 31 3 26 31 -4 20
-2 30 5 30 15 0 41 25 41 39 0 6 5 11 11 11 5 0 7 5 4 10 -4 6 -11 8 -16 5 -5
-4 -9 -1 -9 4 0 6 9 16 20 23 11 7 20 16 20 21 0 4 -4 5 -10 2 -12 -7 -12 2
-1 30 4 11 5 34 1 52 -5 21 -4 34 4 37 6 2 -11 2 -39 -1 -62 -7 -71 -13 -20
-13 l39 0 -26 -27 c-14 -16 -23 -34 -21 -40 6 -17 -21 -43 -44 -43 -15 0 -16
2 -3 10 11 7 7 10 -17 10 -24 0 -33 -5 -33 -16 0 -11 -6 -15 -19 -11 -28 7
-16 -16 19 -37 26 -15 30 -15 30 -2 0 17 15 21 24 7 4 -5 1 -11 -6 -13 -6 -2
-8 -10 -4 -17 5 -7 14 -10 22 -7 8 3 11 0 7 -10 -4 -10 -12 -12 -27 -8 -11 4
-36 6 -54 6 -24 -1 -40 6 -56 23 -29 31 -76 44 -76 21 0 -9 7 -19 15 -22 8 -4
13 -10 10 -14 -3 -5 0 -12 6 -16 8 -4 9 -3 5 4 -9 14 -4 15 26 3 13 -6 50 -13
82 -16 l60 -7 -24 -18 c-16 -12 -21 -23 -16 -35 4 -12 -1 -25 -14 -37 -11 -10
-20 -14 -20 -8 0 15 -30 12 -36 -3 -3 -8 -12 -14 -20 -14 -11 0 -14 6 -9 21
21 66 16 93 -13 64 -18 -18 -88 10 -119 46 -16 19 -33 30 -45 28 -10 -2 -48
15 -83 37 -74 47 -94 50 -135 19 -35 -26 -66 -30 -81 -11 -6 7 -17 13 -24 13
-13 0 -30 -28 -26 -43 1 -5 -3 -6 -8 -3 -5 4 -23 -6 -40 -20 -17 -14 -31 -22
-31 -18 0 4 -5 3 -12 -4 -7 -7 -19 -12 -28 -12 -9 0 -26 -9 -38 -20 -12 -12
-22 -17 -22 -12 0 16 -70 8 -71 -8 0 -9 -4 -6 -11 8 -6 12 -15 22 -20 22 -4 0
-8 6 -8 14 0 10 11 12 41 9 29 -4 39 -2 35 6 -4 6 -2 9 7 6 7 -3 26 5 42 19
25 22 55 25 55 6 0 -6 19 -7 55 -1 6 1 1 8 -9 16 -11 8 -28 12 -39 9 -17 -5
-17 -4 -5 18 7 12 19 27 26 31 9 6 9 13 1 28 -6 12 -9 23 -6 25 2 3 10 -9 17
-26 10 -25 30 -42 30 -25 0 10 -25 61 -37 76 -12 14 -11 17 3 23 10 4 22 -1
30 -11 7 -10 14 -13 14 -7 0 7 9 14 21 17 33 9 12 29 -24 23 -28 -4 -30 -3
-14 8 9 7 17 18 17 23 0 18 45 50 88 62 42 12 49 31 11 31 -24 0 -53 26 -44
40 3 5 1 10 -5 10 -7 0 -9 8 -5 20 5 15 3 18 -9 14 -12 -4 -15 -2 -10 9 6 17
-15 35 -25 20 -3 -6 -15 -7 -26 -2 -14 5 -16 8 -5 9 8 2 18 2 23 1 4 0 7 3 7
9 0 6 19 10 43 10 62 0 158 19 173 35 16 15 9 63 -12 86 -8 8 -14 21 -14 27 0
6 -12 14 -27 17 -16 3 -42 10 -59 15 -17 6 -49 10 -72 10 -22 0 -44 5 -47 10
-3 6 -22 10 -41 10 -19 0 -43 5 -54 12 -16 10 -24 9 -49 -10 l-30 -22 -76 25
c-94 31 -117 31 -149 1z m-221 -207 c11 -17 -1 -21 -15 -4 -8 9 -8 15 -2 15 6
0 14 -5 17 -11z m568 -36 c-7 -2 -13 -11 -13 -18 0 -7 -7 -16 -16 -19 -25 -10
-54 -7 -54 5 0 6 7 9 15 5 9 -3 23 3 33 13 9 11 24 19 32 19 10 0 11 -1 3 -5z
m-553 -17 c0 -16 -18 -31 -27 -22 -8 8 5 36 17 36 5 0 10 -6 10 -14z m585 -6
c-3 -5 -11 -10 -16 -10 -6 0 -7 5 -4 10 3 6 11 10 16 10 6 0 7 -4 4 -10z
m-1019 -88 c-10 -10 -29 15 -21 28 6 9 10 8 17 -4 6 -10 7 -20 4 -24z m1087
20 c-3 -7 -12 -11 -20 -8 -8 3 -17 6 -19 6 -3 0 -3 4 0 8 8 14 44 9 39 -6z
m31 -40 c2 -4 -4 -9 -15 -9 -11 -1 -17 2 -14 8 7 11 22 12 29 1z m-1259 -122
c-11 -17 -23 -1 -18 21 5 19 7 19 15 5 5 -9 6 -21 3 -26z m85 -40 c0 -37 -26
-41 -32 -5 -6 27 -1 35 19 35 8 0 13 -12 13 -30z m1830 -110 c0 -5 -4 -10 -10
-10 -5 0 -10 5 -10 10 0 6 5 10 10 10 6 0 10 -4 10 -10z m-1640 -10 c0 -5 -4
-10 -9 -10 -6 0 -13 5 -16 10 -3 6 1 10 9 10 9 0 16 -4 16 -10z m1194 -125
c-6 -16 -24 -21 -24 -7 0 11 11 22 21 22 5 0 6 -7 3 -15z m436 -44 c0 -5 -7
-11 -15 -15 -8 -3 -15 -1 -15 5 0 6 -5 7 -12 3 -7 -4 -8 -3 -4 4 8 14 46 16
46 3z m-559 -24 c-1 -12 -15 -9 -19 4 -3 6 1 10 8 8 6 -3 11 -8 11 -12z m-76
-17 c3 -5 1 -10 -4 -10 -6 0 -11 5 -11 10 0 6 2 10 4 10 3 0 8 -4 11 -10z
m189 -35 c3 -8 2 -15 -3 -15 -5 0 -14 7 -21 15 -10 12 -10 15 3 15 8 0 17 -7
21 -15z m-64 -30 c0 -8 -4 -15 -9 -15 -13 0 -22 16 -14 24 11 11 23 6 23 -9z"/>
<path d="M7749 6251 c-13 -11 -21 -22 -18 -25 3 -3 16 5 29 19 28 30 22 33
-11 6z"/>
<path d="M5856 6214 c-3 -9 1 -25 9 -37 15 -21 15 -21 15 10 0 35 -15 52 -24
27z"/>
<path d="M5837 6129 c-3 -12 -12 -19 -19 -17 -7 3 -18 -6 -25 -20 -17 -32 -18
-30 19 -28 30 1 32 4 34 44 2 46 -1 53 -9 21z"/>
<path d="M8067 6085 c-10 -7 -16 -23 -15 -39 2 -27 21 -35 34 -14 4 7 3 8 -5
4 -17 -11 -25 21 -9 37 7 8 19 12 26 9 16 -5 16 4 -1 11 -7 3 -21 -1 -30 -8z"/>
<path d="M8098 6063 c7 -3 16 -2 19 1 4 3 -2 6 -13 5 -11 0 -14 -3 -6 -6z"/>
<path d="M5365 6040 c-7 -11 14 -48 32 -54 17 -7 16 24 -1 47 -15 19 -22 21
-31 7z"/>
<path d="M7210 6040 c0 -5 7 -10 15 -10 8 0 15 5 15 10 0 6 -7 10 -15 10 -8 0
-15 -4 -15 -10z"/>
<path d="M7265 6030 c3 -5 14 -10 23 -10 15 0 15 2 2 10 -20 13 -33 13 -25 0z"/>
<path d="M7546 6024 c-5 -14 9 -54 19 -54 3 0 5 16 5 35 0 36 -13 47 -24 19z"/>
<path d="M8115 6030 c-3 -5 -1 -10 4 -10 6 0 11 5 11 10 0 6 -2 10 -4 10 -3 0
-8 -4 -11 -10z"/>
<path d="M8025 5987 c-41 -13 -50 -22 -53 -50 -2 -25 22 -44 33 -27 4 6 17 10
29 10 26 0 40 14 49 48 4 17 2 22 -8 18 -8 -3 -15 -1 -17 3 -2 4 -16 4 -33 -2z"/>
<path d="M2397 5974 c-3 -4 0 -16 7 -28 8 -11 12 -31 10 -43 -3 -17 1 -23 14
-24 10 0 12 -3 4 -6 -13 -5 -7 -23 9 -23 12 0 12 25 0 48 -5 9 -16 32 -23 50
-8 17 -17 29 -21 26z"/>
<path d="M7545 5950 c-12 -4 -26 -15 -33 -23 -21 -25 6 -32 32 -8 16 15 29 19
42 14 17 -6 17 -5 5 10 -15 19 -17 19 -46 7z"/>
<path d="M6186 5924 c-9 -23 -2 -28 13 -10 7 8 8 17 3 20 -6 3 -13 -1 -16 -10z"/>
<path d="M7638 5923 c6 -2 18 -2 25 0 6 3 1 5 -13 5 -14 0 -19 -2 -12 -5z"/>
<path d="M5433 5902 c9 -10 17 -26 17 -35 0 -9 5 -19 10 -22 13 -8 13 21 0 44
-5 10 -17 22 -27 25 -16 6 -16 6 0 -12z"/>
<path d="M8014 5880 c-12 -5 -24 -15 -27 -24 -7 -18 8 -22 18 -5 4 5 19 9 33
8 45 -3 62 0 62 14 0 14 -56 19 -86 7z"/>
<path d="M5850 5805 c0 -9 6 -12 15 -9 8 4 15 10 15 15 0 5 -7 9 -15 9 -8 0
-15 -7 -15 -15z"/>
<path d="M8198 5768 c5 -5 16 -8 23 -6 8 3 3 7 -10 11 -17 4 -21 3 -13 -5z"/>
<path d="M8257 5759 c7 -7 15 -10 18 -7 3 3 -2 9 -12 12 -14 6 -15 5 -6 -5z"/>
<path d="M7715 5719 c-10 -15 3 -25 16 -12 7 7 7 13 1 17 -6 3 -14 1 -17 -5z"/>
<path d="M5690 5708 c-16 -7 -20 -12 -12 -15 8 -3 21 2 30 11 19 18 17 19 -18
4z"/>
<path d="M7645 5700 c3 -5 11 -10 16 -10 6 0 7 5 4 10 -3 6 -11 10 -16 10 -6
0 -7 -4 -4 -10z"/>
<path d="M7680 5690 c0 -5 5 -10 11 -10 5 0 7 5 4 10 -3 6 -8 10 -11 10 -2 0
-4 -4 -4 -10z"/>
<path d="M7100 5674 c0 -8 5 -12 10 -9 6 3 10 10 10 16 0 5 -4 9 -10 9 -5 0
-10 -7 -10 -16z"/>
<path d="M7705 5670 c-4 -6 -4 -10 -1 -10 2 0 11 -3 20 -6 9 -3 16 -2 16 4 0
14 -28 23 -35 12z"/>
<path d="M5208 5652 c-10 -2 -18 -7 -18 -10 0 -4 -18 -6 -41 -4 -54 6 -68 -10
-32 -34 34 -23 112 -44 119 -33 3 5 10 9 15 9 6 0 8 -4 5 -9 -3 -5 20 -7 52
-4 31 2 67 4 78 4 12 0 27 6 33 13 17 20 -28 30 -49 11 -19 -17 -44 -20 -35
-5 3 6 -1 10 -10 10 -11 0 -15 5 -12 14 4 10 1 13 -8 10 -7 -3 -15 -14 -18
-25 -3 -10 -11 -19 -17 -19 -9 0 -9 4 1 17 13 15 12 15 -7 5 -25 -13 -58 2
-35 17 18 12 1 38 -21 33z"/>
<path d="M5355 5560 c-19 -7 -19 -8 -2 -15 19 -8 31 -2 26 13 -2 5 -13 6 -24
2z"/>
<path d="M5310 5540 c-13 -8 -12 -10 3 -10 9 0 17 5 17 10 0 12 -1 12 -20 0z"/>
<path d="M7900 5502 c0 -5 7 -9 15 -9 8 0 15 4 15 9 0 4 -7 8 -15 8 -8 0 -15
-4 -15 -8z"/>
<path d="M7430 5435 c0 -19 12 -25 27 -14 19 16 16 25 -7 25 -11 0 -20 -5 -20
-11z"/>
<path d="M7777 5433 c-11 -11 -8 -20 8 -20 8 0 15 6 15 14 0 14 -12 17 -23 6z"/>
<path d="M7615 5420 c-3 -5 -1 -10 4 -10 6 0 11 5 11 10 0 6 -2 10 -4 10 -3 0
-8 -4 -11 -10z"/>
<path d="M7810 5421 c0 -6 5 -13 10 -16 6 -3 10 1 10 9 0 9 -4 16 -10 16 -5 0
-10 -4 -10 -9z"/>
<path d="M3251 5388 c4 -31 -2 -39 -21 -33 -11 3 -28 2 -37 -4 -16 -9 -14 -10
9 -11 14 0 28 -5 30 -11 6 -19 40 2 35 22 -3 11 -1 22 4 25 14 9 10 24 -6 24
-9 0 -15 -6 -14 -12z"/>
<path d="M6917 5338 c4 -7 9 -24 11 -38 5 -37 22 -50 22 -16 0 32 -16 66 -31
66 -6 0 -7 -6 -2 -12z"/>
<path d="M4635 5330 c-3 -5 -1 -10 4 -10 6 0 11 5 11 10 0 6 -2 10 -4 10 -3 0
-8 -4 -11 -10z"/>
<path d="M5727 5321 c-14 -5 -3 -13 49 -35 37 -15 98 -47 134 -70 85 -56 97
-59 175 -51 48 6 62 10 58 21 -3 8 1 14 11 14 9 0 16 -4 16 -9 0 -4 12 -6 27
-3 24 5 25 6 9 18 -10 7 -15 17 -11 23 8 15 38 14 53 -1 9 -9 12 -9 12 0 0 21
-34 52 -58 52 -13 0 -21 4 -17 10 6 10 -42 4 -54 -6 -2 -2 -11 2 -20 10 -34
28 -328 50 -384 27z m170 -47 c-3 -3 -12 -4 -19 -1 -8 3 -5 6 6 6 11 1 17 -2
13 -5z m279 -20 c-3 -9 -6 -22 -6 -30 0 -28 -15 -13 -16 16 -1 20 4 30 14 30
9 0 12 -6 8 -16z m-111 -64 c3 -5 1 -10 -4 -10 -6 0 -11 5 -11 10 0 6 2 10 4
10 3 0 8 -4 11 -10z"/>
<path d="M2354 5288 c9 -43 26 -60 26 -26 0 34 -9 58 -22 58 -6 0 -8 -13 -4
-32z"/>
<path d="M7780 5299 c0 -5 5 -7 10 -4 6 3 10 8 10 11 0 2 -4 4 -10 4 -5 0 -10
-5 -10 -11z"/>
<path d="M6560 5280 c0 -5 5 -10 10 -10 6 0 10 -7 10 -15 0 -8 -4 -15 -10 -15
-5 0 -10 -8 -10 -19 0 -20 39 -51 65 -51 24 0 95 -39 102 -55 3 -8 10 -15 17
-15 6 0 28 -11 48 -25 40 -27 63 -31 73 -14 10 15 -1 23 -33 25 -15 1 -38 7
-52 12 l-25 10 33 8 c25 5 30 9 21 20 -6 7 -8 18 -4 24 4 6 -10 10 -40 10 -38
0 -45 3 -43 17 2 13 -9 22 -42 33 -25 8 -51 21 -58 28 -8 7 -17 10 -22 7 -4
-3 -10 4 -13 15 -5 20 -27 28 -27 10z"/>
<path d="M8908 5243 c7 -3 16 -2 19 1 4 3 -2 6 -13 5 -11 0 -14 -3 -6 -6z"/>
<path d="M4510 5231 c0 -6 4 -13 10 -16 6 -3 7 1 4 9 -7 18 -14 21 -14 7z"/>
<path d="M3175 5190 c-3 -5 -1 -10 4 -10 6 0 11 5 11 10 0 6 -2 10 -4 10 -3 0
-8 -4 -11 -10z"/>
<path d="M2410 5151 c0 -18 5 -31 13 -31 8 0 7 -3 -3 -10 -12 -7 -12 -16 -3
-51 8 -30 8 -47 1 -59 -8 -13 -7 -23 4 -39 9 -12 14 -31 11 -42 -3 -11 0 -19
6 -19 7 0 10 -4 7 -9 -3 -5 1 -22 9 -37 8 -16 15 -35 15 -41 0 -7 5 -13 10
-13 16 0 12 -19 -10 -43 -11 -12 -18 -27 -15 -35 2 -7 -4 -23 -15 -34 -25 -27
-26 -45 -2 -27 9 8 20 18 23 23 4 5 21 4 39 -3 48 -16 52 -14 45 22 -4 20 -1
48 7 68 12 28 12 38 1 59 -7 14 -10 37 -7 52 3 15 3 37 -1 47 -5 17 -9 19 -25
8 -30 -18 -43 4 -44 72 -1 33 -5 63 -9 67 -4 4 -7 16 -7 26 0 10 -4 18 -8 18
-4 0 -8 12 -7 27 0 18 -6 29 -17 31 -14 3 -18 -3 -18 -27z"/>
<path d="M6913 5033 c9 -2 25 -2 35 0 9 3 1 5 -18 5 -19 0 -27 -2 -17 -5z"/>
<path d="M3160 4977 c0 -2 12 -26 27 -53 29 -52 38 -49 25 12 -6 29 -13 40
-30 42 -12 2 -22 1 -22 -1z"/>
<path d="M6690 4889 c0 -5 5 -7 10 -4 6 3 10 8 10 11 0 2 -4 4 -10 4 -5 0 -10
-5 -10 -11z"/>
<path d="M5953 4849 c-13 -5 -23 -13 -23 -19 0 -14 11 -12 34 5 24 18 18 25
-11 14z"/>
<path d="M6681 4824 c0 -11 3 -14 6 -6 3 7 2 16 -1 19 -3 4 -6 -2 -5 -13z"/>
<path d="M2152 4815 c4 -4 3 -14 -2 -20 -7 -9 -6 -16 5 -25 13 -11 15 -9 15
13 0 14 -6 29 -12 33 -7 4 -10 4 -6 -1z"/>
<path d="M2470 4641 c-7 -14 -7 -21 0 -21 5 0 10 5 10 11 0 7 10 9 26 5 19 -5
25 -3 22 6 -8 22 -46 21 -58 -1z"/>
<path d="M7322 4538 c-4 -203 -7 -228 -19 -228 -7 0 -13 9 -13 19 0 27 -15 34
-30 15 -11 -12 -15 -12 -21 -2 -6 9 -9 10 -9 1 0 -7 -11 -24 -25 -39 -14 -15
-25 -36 -25 -46 0 -11 -4 -17 -9 -14 -5 4 -7 -3 -4 -14 4 -14 1 -20 -7 -18 -8
2 -19 -7 -25 -19 -7 -13 -15 -20 -18 -16 -4 3 -7 1 -7 -6 0 -6 -8 -21 -18 -31
-10 -11 -29 -49 -41 -85 -13 -36 -27 -65 -32 -65 -11 0 -46 -81 -55 -125 -5
-30 -4 -34 13 -31 10 2 30 -4 43 -14 23 -18 24 -21 11 -52 -7 -18 -21 -54 -30
-80 -10 -26 -22 -53 -28 -60 -21 -28 -64 -128 -59 -137 4 -5 -2 -12 -13 -16
-10 -3 -21 -15 -24 -25 -4 -14 -10 -18 -22 -13 -15 5 -17 1 -13 -26 3 -17 1
-34 -4 -37 -4 -3 -8 -29 -8 -58 0 -40 -6 -60 -25 -86 -14 -19 -25 -39 -25 -44
0 -6 7 0 16 12 21 30 37 28 69 -9 22 -27 25 -38 20 -74 -6 -33 -4 -43 9 -48 9
-4 16 -17 16 -31 0 -14 4 -27 9 -30 5 -3 20 -30 35 -61 17 -37 32 -55 44 -55
19 0 113 23 146 36 15 6 17 4 11 -6 -6 -10 -4 -12 7 -8 8 4 29 -2 45 -12 16
-10 53 -21 81 -25 35 -4 57 -14 66 -26 19 -28 60 -16 107 33 l38 39 16 -25
c20 -30 42 -23 64 17 10 19 10 29 2 46 -10 17 -9 21 4 21 23 0 57 -19 51 -29
-16 -25 110 -70 156 -55 21 6 22 19 5 99 -7 33 -11 68 -9 78 4 21 22 23 22 3
0 -10 16 -17 48 -22 26 -4 57 -11 70 -15 70 -26 79 138 10 183 l-22 15 24 13
c43 23 98 71 103 90 6 23 -35 40 -102 41 -43 1 -44 1 -18 11 17 6 27 17 27 29
0 11 4 18 10 14 5 -3 32 6 59 20 28 14 57 25 66 25 26 0 16 19 -24 45 -32 21
-37 30 -33 52 4 20 2 24 -9 18 -11 -6 -12 -5 -1 6 6 7 12 19 12 27 0 22 -61
91 -76 85 -9 -3 -14 2 -14 17 0 12 -15 36 -32 53 l-33 30 43 -6 c23 -4 61 -10
85 -13 l42 -5 -25 23 c-28 26 -40 89 -13 66 8 -6 22 -29 30 -50 13 -33 19 -38
47 -38 30 1 95 29 67 30 -11 0 -9 4 5 15 18 14 18 14 -7 15 -27 0 -46 13 -69
45 -14 19 -14 19 6 3 11 -10 35 -18 52 -18 17 0 34 -5 37 -10 4 -6 11 -8 16
-4 5 3 7 10 3 15 -3 5 -10 6 -16 3 -7 -5 -9 2 -6 19 4 20 -2 30 -23 46 -26 20
-29 20 -38 3 -9 -16 -10 -16 -16 1 -4 9 -14 17 -22 17 -8 0 -11 5 -7 11 4 7 0
9 -12 5 -11 -3 -26 -1 -34 4 -13 8 -12 10 3 10 12 0 17 8 17 30 0 38 -23 75
-66 104 l-34 23 36 16 c31 15 35 21 32 50 -2 23 -7 31 -20 29 -9 -1 -19 2 -23
8 -7 11 -57 13 -92 4 -13 -4 -20 -11 -16 -20 4 -12 0 -12 -22 -4 -30 11 -33
10 -90 -35 -22 -17 -48 -30 -58 -27 -24 5 -75 32 -61 32 16 0 26 42 14 54 -6
6 -10 19 -10 29 0 10 -22 39 -50 64 -27 25 -50 53 -50 62 0 22 -111 153 -145
171 -15 8 -31 22 -36 32 -19 35 -25 16 -27 -84z m227 -314 c-9 -11 -8 -18 1
-29 6 -8 9 -19 5 -25 -4 -6 4 -10 19 -10 14 0 26 4 26 10 0 14 51 -9 73 -34
16 -18 24 -19 78 -10 l59 10 0 -25 c0 -20 -2 -23 -10 -11 -7 12 -12 12 -22 2
-6 -6 -22 -12 -35 -12 -16 0 -23 -6 -23 -19 0 -26 -10 -51 -21 -51 -5 0 -9 6
-9 13 0 8 -11 20 -25 27 -14 7 -25 18 -25 23 0 10 -40 46 -52 47 -4 0 -16 -9
-27 -21 -11 -12 -24 -18 -29 -15 -5 3 -22 -10 -36 -29 -16 -21 -36 -35 -49
-36 l-22 0 23 -9 c22 -9 31 -30 12 -30 -6 0 -20 -19 -31 -42 -22 -45 -70 -78
-114 -78 -13 0 -27 -4 -30 -10 -3 -5 -12 -10 -20 -10 -10 0 -12 7 -6 28 4 15
6 33 3 41 -3 9 1 11 15 7 13 -4 27 2 44 20 13 14 34 30 47 35 27 10 29 39 3
39 -17 0 -31 18 -31 41 0 5 9 9 20 9 39 0 71 24 92 69 28 63 79 121 96 108 9
-7 9 -13 1 -23z m-297 -161 c7 -8 3 -10 -11 -6 -24 6 -23 5 -14 29 5 14 8 15
11 3 3 -7 9 -19 14 -26z m667 -120 c17 -21 27 -39 21 -41 -5 -2 -10 -10 -10
-18 0 -8 -7 -14 -15 -14 -17 0 -18 2 -9 24 3 9 10 13 15 10 23 -14 6 20 -23
47 -18 16 -27 29 -21 29 6 0 25 -17 42 -37z m126 7 c3 -5 2 -10 -4 -10 -5 0
-13 5 -16 10 -3 6 -2 10 4 10 5 0 13 -4 16 -10z m-913 -45 c0 -5 -5 -11 -11
-13 -6 -2 -11 4 -11 13 0 9 5 15 11 13 6 -2 11 -8 11 -13z m482 -65 c57 -19
179 -111 157 -118 -6 -2 -11 -10 -11 -17 0 -17 -59 -67 -71 -59 -19 12 -8 44
21 59 30 15 30 16 14 46 -10 21 -20 29 -31 25 -9 -4 -21 -1 -29 4 -9 9 -18 6
-33 -9 -12 -12 -30 -21 -41 -21 -11 0 -20 -6 -20 -14 0 -8 -5 -16 -12 -18 -13
-5 16 -72 57 -133 14 -19 20 -35 16 -35 -12 0 -61 59 -61 73 0 6 -7 1 -16 -11
-12 -17 -13 -30 -6 -50 13 -40 6 -54 -21 -41 -26 14 -77 60 -77 70 0 4 -4 19
-10 34 -10 25 -10 25 -42 9 -30 -15 -32 -15 -45 2 -16 22 -16 25 0 45 17 22
60 31 91 19 14 -5 38 -28 53 -51 l28 -42 7 39 c14 79 13 81 -36 80 -24 -1 -48
2 -52 7 -15 15 15 29 54 25 l39 -3 -24 38 c-13 22 -23 40 -21 41 12 10 45 25
54 26 6 0 37 -9 68 -20z m260 -29 c-10 -11 -21 -18 -25 -15 -4 2 2 14 14 27
26 27 35 17 11 -12z m-412 -4 c10 -4 9 -8 -2 -16 -26 -18 -39 -12 -38 18 1 25
3 27 14 16 8 -7 19 -16 26 -18z m-99 -12 c32 -29 39 -72 8 -55 -11 5 -31 10
-44 10 -31 0 -51 23 -42 50 9 27 43 25 78 -5z m542 -25 c3 -5 1 -10 -4 -10 -6
0 -11 5 -11 10 0 6 2 10 4 10 3 0 8 -4 11 -10z m-35 -40 c0 -11 -7 -20 -15
-20 -15 0 -21 21 -8 33 12 13 23 7 23 -13z m-729 -57 c-35 -49 -68 -83 -80
-83 -6 0 -11 -7 -11 -15 0 -8 -7 -15 -15 -15 -25 0 -18 11 48 77 65 66 93 82
58 36z m792 -3 c-7 -28 -13 -25 -13 6 0 14 4 23 9 20 5 -3 7 -15 4 -26z m-21
-106 c-8 -14 -9 -13 -9 10 0 18 3 24 9 18 7 -7 7 -16 0 -28z m-622 -39 c11
-13 10 -14 -4 -9 -9 3 -16 10 -16 15 0 13 6 11 20 -6z m650 -62 c0 -13 -3 -13
-15 -3 -8 7 -12 16 -9 21 8 13 24 1 24 -18z m-970 -73 c0 -5 -4 -10 -9 -10 -6
0 -13 5 -16 10 -3 6 1 10 9 10 9 0 16 -4 16 -10z m760 -20 c-6 -11 -12 -20
-14 -20 -2 0 -2 9 1 20 3 11 9 20 15 20 5 0 4 -9 -2 -20z m-410 0 c-8 -5 -19
-10 -25 -10 -5 0 -3 5 5 10 8 5 20 10 25 10 6 0 3 -5 -5 -10z m-103 -52 c-3
-7 -5 -2 -5 12 0 14 2 19 5 13 2 -7 2 -19 0 -25z m-27 18 c0 -3 -4 -8 -10 -11
-5 -3 -10 -1 -10 4 0 6 5 11 10 11 6 0 10 -2 10 -4z m690 -26 c0 -5 -4 -10
-10 -10 -5 0 -10 5 -10 10 0 6 5 10 10 10 6 0 10 -4 10 -10z m-750 -84 c0 -11
-19 -15 -25 -6 -3 5 1 10 9 10 9 0 16 -2 16 -4z m30 -26 c0 -5 -2 -10 -4 -10
-3 0 -8 5 -11 10 -3 6 -1 10 4 10 6 0 11 -4 11 -10z m570 -11 c0 -6 -4 -7 -10
-4 -5 3 -10 11 -10 16 0 6 5 7 10 4 6 -3 10 -11 10 -16z m-88 -26 c21 -19 23
-60 6 -100 -14 -31 -28 -44 -40 -37 -15 9 -8 41 12 59 24 22 26 52 3 77 -20
23 -6 24 19 1z"/>
<path d="M2386 4608 c-22 -31 -20 -45 3 -24 19 18 20 17 30 -15 5 -19 10 -26
10 -15 1 15 4 16 16 6 12 -10 15 -10 15 0 0 8 3 11 6 7 4 -3 -5 -20 -20 -38
-16 -19 -24 -38 -21 -49 3 -9 1 -29 -5 -44 -7 -21 -7 -28 4 -32 8 -3 12 -14 9
-24 -6 -22 14 -46 50 -59 35 -14 48 4 37 52 -4 21 -4 39 1 43 5 3 6 21 3 41
-5 28 -2 40 12 50 10 7 12 13 6 13 -7 0 -12 11 -12 25 0 14 5 25 10 25 6 0 10
10 9 23 0 20 -1 21 -8 2 -7 -18 -8 -18 -17 -2 -6 10 -26 19 -49 21 -22 2 -47
7 -56 11 -11 4 -22 -1 -33 -17z"/>
<path d="M2310 4586 c0 -2 7 -7 16 -10 8 -3 12 -2 9 4 -6 10 -25 14 -25 6z"/>
<path d="M2545 4471 c-3 -5 -1 -12 5 -16 5 -3 10 1 10 9 0 18 -6 21 -15 7z"/>
<path d="M3537 4473 c-12 -12 -7 -22 8 -17 8 4 15 10 15 15 0 11 -14 12 -23 2z"/>
<path d="M3592 4449 c-12 -19 -11 -19 8 -9 11 6 18 15 15 21 -8 12 -8 12 -23
-12z"/>
<path d="M7706 4393 c4 -16 13 -32 20 -36 10 -6 11 -14 4 -33 -14 -35 -12 -44
4 -38 14 5 36 46 36 67 0 15 -47 67 -61 67 -5 0 -7 -12 -3 -27z"/>
<path d="M2590 4374 c0 -14 4 -23 9 -20 14 9 22 -37 8 -46 -7 -5 2 -6 18 -2
42 9 47 14 40 32 -3 8 0 19 7 24 9 5 4 8 -13 8 -15 0 -29 7 -33 15 -9 25 -36
18 -36 -11z"/>
<path d="M2626 4277 c3 -10 9 -15 12 -12 3 3 0 11 -7 18 -10 9 -11 8 -5 -6z"/>
<path d="M3720 4263 c0 -10 5 -25 10 -33 8 -12 10 -9 10 12 0 15 -4 30 -10 33
-5 3 -10 -2 -10 -12z"/>
<path d="M8380 4090 c0 -5 13 -10 29 -10 17 0 33 5 36 10 4 6 -8 10 -29 10
-20 0 -36 -4 -36 -10z"/>
<path d="M3633 4058 c-7 -8 -11 -17 -8 -20 3 -3 -1 -11 -10 -18 -8 -7 -15 -17
-15 -24 0 -6 12 2 26 17 14 15 24 35 22 44 -3 14 -4 14 -15 1z"/>
<path d="M8080 4052 c0 -11 -3 -27 -6 -36 -8 -20 25 -20 75 -2 46 16 49 32 9
39 -18 4 -43 9 -55 13 -19 5 -23 2 -23 -14z"/>
<path d="M4130 3900 c-12 -8 -11 -10 7 -10 12 0 25 -5 29 -12 5 -8 2 -9 -9 -5
-10 3 -17 2 -17 -3 0 -6 4 -10 9 -10 5 0 17 -3 26 -6 21 -8 17 25 -5 43 -18
15 -21 15 -40 3z"/>
<path d="M6931 3763 c0 -12 -4 -30 -7 -40 -5 -17 -5 -17 6 0 6 10 9 28 7 40
-4 22 -4 22 -6 0z"/>
<path d="M3285 3760 c-3 -5 -1 -10 4 -10 6 0 11 5 11 10 0 6 -2 10 -4 10 -3 0
-8 -4 -11 -10z"/>
<path d="M4590 3690 c0 -5 7 -10 15 -10 8 0 15 -4 15 -10 0 -5 9 -10 19 -10
11 0 23 -4 26 -10 3 -5 11 -10 17 -10 7 0 6 6 -2 15 -7 8 -21 15 -31 15 -11 0
-19 7 -19 15 0 8 -9 15 -20 15 -11 0 -20 -4 -20 -10z"/>
<path d="M5280 3656 c0 -2 7 -7 16 -10 8 -3 12 -2 9 4 -6 10 -25 14 -25 6z"/>
<path d="M4802 3583 c29 -19 61 -42 70 -50 14 -13 20 -13 33 -3 34 28 -1 70
-58 70 -20 0 -38 4 -41 9 -3 5 -17 9 -31 9 -22 0 -19 -5 27 -35z"/>
<path d="M8050 3309 c-6 -23 -10 -42 -8 -44 2 -1 31 2 65 9 69 12 70 20 13 55
-49 29 -58 27 -70 -20z"/>
<path d="M5620 3250 c-9 -6 -10 -10 -3 -10 6 0 15 5 18 10 8 12 4 12 -15 0z"/>
<path d="M3996 3192 c-3 -6 -15 -8 -27 -5 -17 5 -20 2 -17 -17 4 -30 18 -34
45 -12 15 11 20 21 14 31 -5 8 -11 9 -15 3z"/>
<path d="M5452 3184 c3 -18 55 -38 138 -54 30 -6 72 -18 93 -26 63 -24 73 -17
31 21 -44 41 -48 42 -39 15 6 -18 4 -19 -19 -10 -14 5 -26 7 -26 4 0 -4 -11 1
-25 10 -13 9 -35 16 -49 16 -13 0 -27 7 -30 16 -3 9 -12 14 -19 11 -6 -2 -22
0 -35 4 -19 7 -23 6 -20 -7z"/>
<path d="M5300 3144 c-6 -14 -10 -29 -10 -33 0 -4 -9 -16 -19 -25 -24 -22 -53
-14 -76 21 l-17 26 -24 -29 c-27 -33 -30 -49 -9 -40 8 3 15 1 15 -4 0 -6 -7
-10 -17 -10 -22 0 -8 -13 20 -18 12 -2 29 -5 37 -6 28 -5 63 10 66 28 1 10 6
21 10 24 4 4 4 -1 1 -10 -7 -21 3 -23 22 -5 11 10 11 8 2 -10 -10 -20 -9 -23
9 -23 12 0 19 4 15 9 -3 5 -1 12 5 16 5 3 10 3 10 -2 0 -6 127 -9 189 -4 8 1
-3 17 -26 40 -28 28 -57 45 -107 60 -85 26 -84 26 -96 -5z"/>
<path d="M5814 3125 c4 -20 0 -26 -22 -32 -24 -6 -25 -7 -5 -14 11 -4 29 -6
39 -5 11 2 21 0 24 -3 3 -4 41 -16 85 -29 44 -12 112 -38 150 -57 39 -19 82
-37 96 -40 15 -4 43 -24 63 -46 23 -24 47 -39 61 -39 13 0 32 -3 42 -6 12 -3
10 1 -7 13 -13 10 -36 28 -50 41 l-25 22 30 -7 c17 -3 48 -7 70 -8 22 -1 47
-4 55 -8 8 -4 24 -5 35 -3 11 3 23 5 28 5 4 1 7 12 7 26 0 21 -5 25 -29 25
-31 0 -204 40 -256 59 -16 6 -49 16 -72 21 -27 7 -44 17 -48 30 -7 22 -19 26
-95 35 -62 7 -110 23 -110 36 0 5 -16 9 -35 9 -32 0 -35 -2 -31 -25z m129 -52
c-7 -2 -19 -2 -25 0 -7 3 -2 5 12 5 14 0 19 -2 13 -5z"/>
<path d="M5520 3110 c8 -5 22 -9 30 -9 10 0 8 3 -5 9 -27 12 -43 12 -25 0z"/>
<path d="M4028 3093 c7 -3 16 -2 19 1 4 3 -2 6 -13 5 -11 0 -14 -3 -6 -6z"/>
<path d="M5579 2990 c13 -11 30 -20 38 -20 10 0 13 -8 11 -27 -2 -21 2 -28 25
-36 20 -6 32 -6 40 2 8 8 7 11 -6 11 -9 0 -14 6 -12 13 3 7 -19 26 -49 45 -60
36 -83 42 -47 12z"/>
<path d="M4913 2923 c9 -2 17 -8 17 -12 0 -8 2 -8 170 -15 119 -5 132 -4 110
8 -14 8 -29 12 -34 9 -14 -9 -105 -6 -176 6 -65 11 -125 14 -87 4z"/>
<path d="M5730 2911 c0 -5 5 -13 10 -16 6 -3 10 -2 10 4 0 5 -4 13 -10 16 -5
3 -10 2 -10 -4z"/>
<path d="M5400 2900 c0 -5 4 -10 9 -10 6 0 13 5 16 10 3 6 -1 10 -9 10 -9 0
-16 -4 -16 -10z"/>
<path d="M5505 2900 c-30 -8 -30 -8 8 -9 20 0 40 -1 44 -2 4 0 9 4 11 10 4 12
-18 12 -63 1z"/>
<path d="M5770 2791 c0 -5 7 -15 17 -22 15 -13 15 -12 4 9 -12 23 -21 28 -21
13z"/>
<path d="M5804 2749 c-3 -6 -2 -14 2 -18 18 -15 151 -61 231 -80 45 -11 87
-22 93 -26 5 -3 10 -2 10 2 0 17 -24 33 -49 33 -15 0 -48 11 -76 24 -27 14
-53 22 -57 20 -3 -2 -9 0 -13 6 -3 5 -16 10 -28 10 -12 0 -35 9 -52 20 -34 22
-51 25 -61 9z"/>
</g>
</svg>
